<?xml version="1.0" encoding="UTF-8"?>
<svg id="_Слой_2" data-name="Слой 2" xmlns="http://www.w3.org/2000/svg" viewBox="0 0 76.82 76.38">
  <defs>
    <style>
      .cls-1 {
        fill-rule: evenodd;
      }

      .cls-1, .cls-2 {
        fill: #fefefe;
      }
    </style>
  </defs>
  <g id="_1" data-name="1">
    <g>
      <polygon class="cls-1" points="57.9 38.51 57.93 38.54 57.96 38.51 57.93 38.48 57.9 38.51"/>
      <rect class="cls-2" x="57.73" y="40.94" width=".08" height=".08" transform="translate(-12.06 52.85) rotate(-45)"/>
      <rect class="cls-2" x="57.24" y="43.34" width=".15" height=".15" transform="translate(-13.91 53.24) rotate(-45)"/>
      <path class="cls-1" d="M56.55,45.58c-.1,0-.18,.08-.18,.18s.08,.18,.18,.18,.18-.08,.18-.18-.08-.18-.18-.18Z"/>
      <path class="cls-1" d="M55.49,47.73c-.15,0-.27,.12-.27,.27s.12,.27,.27,.27,.27-.12,.27-.27-.12-.27-.27-.27Z"/>
      <path class="cls-1" d="M54.17,49.79c-.16,0-.29,.13-.29,.3s.13,.3,.29,.3,.3-.13,.3-.3-.13-.3-.3-.3Z"/>
      <path class="cls-1" d="M52.95,51.99c0-.2-.16-.35-.35-.35s-.36,.16-.36,.35,.16,.35,.36,.35,.35-.16,.35-.35Z"/>
      <circle class="cls-2" cx="50.79" cy="53.69" r=".38"/>
      <path class="cls-1" d="M48.79,54.74c-.22,0-.4,.18-.4,.4s.18,.4,.4,.4,.4-.18,.4-.4-.18-.4-.4-.4Z"/>
      <path class="cls-1" d="M46.62,55.9c-.24,0-.43,.19-.43,.43s.19,.43,.43,.43,.43-.19,.43-.43-.19-.43-.43-.43Z"/>
      <path class="cls-1" d="M44.32,56.81c-.24,0-.44,.19-.44,.44s.2,.44,.44,.44,.44-.2,.44-.44-.2-.44-.44-.44Z"/>
      <path class="cls-1" d="M41.93,57.41c-.25,0-.45,.2-.45,.45s.2,.45,.45,.45,.45-.2,.45-.45-.2-.45-.45-.45Z"/>
      <path class="cls-1" d="M39.47,57.71c-.25,0-.46,.21-.46,.46s.2,.46,.46,.46,.46-.2,.46-.46-.21-.46-.46-.46Z"/>
      <path class="cls-1" d="M37,57.71c-.25,0-.46,.21-.46,.46s.2,.46,.46,.46,.46-.2,.46-.46-.2-.46-.46-.46Z"/>
      <path class="cls-1" d="M35.01,57.86c0-.26-.21-.47-.47-.47s-.47,.21-.47,.47,.21,.47,.47,.47,.47-.21,.47-.47Z"/>
      <path class="cls-1" d="M32.64,57.24c0-.27-.22-.49-.49-.49s-.49,.22-.49,.49,.22,.49,.49,.49,.49-.22,.49-.49Z"/>
      <path class="cls-1" d="M30.36,56.33c0-.28-.23-.51-.51-.51s-.51,.23-.51,.51,.23,.51,.51,.51,.51-.23,.51-.51Z"/>
      <path class="cls-1" d="M28.23,55.14c0-.3-.24-.55-.55-.55s-.55,.25-.55,.55,.24,.55,.55,.55,.55-.24,.55-.55Z"/>
      <path class="cls-1" d="M26.29,53.69c0-.33-.27-.61-.61-.61s-.61,.27-.61,.61,.27,.61,.61,.61,.61-.27,.61-.61Z"/>
      <path class="cls-1" d="M23.88,52.63c.35,0,.63-.28,.63-.63s-.28-.63-.63-.63-.63,.28-.63,.63,.28,.63,.63,.63Z"/>
      <path class="cls-1" d="M22.3,50.77c.38,0,.68-.31,.68-.68s-.31-.68-.68-.68-.68,.31-.68,.68,.31,.68,.68,.68Z"/>
      <path class="cls-1" d="M21.72,48c0-.41-.33-.75-.75-.75s-.75,.34-.75,.75,.34,.75,.75,.75,.75-.34,.75-.75Z"/>
      <path class="cls-1" d="M19.92,46.53c.43,0,.77-.35,.77-.77s-.34-.77-.77-.77-.77,.34-.77,.77,.34,.77,.77,.77Z"/>
      <path class="cls-1" d="M19.16,44.22c.45,0,.81-.36,.81-.81s-.36-.81-.81-.81-.81,.36-.81,.81,.36,.81,.81,.81Z"/>
      <path class="cls-1" d="M18.7,41.81c.45,0,.83-.37,.83-.83s-.37-.82-.83-.82-.82,.37-.82,.82,.37,.83,.82,.83Z"/>
      <path class="cls-1" d="M18.54,39.35c.46,0,.84-.37,.84-.83s-.37-.84-.84-.84-.84,.37-.84,.84,.37,.83,.84,.83Z"/>
      <path class="cls-1" d="M18.7,36.88c.46,0,.84-.38,.84-.84s-.38-.84-.84-.84-.84,.38-.84,.84,.38,.84,.84,.84Z"/>
      <path class="cls-1" d="M20.01,33.61c0-.47-.38-.85-.85-.85s-.85,.38-.85,.85,.38,.85,.85,.85,.85-.38,.85-.85Z"/>
      <path class="cls-1" d="M19.92,30.39c-.48,0-.87,.39-.87,.87s.39,.87,.87,.87,.87-.39,.87-.87-.39-.87-.87-.87Z"/>
      <path class="cls-1" d="M20.98,28.12c-.5,0-.9,.4-.9,.9s.4,.9,.9,.9,.9-.4,.9-.9-.4-.9-.9-.9Z"/>
      <path class="cls-1" d="M22.3,25.98c-.52,0-.95,.43-.95,.95s.42,.95,.95,.95,.95-.42,.95-.95-.43-.95-.95-.95Z"/>
      <path class="cls-1" d="M23.88,26c.54,0,.97-.43,.97-.97s-.44-.97-.97-.97-.97,.44-.97,.97,.44,.97,.97,.97Z"/>
      <path class="cls-1" d="M25.68,22.32c-.56,0-1.02,.46-1.02,1.02s.46,1.02,1.02,1.02,1.02-.46,1.02-1.02-.46-1.02-1.02-1.02Z"/>
      <path class="cls-1" d="M27.68,20.84c-.58,0-1.04,.47-1.04,1.04s.47,1.04,1.04,1.04,1.04-.47,1.04-1.04-.47-1.04-1.04-1.04Z"/>
      <path class="cls-1" d="M29.85,19.64c-.58,0-1.05,.47-1.05,1.05s.47,1.05,1.05,1.05,1.05-.47,1.05-1.05-.47-1.05-1.05-1.05Z"/>
      <path class="cls-1" d="M32.15,18.71c-.59,0-1.07,.48-1.07,1.07s.48,1.07,1.07,1.07,1.07-.48,1.07-1.07-.48-1.07-1.07-1.07Z"/>
      <path class="cls-1" d="M34.54,18.09c-.6,0-1.08,.48-1.08,1.08s.48,1.08,1.08,1.08,1.08-.48,1.08-1.08-.48-1.08-1.08-1.08Z"/>
      <path class="cls-1" d="M55.31,26.94c0-.63-.51-1.15-1.15-1.15s-1.15,.51-1.15,1.15,.51,1.15,1.15,1.15,1.15-.51,1.15-1.15Z"/>
      <polygon class="cls-1" points="59.9 38.5 59.89 38.51 59.9 38.52 59.91 38.51 59.9 38.5"/>
      <polygon class="cls-1" points="59.76 40.94 59.71 40.98 59.76 41.02 59.8 40.98 59.76 40.94"/>
      <rect class="cls-2" x="59.27" y="43.35" width=".14" height=".14" transform="translate(-13.28 54.97) rotate(-45.23)"/>
      <path class="cls-1" d="M58.64,45.96c.09,0,.16-.07,.16-.16s-.07-.16-.16-.16-.16,.07-.16,.16,.07,.16,.16,.16Z"/>
      <path class="cls-1" d="M57.45,48.07c0,.13,.1,.23,.23,.23s.23-.1,.23-.23-.1-.23-.23-.23-.23,.1-.23,.23Z"/>
      <path class="cls-1" d="M56.46,49.95c-.15,0-.27,.12-.27,.27s.12,.27,.27,.27,.27-.12,.27-.27-.12-.27-.27-.27Z"/>
      <path class="cls-1" d="M54.69,52.22c0,.17,.14,.31,.31,.31s.31-.14,.31-.31-.14-.31-.31-.31-.31,.14-.31,.31Z"/>
      <path class="cls-1" d="M53.33,54.39c.19,0,.34-.15,.34-.34s-.15-.34-.34-.34-.34,.15-.34,.34,.15,.34,.34,.34Z"/>
      <path class="cls-1" d="M51.46,55.29c-.21,0-.38,.17-.38,.38s.17,.38,.38,.38,.38-.17,.38-.38-.17-.38-.38-.38Z"/>
      <path class="cls-1" d="M49.42,57.45c.21,0,.39-.17,.39-.39s-.17-.39-.39-.39-.39,.17-.39,.39,.17,.39,.39,.39Z"/>
      <path class="cls-1" d="M47.23,58.63c.23,0,.41-.19,.41-.42s-.19-.42-.41-.42-.41,.19-.41,.42,.19,.42,.41,.42Z"/>
      <path class="cls-1" d="M44.49,59.11c0,.25,.2,.44,.44,.44s.44-.2,.44-.44-.2-.44-.44-.44-.44,.2-.44,.44Z"/>
      <path class="cls-1" d="M42.09,59.74c0,.25,.2,.45,.45,.45s.45-.2,.45-.45-.2-.45-.45-.45-.45,.2-.45,.45Z"/>
      <path class="cls-1" d="M39.63,60.1c0,.25,.21,.46,.46,.46s.46-.2,.46-.46-.21-.46-.46-.46-.46,.21-.46,.46Z"/>
      <path class="cls-1" d="M37.16,60.17c0,.25,.2,.46,.46,.46s.46-.21,.46-.46-.2-.46-.46-.46-.46,.21-.46,.46Z"/>
      <path class="cls-1" d="M35.15,60.43c.26,0,.47-.21,.47-.47s-.21-.47-.47-.47-.47,.21-.47,.47,.21,.47,.47,.47Z"/>
      <path class="cls-1" d="M32.73,59.94c.26,0,.48-.21,.48-.48s-.21-.48-.48-.48-.48,.22-.48,.48,.22,.48,.48,.48Z"/>
      <path class="cls-1" d="M30.37,59.2c.28,0,.5-.22,.5-.5s-.23-.5-.5-.5-.5,.23-.5,.5,.23,.5,.5,.5Z"/>
      <path class="cls-1" d="M28.12,58.2c.29,0,.52-.23,.52-.52s-.23-.52-.52-.52-.52,.24-.52,.52,.23,.52,.52,.52Z"/>
      <path class="cls-1" d="M26.01,56.97c.32,0,.58-.26,.58-.58s-.26-.58-.58-.58-.58,.26-.58,.58,.26,.58,.58,.58Z"/>
      <path class="cls-1" d="M24.05,55.51c.34,0,.62-.28,.62-.62s-.28-.62-.62-.62-.62,.28-.62,.62,.28,.62,.62,.62Z"/>
      <path class="cls-1" d="M22.27,53.82c.36,0,.66-.29,.66-.66s-.29-.65-.66-.65-.66,.29-.66,.65,.29,.66,.66,.66Z"/>
      <path class="cls-1" d="M20.71,50.54c-.39,0-.71,.32-.71,.7s.32,.7,.71,.7,.7-.32,.7-.7-.31-.7-.7-.7Z"/>
      <path class="cls-1" d="M19.37,49.91c.41,0,.75-.34,.75-.75s-.34-.75-.75-.75-.75,.34-.75,.75,.33,.75,.75,.75Z"/>
      <path class="cls-1" d="M18.28,47.72c.42,0,.77-.34,.77-.77s-.34-.77-.77-.77-.77,.34-.77,.77,.34,.77,.77,.77Z"/>
      <path class="cls-1" d="M18.25,44.61c0-.44-.36-.8-.8-.8s-.8,.36-.8,.8,.36,.8,.8,.8,.8-.36,.8-.8Z"/>
      <path class="cls-1" d="M16.89,43.02c.45,0,.82-.37,.82-.82s-.37-.82-.82-.82-.82,.37-.82,.82,.37,.82,.82,.82Z"/>
      <path class="cls-1" d="M16.61,40.58c.46,0,.83-.37,.83-.83s-.37-.83-.83-.83-.83,.37-.83,.83,.37,.83,.83,.83Z"/>
      <path class="cls-1" d="M16.61,38.12c.46,0,.84-.38,.84-.84s-.38-.84-.84-.84-.84,.38-.84,.84,.38,.84,.84,.84Z"/>
      <path class="cls-1" d="M17.73,34.82c0-.47-.38-.85-.85-.85s-.85,.38-.85,.85,.38,.85,.85,.85,.85-.38,.85-.85Z"/>
      <path class="cls-1" d="M18.31,32.41c0-.47-.38-.86-.86-.86s-.86,.38-.86,.86,.38,.86,.86,.86,.86-.38,.86-.86Z"/>
      <path class="cls-1" d="M18.28,29.21c-.48,0-.87,.39-.87,.87s.39,.87,.87,.87,.87-.39,.87-.87-.39-.87-.87-.87Z"/>
      <path class="cls-1" d="M20.26,27.86c0-.49-.4-.89-.88-.89s-.88,.4-.88,.89,.4,.88,.88,.88,.88-.4,.88-.88Z"/>
      <path class="cls-1" d="M21.64,25.78c0-.52-.42-.93-.93-.93s-.93,.42-.93,.93,.42,.93,.93,.93,.93-.42,.93-.93Z"/>
      <path class="cls-1" d="M23.23,23.86c0-.53-.43-.95-.96-.95s-.95,.43-.95,.95,.43,.96,.95,.96,.96-.43,.96-.96Z"/>
      <path class="cls-1" d="M25.05,22.14c0-.56-.45-1-1-1s-1.01,.45-1.01,1,.45,1.01,1.01,1.01,1-.45,1-1.01Z"/>
      <path class="cls-1" d="M26.01,21.65c.56,0,1.02-.46,1.02-1.02s-.46-1.02-1.02-1.02-1.02,.46-1.02,1.02,.46,1.02,1.02,1.02Z"/>
      <path class="cls-1" d="M29.17,19.35c0-.58-.47-1.04-1.04-1.04s-1.04,.47-1.04,1.04,.47,1.04,1.04,1.04,1.04-.47,1.04-1.04Z"/>
      <path class="cls-1" d="M31.43,18.32c0-.58-.47-1.05-1.05-1.05s-1.05,.47-1.05,1.05,.47,1.05,1.05,1.05,1.05-.47,1.05-1.05Z"/>
      <path class="cls-1" d="M33.8,17.56c0-.6-.48-1.08-1.08-1.08s-1.08,.48-1.08,1.08,.48,1.07,1.08,1.07,1.08-.48,1.08-1.07Z"/>
      <path class="cls-1" d="M36.24,17.07c0-.6-.49-1.09-1.09-1.09s-1.09,.49-1.09,1.09,.49,1.09,1.09,1.09,1.09-.49,1.09-1.09Z"/>
      <polygon class="cls-1" points="61.87 38.49 61.85 38.51 61.87 38.53 61.89 38.51 61.87 38.49"/>
      <rect class="cls-2" x="61.7" y="40.94" width=".08" height=".08" transform="translate(-10.93 55.48) rotate(-44.86)"/>
      <polygon class="cls-1" points="61.46 43.43 61.35 43.32 61.25 43.43 61.35 43.53 61.46 43.43"/>
      <path class="cls-1" d="M60.71,45.63c-.1,0-.19,.08-.19,.19s.08,.19,.19,.19,.19-.08,.19-.19-.08-.19-.19-.19Z"/>
      <path class="cls-1" d="M59.63,48.12c0,.11,.09,.19,.19,.19s.19-.09,.19-.19-.09-.19-.19-.19-.19,.09-.19,.19Z"/>
      <path class="cls-1" d="M58.7,50.6c.15,0,.27-.12,.27-.27s-.12-.27-.27-.27-.27,.12-.27,.27,.12,.27,.27,.27Z"/>
      <path class="cls-1" d="M57.07,52.4c0,.16,.13,.28,.28,.28s.28-.13,.28-.28-.13-.28-.28-.28-.28,.13-.28,.28Z"/>
      <path class="cls-1" d="M55.48,54.33c0,.17,.14,.32,.32,.32s.32-.14,.32-.32-.14-.32-.32-.32-.32,.14-.32,.32Z"/>
      <path class="cls-1" d="M54.05,55.71c-.2,0-.36,.16-.36,.36s.16,.36,.36,.36,.36-.16,.36-.36-.16-.36-.36-.36Z"/>
      <path class="cls-1" d="M51.73,57.63c0,.22,.18,.39,.39,.39s.39-.18,.39-.39-.18-.39-.39-.39-.39,.18-.39,.39Z"/>
      <path class="cls-1" d="M50.46,58.98c0-.23-.18-.41-.41-.41s-.41,.18-.41,.41,.18,.41,.41,.41,.41-.18,.41-.41Z"/>
      <path class="cls-1" d="M48.28,60.1c0-.24-.19-.43-.43-.43s-.43,.19-.43,.43,.19,.43,.43,.43,.43-.19,.43-.43Z"/>
      <path class="cls-1" d="M45.97,60.99c0-.24-.2-.44-.44-.44s-.44,.19-.44,.44,.2,.44,.44,.44,.44-.19,.44-.44Z"/>
      <path class="cls-1" d="M43.6,61.63c0-.25-.2-.45-.45-.45s-.45,.2-.45,.45,.2,.45,.45,.45,.45-.2,.45-.45Z"/>
      <path class="cls-1" d="M41.16,62.02c0-.25-.2-.46-.46-.46s-.46,.21-.46,.46,.2,.46,.46,.46,.46-.21,.46-.46Z"/>
      <path class="cls-1" d="M38.69,62.15c0-.25-.21-.46-.46-.46s-.46,.21-.46,.46,.21,.46,.46,.46,.46-.21,.46-.46Z"/>
      <path class="cls-1" d="M36.22,62.02c0-.25-.21-.46-.46-.46s-.46,.21-.46,.46,.2,.46,.46,.46,.46-.21,.46-.46Z"/>
      <path class="cls-1" d="M33.8,61.63c0-.27-.22-.48-.48-.48s-.48,.22-.48,.48,.21,.48,.48,.48,.48-.22,.48-.48Z"/>
      <path class="cls-1" d="M31.44,60.99c0-.28-.23-.51-.51-.51s-.51,.23-.51,.51,.23,.51,.51,.51,.51-.23,.51-.51Z"/>
      <path class="cls-1" d="M29.14,60.1c0-.29-.23-.52-.52-.52s-.52,.23-.52,.52,.23,.52,.52,.52,.52-.23,.52-.52Z"/>
      <path class="cls-1" d="M26.98,58.98c0-.31-.25-.56-.56-.56s-.56,.25-.56,.56,.25,.56,.56,.56,.56-.25,.56-.56Z"/>
      <path class="cls-1" d="M24.34,58.23c.33,0,.59-.27,.59-.6s-.27-.6-.59-.6-.59,.27-.59,.6,.27,.6,.59,.6Z"/>
      <path class="cls-1" d="M22.42,56.7c.35,0,.63-.28,.63-.63s-.28-.63-.63-.63-.63,.28-.63,.63,.28,.63,.63,.63Z"/>
      <path class="cls-1" d="M20.67,53.67c-.36,0-.66,.29-.66,.66s.29,.65,.66,.65,.65-.29,.65-.65-.29-.66-.65-.66Z"/>
      <path class="cls-1" d="M19.11,53.11c.39,0,.71-.32,.71-.71s-.32-.71-.71-.71-.71,.32-.71,.71,.32,.71,.71,.71Z"/>
      <path class="cls-1" d="M17.77,49.6c-.4,0-.73,.32-.73,.73s.33,.73,.73,.73,.73-.33,.73-.73-.33-.73-.73-.73Z"/>
      <path class="cls-1" d="M16.64,48.89c.42,0,.77-.34,.77-.77s-.34-.77-.77-.77-.77,.34-.77,.77,.34,.77,.77,.77Z"/>
      <path class="cls-1" d="M16.54,45.81c0-.43-.35-.79-.79-.79s-.79,.35-.79,.79,.35,.79,.79,.79,.79-.35,.79-.79Z"/>
      <path class="cls-1" d="M15.12,44.24c.45,0,.82-.37,.82-.82s-.37-.82-.82-.82-.82,.37-.82,.82,.37,.82,.82,.82Z"/>
      <path class="cls-1" d="M15.56,40.98c0-.46-.37-.83-.83-.83s-.83,.37-.83,.83,.37,.83,.83,.83,.83-.37,.83-.83Z"/>
      <path class="cls-1" d="M14.6,37.68c-.46,0-.84,.37-.84,.84s.37,.83,.84,.83,.84-.37,.84-.83-.37-.84-.84-.84Z"/>
      <path class="cls-1" d="M14.73,35.2c-.46,0-.84,.38-.84,.84s.38,.84,.84,.84,.84-.38,.84-.84-.38-.84-.84-.84Z"/>
      <path class="cls-1" d="M15.98,33.6c0-.47-.38-.86-.86-.86s-.86,.38-.86,.86,.38,.86,.86,.86,.86-.38,.86-.86Z"/>
      <path class="cls-1" d="M15.76,32.08c.48,0,.87-.39,.87-.87s-.39-.87-.87-.87-.87,.39-.87,.87,.39,.87,.87,.87Z"/>
      <path class="cls-1" d="M17.52,28.9c0-.48-.39-.88-.88-.88s-.88,.39-.88,.88,.39,.88,.88,.88,.88-.39,.88-.88Z"/>
      <path class="cls-1" d="M18.69,26.7c0-.51-.41-.92-.92-.92s-.92,.41-.92,.92,.41,.92,.92,.92,.92-.41,.92-.92Z"/>
      <path class="cls-1" d="M20.05,24.62c0-.52-.42-.93-.93-.93s-.93,.42-.93,.93,.42,.93,.93,.93,.93-.42,.93-.93Z"/>
      <path class="cls-1" d="M21.64,22.7c0-.53-.43-.97-.97-.97s-.97,.43-.97,.97,.43,.97,.97,.97,.97-.43,.97-.97Z"/>
      <path class="cls-1" d="M22.42,21.94c.55,0,.99-.44,.99-.99s-.44-.99-.99-.99-.99,.44-.99,.99,.44,.99,.99,.99Z"/>
      <path class="cls-1" d="M24.34,20.41c.56,0,1.02-.45,1.02-1.02s-.45-1.02-1.02-1.02-1.02,.46-1.02,1.02,.45,1.02,1.02,1.02Z"/>
      <path class="cls-1" d="M27.46,18.05c0-.57-.46-1.04-1.04-1.04s-1.04,.46-1.04,1.04,.46,1.04,1.04,1.04,1.04-.46,1.04-1.04Z"/>
      <path class="cls-1" d="M28.62,17.98c.58,0,1.05-.47,1.05-1.05s-.47-1.05-1.05-1.05-1.05,.47-1.05,1.05,.47,1.05,1.05,1.05Z"/>
      <path class="cls-1" d="M30.93,17.1c.59,0,1.06-.48,1.06-1.07s-.48-1.06-1.06-1.06-1.06,.48-1.06,1.06,.48,1.07,1.06,1.07Z"/>
      <path class="cls-1" d="M33.32,14.31c-.6,0-1.08,.48-1.08,1.08s.48,1.08,1.08,1.08,1.08-.48,1.08-1.08-.48-1.08-1.08-1.08Z"/>
      <path class="cls-1" d="M57.35,25.78c.64,0,1.16-.52,1.16-1.16s-.52-1.16-1.16-1.16-1.16,.52-1.16,1.16,.52,1.16,1.16,1.16Z"/>
      <polygon class="cls-1" points="63.84 38.5 63.83 38.51 63.84 38.52 63.85 38.51 63.84 38.5"/>
      <polygon class="cls-1" points="63.72 40.92 63.66 40.98 63.72 41.04 63.78 40.98 63.72 40.92"/>
      <polygon class="cls-1" points="63.36 43.37 63.3 43.43 63.36 43.49 63.42 43.43 63.36 43.37"/>
      <path class="cls-1" d="M62.77,46c.09,0,.17-.08,.17-.17s-.08-.17-.17-.17-.17,.08-.17,.17,.08,.17,.17,.17Z"/>
      <path class="cls-1" d="M61.77,48.17c0,.1,.08,.18,.18,.18s.18-.08,.18-.18-.08-.18-.18-.18-.18,.08-.18,.18Z"/>
      <path class="cls-1" d="M60.65,50.41c0,.14,.12,.26,.26,.26s.26-.12,.26-.26-.11-.26-.26-.26-.26,.12-.26,.26Z"/>
      <path class="cls-1" d="M59.39,52.54c0,.14,.11,.26,.26,.26s.26-.12,.26-.26-.12-.26-.26-.26-.26,.11-.26,.26Z"/>
      <circle class="cls-2" cx="58.2" cy="54.54" r=".3"/>
      <path class="cls-1" d="M56.9,56.4c0-.19-.15-.34-.34-.34s-.34,.15-.34,.34,.15,.34,.34,.34,.34-.15,.34-.34Z"/>
      <path class="cls-1" d="M54.37,58.08c0,.21,.17,.38,.38,.38s.38-.17,.38-.38-.17-.38-.38-.38-.38,.17-.38,.38Z"/>
      <path class="cls-1" d="M53.18,59.58c0-.22-.18-.4-.4-.4s-.4,.18-.4,.4,.18,.4,.4,.4,.4-.18,.4-.4Z"/>
      <path class="cls-1" d="M50.68,61.31c.23,0,.42-.19,.42-.42s-.19-.42-.42-.42-.42,.19-.42,.42,.19,.42,.42,.42Z"/>
      <path class="cls-1" d="M48.46,62.42c.24,0,.43-.19,.43-.43s-.19-.43-.43-.43-.43,.19-.43,.43,.19,.43,.43,.43Z"/>
      <path class="cls-1" d="M46.15,63.3c.24,0,.44-.2,.44-.44s-.2-.44-.44-.44-.44,.19-.44,.44,.2,.44,.44,.44Z"/>
      <path class="cls-1" d="M43.76,63.96c.25,0,.45-.2,.45-.45s-.2-.45-.45-.45-.45,.2-.45,.45,.2,.45,.45,.45Z"/>
      <path class="cls-1" d="M41.32,64.38c.25,0,.45-.2,.45-.45s-.2-.45-.45-.45-.45,.2-.45,.45,.2,.45,.45,.45Z"/>
      <path class="cls-1" d="M38.85,64.57c.25,0,.46-.2,.46-.46s-.21-.46-.46-.46-.46,.21-.46,.46,.21,.46,.46,.46Z"/>
      <path class="cls-1" d="M36.38,64.51c.25,0,.46-.21,.46-.46s-.21-.46-.46-.46-.46,.2-.46,.46,.2,.46,.46,.46Z"/>
      <path class="cls-1" d="M33.92,64.22c.26,0,.47-.21,.47-.47s-.21-.47-.47-.47-.47,.21-.47,.47,.21,.47,.47,.47Z"/>
      <path class="cls-1" d="M31.51,63.68c.26,0,.47-.21,.47-.47s-.21-.47-.47-.47-.47,.21-.47,.47,.21,.47,.47,.47Z"/>
      <path class="cls-1" d="M29.16,62.96c.28,0,.51-.23,.51-.51s-.23-.51-.51-.51-.51,.23-.51,.51,.23,.51,.51,.51Z"/>
      <path class="cls-1" d="M26.89,61.99c.29,0,.53-.24,.53-.53s-.24-.53-.53-.53-.53,.24-.53,.53,.24,.53,.53,.53Z"/>
      <path class="cls-1" d="M25.31,60.26c0-.32-.26-.58-.58-.58s-.58,.26-.58,.58,.26,.58,.58,.58,.58-.26,.58-.58Z"/>
      <path class="cls-1" d="M23.3,58.85c0-.33-.27-.61-.61-.61s-.61,.27-.61,.61,.27,.61,.61,.61,.61-.27,.61-.61Z"/>
      <path class="cls-1" d="M20.8,57.89c.35,0,.63-.28,.63-.63s-.28-.63-.63-.63-.63,.28-.63,.63,.28,.63,.63,.63Z"/>
      <path class="cls-1" d="M19.07,56.14c.36,0,.65-.29,.65-.65s-.29-.66-.65-.66-.66,.29-.66,.66,.29,.65,.66,.65Z"/>
      <path class="cls-1" d="M17.52,54.27c.39,0,.71-.32,.71-.71s-.32-.71-.71-.71-.71,.32-.71,.71,.32,.71,.71,.71Z"/>
      <path class="cls-1" d="M16.88,51.49c0-.39-.32-.71-.71-.71s-.71,.32-.71,.71,.32,.71,.71,.71,.71-.32,.71-.71Z"/>
      <path class="cls-1" d="M15.02,50.07c.43,0,.77-.35,.77-.77s-.34-.77-.77-.77-.77,.35-.77,.77,.34,.77,.77,.77Z"/>
      <path class="cls-1" d="M14.87,47.01c0-.44-.35-.79-.79-.79s-.79,.35-.79,.79,.35,.79,.79,.79,.79-.35,.79-.79Z"/>
      <path class="cls-1" d="M13.38,45.45c.45,0,.81-.37,.81-.81s-.36-.81-.81-.81-.81,.36-.81,.81,.36,.81,.81,.81Z"/>
      <path class="cls-1" d="M12.9,43.03c.45,0,.82-.37,.82-.82s-.37-.82-.82-.82-.82,.37-.82,.82,.37,.82,.82,.82Z"/>
      <path class="cls-1" d="M12.66,40.58c.46,0,.83-.37,.83-.83s-.37-.83-.83-.83-.83,.37-.83,.83,.37,.83,.83,.83Z"/>
      <path class="cls-1" d="M12.66,38.12c.46,0,.84-.38,.84-.84s-.38-.84-.84-.84-.84,.38-.84,.84,.38,.84,.84,.84Z"/>
      <path class="cls-1" d="M12.9,35.65c.46,0,.84-.38,.84-.84s-.38-.84-.84-.84-.84,.38-.84,.84,.38,.84,.84,.84Z"/>
      <path class="cls-1" d="M14.23,32.38c0-.47-.38-.85-.85-.85s-.85,.38-.85,.85,.38,.85,.85,.85,.85-.38,.85-.85Z"/>
      <path class="cls-1" d="M14.08,30.88c.48,0,.86-.39,.86-.86s-.39-.86-.86-.86-.86,.39-.86,.86,.39,.86,.86,.86Z"/>
      <path class="cls-1" d="M14.14,27.72c0,.48,.39,.87,.87,.87s.87-.39,.87-.87-.39-.87-.87-.87-.87,.39-.87,.87Z"/>
      <circle class="cls-2" cx="16.17" cy="25.53" r=".92"/>
      <path class="cls-1" d="M17.52,22.53c-.51,0-.93,.42-.93,.93s.41,.93,.93,.93,.93-.41,.93-.93-.41-.93-.93-.93Z"/>
      <path class="cls-1" d="M20.03,21.53c0-.53-.43-.96-.96-.96s-.96,.43-.96,.96,.43,.96,.96,.96,.96-.43,.96-.96Z"/>
      <circle class="cls-2" cx="20.8" cy="19.76" r=".97"/>
      <path class="cls-1" d="M22.69,19.17c.56,0,1.01-.45,1.01-1.01s-.45-1-1.01-1-1,.45-1,1,.45,1.01,1,1.01Z"/>
      <path class="cls-1" d="M23.7,16.76c0,.56,.46,1.02,1.02,1.02s1.02-.46,1.02-1.02-.46-1.02-1.02-1.02-1.02,.46-1.02,1.02Z"/>
      <path class="cls-1" d="M27.93,15.56c0-.58-.47-1.04-1.04-1.04s-1.04,.47-1.04,1.04,.47,1.04,1.04,1.04,1.04-.47,1.04-1.04Z"/>
      <path class="cls-1" d="M30.21,14.57c0-.58-.47-1.05-1.05-1.05s-1.05,.47-1.05,1.05,.47,1.05,1.05,1.05,1.05-.47,1.05-1.05Z"/>
      <path class="cls-1" d="M32.59,13.81c0-.6-.48-1.08-1.08-1.08s-1.08,.48-1.08,1.08,.48,1.08,1.08,1.08,1.08-.48,1.08-1.08Z"/>
      <path class="cls-1" d="M35.02,13.27c0-.6-.49-1.09-1.09-1.09s-1.09,.49-1.09,1.09,.49,1.09,1.09,1.09,1.09-.49,1.09-1.09Z"/>
      <polygon class="cls-1" points="65.81 38.49 65.79 38.51 65.81 38.53 65.82 38.51 65.81 38.49"/>
      <polygon class="cls-1" points="65.7 40.93 65.64 40.98 65.7 41.04 65.75 40.98 65.7 40.93"/>
      <rect class="cls-2" x="65.3" y="43.37" width=".13" height=".13" transform="translate(-11.54 59.06) rotate(-45.09)"/>
      <rect class="cls-2" x="64.71" y="45.74" width=".22" height=".22" transform="translate(-13.44 59.26) rotate(-45)"/>
      <path class="cls-1" d="M64.05,48.4c.11,0,.2-.09,.2-.2s-.09-.2-.2-.2-.2,.09-.2,.2,.09,.2,.2,.2Z"/>
      <path class="cls-1" d="M63.08,50.25c-.13,0-.23,.1-.23,.23s.1,.23,.23,.23,.23-.1,.23-.23-.1-.23-.23-.23Z"/>
      <path class="cls-1" d="M61.9,52.92c.14,0,.26-.12,.26-.26s-.12-.26-.26-.26-.26,.12-.26,.26,.12,.26,.26,.26Z"/>
      <path class="cls-1" d="M60.26,54.72c0,.15,.12,.28,.28,.28s.28-.12,.28-.28-.12-.28-.28-.28-.28,.12-.28,.28Z"/>
      <path class="cls-1" d="M59,56.34c-.17,0-.32,.14-.32,.32s.14,.32,.32,.32,.32-.14,.32-.32-.14-.32-.32-.32Z"/>
      <path class="cls-1" d="M56.94,58.44c0,.19,.16,.35,.35,.35s.35-.16,.35-.35-.16-.35-.35-.35-.35,.16-.35,.35Z"/>
      <path class="cls-1" d="M55.43,60.43c.2,0,.37-.16,.37-.37s-.16-.37-.37-.37-.37,.16-.37,.37,.16,.37,.37,.37Z"/>
      <path class="cls-1" d="M53.42,61.92c.22,0,.39-.18,.39-.39s-.18-.39-.39-.39-.39,.18-.39,.39,.18,.39,.39,.39Z"/>
      <path class="cls-1" d="M51.3,63.2c.23,0,.41-.18,.41-.41s-.18-.41-.41-.41-.41,.18-.41,.41,.18,.41,.41,.41Z"/>
      <path class="cls-1" d="M49.07,64.3c.24,0,.43-.19,.43-.43s-.19-.43-.43-.43-.43,.19-.43,.43,.19,.43,.43,.43Z"/>
      <path class="cls-1" d="M46.75,65.18c.24,0,.44-.2,.44-.44s-.2-.44-.44-.44-.44,.2-.44,.44,.2,.44,.44,.44Z"/>
      <path class="cls-1" d="M44.37,65.84c.25,0,.45-.2,.45-.45s-.2-.45-.45-.45-.45,.2-.45,.45,.2,.45,.45,.45Z"/>
      <path class="cls-1" d="M41.94,66.29c.25,0,.45-.2,.45-.45s-.2-.45-.45-.45-.45,.2-.45,.45,.2,.45,.45,.45Z"/>
      <path class="cls-1" d="M39.47,66.51c.25,0,.46-.2,.46-.46s-.21-.46-.46-.46-.46,.2-.46,.46,.21,.46,.46,.46Z"/>
      <path class="cls-1" d="M37,66.52c.26,0,.46-.21,.46-.46s-.21-.46-.46-.46-.46,.21-.46,.46,.21,.46,.46,.46Z"/>
      <path class="cls-1" d="M34.53,66.3c.26,0,.46-.21,.46-.46s-.21-.46-.46-.46-.46,.21-.46,.46,.21,.46,.46,.46Z"/>
      <path class="cls-1" d="M32.1,65.86c.26,0,.47-.21,.47-.47s-.21-.47-.47-.47-.47,.21-.47,.47,.21,.47,.47,.47Z"/>
      <path class="cls-1" d="M29.71,65.23c.27,0,.49-.22,.49-.49s-.22-.49-.49-.49-.49,.22-.49,.49,.22,.49,.49,.49Z"/>
      <path class="cls-1" d="M27.4,64.38c.29,0,.52-.23,.52-.52s-.23-.52-.52-.52-.52,.23-.52,.52,.23,.52,.52,.52Z"/>
      <path class="cls-1" d="M25.17,63.35c.31,0,.56-.25,.56-.56s-.25-.56-.56-.56-.56,.25-.56,.56,.25,.56,.56,.56Z"/>
      <path class="cls-1" d="M23.05,62.11c.32,0,.58-.26,.58-.58s-.26-.58-.58-.58-.59,.26-.59,.58,.26,.58,.59,.58Z"/>
      <path class="cls-1" d="M21.04,60.68c.33,0,.61-.27,.61-.61s-.27-.61-.61-.61-.61,.27-.61,.61,.27,.61,.61,.61Z"/>
      <path class="cls-1" d="M19.18,59.09c.36,0,.65-.29,.65-.65s-.29-.65-.65-.65-.65,.29-.65,.65,.29,.65,.65,.65Z"/>
      <path class="cls-1" d="M17.47,57.33c.37,0,.68-.3,.68-.68s-.3-.68-.68-.68-.68,.3-.68,.68,.3,.68,.68,.68Z"/>
      <path class="cls-1" d="M15.93,54.01c-.39,0-.71,.32-.71,.71s.32,.71,.71,.71,.71-.32,.71-.71-.32-.71-.71-.71Z"/>
      <path class="cls-1" d="M15.3,52.65c0-.41-.33-.74-.74-.74s-.74,.33-.74,.74,.33,.74,.74,.74,.74-.33,.74-.74Z"/>
      <path class="cls-1" d="M13.39,51.25c.43,0,.77-.35,.77-.77s-.34-.77-.77-.77-.77,.34-.77,.77,.34,.77,.77,.77Z"/>
      <path class="cls-1" d="M12.42,48.98c.43,0,.78-.35,.78-.78s-.35-.77-.78-.77-.77,.35-.77,.77,.35,.78,.77,.78Z"/>
      <path class="cls-1" d="M11.66,46.65c.44,0,.8-.36,.8-.8s-.36-.8-.8-.8-.8,.36-.8,.8,.36,.8,.8,.8Z"/>
      <path class="cls-1" d="M11.93,43.43c0-.45-.37-.83-.83-.83s-.82,.37-.82,.83,.37,.82,.82,.82,.83-.37,.83-.82Z"/>
      <path class="cls-1" d="M10.77,41.81c.46,0,.83-.37,.83-.83s-.37-.83-.83-.83-.83,.37-.83,.83,.37,.83,.83,.83Z"/>
      <path class="cls-1" d="M11.5,38.51c0-.46-.37-.84-.83-.84s-.84,.37-.84,.84,.37,.83,.84,.83,.83-.37,.83-.83Z"/>
      <path class="cls-1" d="M10.77,35.2c-.46,0-.84,.38-.84,.84s.38,.84,.84,.84,.84-.38,.84-.84-.38-.84-.84-.84Z"/>
      <path class="cls-1" d="M11.96,33.59c0-.47-.38-.85-.85-.85s-.85,.38-.85,.85,.38,.85,.85,.85,.85-.38,.85-.85Z"/>
      <path class="cls-1" d="M11.66,32.03c.47,0,.86-.38,.86-.86s-.38-.86-.86-.86-.86,.38-.86,.86,.38,.86,.86,.86Z"/>
      <path class="cls-1" d="M11.55,28.82c0,.48,.39,.87,.87,.87s.87-.39,.87-.87-.39-.87-.87-.87-.87,.39-.87,.87Z"/>
      <path class="cls-1" d="M12.51,26.55c0,.49,.39,.88,.88,.88s.88-.39,.88-.88-.39-.88-.88-.88-.88,.39-.88,.88Z"/>
      <path class="cls-1" d="M13.65,24.37c0,.5,.41,.91,.91,.91s.91-.41,.91-.91-.41-.91-.91-.91-.91,.41-.91,.91Z"/>
      <path class="cls-1" d="M15,22.3c0,.51,.42,.93,.93,.93s.93-.42,.93-.93-.42-.93-.93-.93-.93,.42-.93,.93Z"/>
      <path class="cls-1" d="M17.47,21.33c.53,0,.96-.43,.96-.96s-.43-.96-.96-.96-.95,.43-.95,.96,.43,.96,.95,.96Z"/>
      <circle class="cls-2" cx="19.18" cy="18.58" r=".97"/>
      <path class="cls-1" d="M21.04,15.95c-.56,0-1,.45-1,1s.45,1.01,1,1.01,1.01-.45,1.01-1.01-.45-1-1.01-1Z"/>
      <path class="cls-1" d="M23.05,14.49c-.56,0-1.02,.45-1.02,1.02s.45,1.02,1.02,1.02,1.02-.45,1.02-1.02-.45-1.02-1.02-1.02Z"/>
      <path class="cls-1" d="M26.2,14.23c0-.57-.46-1.03-1.03-1.03s-1.03,.46-1.03,1.03,.46,1.03,1.03,1.03,1.03-.46,1.03-1.03Z"/>
      <path class="cls-1" d="M28.45,13.16c0-.58-.47-1.05-1.05-1.05s-1.05,.47-1.05,1.05,.47,1.05,1.05,1.05,1.05-.47,1.05-1.05Z"/>
      <path class="cls-1" d="M29.71,11.22c-.59,0-1.07,.48-1.07,1.07s.48,1.07,1.07,1.07,1.07-.48,1.07-1.07-.48-1.07-1.07-1.07Z"/>
      <path class="cls-1" d="M32.1,10.54c-.6,0-1.09,.49-1.09,1.09s.49,1.09,1.09,1.09,1.09-.49,1.09-1.09-.49-1.09-1.09-1.09Z"/>
      <path class="cls-1" d="M60.54,23.46c.64,0,1.15-.52,1.15-1.15s-.52-1.15-1.15-1.15-1.15,.52-1.15,1.15,.52,1.15,1.15,1.15Z"/>
      <polygon class="cls-1" points="67.78 38.5 67.77 38.51 67.78 38.52 67.79 38.51 67.78 38.5"/>
      <polygon class="cls-1" points="67.67 40.94 67.63 40.98 67.67 41.03 67.72 40.98 67.67 40.94"/>
      <polygon class="cls-1" points="67.46 43.44 67.36 43.35 67.27 43.44 67.36 43.53 67.46 43.44"/>
      <polygon class="cls-1" points="66.98 45.86 66.85 45.72 66.71 45.86 66.85 45.99 66.98 45.86"/>
      <path class="cls-1" d="M66.32,48.23c0-.1-.09-.19-.19-.19s-.19,.09-.19,.19,.08,.19,.19,.19,.19-.09,.19-.19Z"/>
      <path class="cls-1" d="M65.03,50.53c0,.11,.08,.19,.19,.19s.19-.09,.19-.19-.09-.19-.19-.19-.19,.09-.19,.19Z"/>
      <path class="cls-1" d="M64.37,52.74c0-.14-.11-.25-.25-.25s-.25,.11-.25,.25,.11,.24,.25,.24,.25-.11,.25-.24Z"/>
      <path class="cls-1" d="M62.84,55.15c.16,0,.29-.13,.29-.29s-.13-.29-.29-.29-.29,.13-.29,.29,.13,.29,.29,.29Z"/>
      <path class="cls-1" d="M61.39,56.57c-.16,0-.3,.13-.3,.29s.13,.3,.3,.3,.29-.13,.29-.3-.13-.29-.29-.29Z"/>
      <path class="cls-1" d="M59.43,58.74c0,.19,.15,.34,.34,.34s.34-.15,.34-.34-.15-.34-.34-.34-.34,.15-.34,.34Z"/>
      <path class="cls-1" d="M58,60.12c-.19,0-.35,.16-.35,.35s.16,.35,.35,.35,.35-.16,.35-.35-.16-.35-.35-.35Z"/>
      <circle class="cls-2" cx="56.1" cy="62.04" r=".38"/>
      <path class="cls-1" d="M54.06,63.86c.22,0,.4-.18,.4-.4s-.18-.4-.4-.4-.4,.18-.4,.4,.18,.4,.4,.4Z"/>
      <path class="cls-1" d="M51.92,65.11c.23,0,.42-.19,.42-.42s-.19-.42-.42-.42-.42,.19-.42,.42,.19,.42,.42,.42Z"/>
      <path class="cls-1" d="M49.68,66.18c.24,0,.43-.19,.43-.43s-.19-.43-.43-.43-.43,.19-.43,.43,.19,.43,.43,.43Z"/>
      <path class="cls-1" d="M47.36,67.04c.24,0,.44-.2,.44-.44s-.2-.44-.44-.44-.44,.19-.44,.44,.2,.44,.44,.44Z"/>
      <path class="cls-1" d="M44.98,67.72c.25,0,.45-.2,.45-.45s-.2-.45-.45-.45-.45,.2-.45,.45,.2,.45,.45,.45Z"/>
      <path class="cls-1" d="M42.55,68.19c.25,0,.45-.2,.45-.45s-.2-.45-.45-.45-.45,.2-.45,.45,.2,.45,.45,.45Z"/>
      <path class="cls-1" d="M40.09,68.45c.25,0,.46-.2,.46-.46s-.21-.46-.46-.46-.46,.21-.46,.46,.21,.46,.46,.46Z"/>
      <path class="cls-1" d="M37.62,68.51c.25,0,.46-.21,.46-.46s-.2-.46-.46-.46-.46,.21-.46,.46,.2,.46,.46,.46Z"/>
      <path class="cls-1" d="M35.15,68.36c.26,0,.46-.21,.46-.46s-.21-.46-.46-.46-.46,.21-.46,.46,.21,.46,.46,.46Z"/>
      <path class="cls-1" d="M32.7,68c.26,0,.47-.21,.47-.47s-.21-.47-.47-.47-.47,.21-.47,.47,.21,.47,.47,.47Z"/>
      <path class="cls-1" d="M30.29,67.45c.27,0,.48-.21,.48-.48s-.21-.48-.48-.48-.48,.22-.48,.48,.21,.48,.48,.48Z"/>
      <path class="cls-1" d="M27.94,66.7c.27,0,.5-.22,.5-.5s-.22-.5-.5-.5-.5,.22-.5,.5,.22,.5,.5,.5Z"/>
      <path class="cls-1" d="M25.66,65.76c.28,0,.51-.23,.51-.51s-.23-.51-.51-.51-.51,.23-.51,.51,.23,.51,.51,.51Z"/>
      <path class="cls-1" d="M23.46,64.68c.32,0,.58-.26,.58-.58s-.26-.58-.58-.58-.58,.26-.58,.58,.26,.58,.58,.58Z"/>
      <path class="cls-1" d="M21.37,63.38c.33,0,.61-.27,.61-.61s-.27-.61-.61-.61-.61,.27-.61,.61,.27,.61,.61,.61Z"/>
      <path class="cls-1" d="M19.4,61.89c.34,0,.62-.28,.62-.62s-.28-.62-.62-.62-.62,.28-.62,.62,.28,.62,.62,.62Z"/>
      <path class="cls-1" d="M17.57,60.26c.35,0,.64-.29,.64-.64s-.29-.64-.64-.64-.64,.29-.64,.64,.29,.64,.64,.64Z"/>
      <path class="cls-1" d="M15.87,57.16c-.36,0-.66,.29-.66,.65s.29,.66,.66,.66,.66-.29,.66-.66-.29-.65-.66-.65Z"/>
      <path class="cls-1" d="M14.33,56.58c.39,0,.7-.32,.7-.71s-.32-.7-.7-.7-.7,.32-.7,.7,.31,.71,.7,.71Z"/>
      <path class="cls-1" d="M13.69,53.81c0-.4-.32-.72-.72-.72s-.72,.32-.72,.72,.32,.72,.72,.72,.72-.32,.72-.72Z"/>
      <path class="cls-1" d="M11.77,52.39c.41,0,.74-.33,.74-.74s-.33-.74-.74-.74-.74,.33-.74,.74,.33,.74,.74,.74Z"/>
      <path class="cls-1" d="M11.53,49.39c0-.42-.34-.77-.77-.77s-.77,.34-.77,.77,.34,.77,.77,.77,.77-.34,.77-.77Z"/>
      <path class="cls-1" d="M9.95,47.85c.44,0,.8-.36,.8-.8s-.36-.8-.8-.8-.8,.36-.8,.8,.36,.8,.8,.8Z"/>
      <path class="cls-1" d="M10.15,44.65c0-.45-.36-.81-.81-.81s-.81,.36-.81,.81,.37,.81,.81,.81,.81-.37,.81-.81Z"/>
      <path class="cls-1" d="M8.93,43.04c.46,0,.82-.37,.82-.83s-.37-.82-.82-.82-.82,.37-.82,.82,.37,.83,.82,.83Z"/>
      <path class="cls-1" d="M8.72,40.58c.46,0,.83-.37,.83-.83s-.37-.83-.83-.83-.83,.37-.83,.83,.37,.83,.83,.83Z"/>
      <path class="cls-1" d="M8.72,38.12c.46,0,.84-.38,.84-.84s-.38-.84-.84-.84-.84,.38-.84,.84,.38,.84,.84,.84Z"/>
      <path class="cls-1" d="M8.93,33.97c-.46,0-.84,.38-.84,.84s.38,.84,.84,.84,.84-.38,.84-.84-.38-.84-.84-.84Z"/>
      <path class="cls-1" d="M10.18,32.37c0-.47-.38-.85-.85-.85s-.85,.38-.85,.85,.38,.85,.85,.85,.85-.38,.85-.85Z"/>
      <path class="cls-1" d="M9.1,29.97c0,.47,.38,.86,.86,.86s.86-.38,.86-.86-.38-.86-.86-.86-.86,.38-.86,.86Z"/>
      <circle class="cls-2" cx="10.77" cy="27.64" r=".87"/>
      <path class="cls-1" d="M10.87,25.38c0,.5,.4,.9,.9,.9s.9-.4,.9-.9-.4-.9-.9-.9-.9,.4-.9,.9Z"/>
      <path class="cls-1" d="M12.05,23.21c0,.51,.41,.92,.92,.92s.92-.41,.92-.92-.41-.92-.92-.92-.92,.41-.92,.92Z"/>
      <path class="cls-1" d="M13.39,21.15c0,.52,.42,.94,.94,.94s.94-.42,.94-.94-.42-.94-.94-.94-.94,.42-.94,.94Z"/>
      <path class="cls-1" d="M15.87,18.25c-.53,0-.96,.43-.96,.96s.43,.95,.96,.95,.96-.43,.96-.95-.43-.96-.96-.96Z"/>
      <path class="cls-1" d="M17.57,16.44c-.53,0-.96,.43-.96,.96s.43,.96,.96,.96,.96-.43,.96-.96-.43-.96-.96-.96Z"/>
      <path class="cls-1" d="M19.4,14.75c-.55,0-1,.45-1,1s.45,1,1,1,1-.45,1-1-.45-1-1-1Z"/>
      <path class="cls-1" d="M20.37,14.25c0,.56,.45,1,1,1s1-.45,1-1-.45-1.01-1-1.01-1,.45-1,1.01Z"/>
      <path class="cls-1" d="M22.44,12.93c0,.57,.46,1.03,1.03,1.03s1.03-.46,1.03-1.03-.46-1.03-1.03-1.03-1.03,.46-1.03,1.03Z"/>
      <path class="cls-1" d="M24.61,11.78c0,.58,.47,1.05,1.05,1.05s1.05-.47,1.05-1.05-.47-1.05-1.05-1.05-1.05,.47-1.05,1.05Z"/>
      <path class="cls-1" d="M26.87,10.82c0,.59,.48,1.07,1.07,1.07s1.07-.48,1.07-1.07-.48-1.07-1.07-1.07-1.07,.48-1.07,1.07Z"/>
      <path class="cls-1" d="M29.21,10.06c0,.59,.48,1.08,1.08,1.08s1.08-.48,1.08-1.08-.48-1.08-1.08-1.08-1.08,.48-1.08,1.08Z"/>
      <path class="cls-1" d="M33.79,9.49c0-.6-.49-1.09-1.09-1.09s-1.09,.49-1.09,1.09,.49,1.09,1.09,1.09,1.09-.49,1.09-1.09Z"/>
      <rect class="cls-2" x="69.74" y="38.51" width="0" height="0" transform="translate(-3.4 70.09) rotate(-52.25)"/>
      <polygon class="cls-1" points="69.7 40.98 69.65 40.93 69.59 40.98 69.65 41.04 69.7 40.98"/>
      <polygon class="cls-1" points="69.43 43.44 69.36 43.37 69.29 43.44 69.36 43.51 69.43 43.44"/>
      <rect class="cls-2" x="68.78" y="45.77" width=".2" height=".2" transform="translate(-12.26 62.14) rotate(-45)"/>
      <path class="cls-1" d="M68.37,48.25c0-.09-.08-.17-.17-.17s-.17,.08-.17,.17,.08,.17,.17,.17,.17-.08,.17-.17Z"/>
      <path class="cls-1" d="M67.17,50.57c0,.1,.08,.18,.18,.18s.18-.08,.18-.18-.08-.18-.18-.18-.18,.08-.18,.18Z"/>
      <path class="cls-1" d="M66.31,52.59c-.12,0-.22,.1-.22,.22s.1,.22,.22,.22,.22-.1,.22-.22-.1-.22-.22-.22Z"/>
      <path class="cls-1" d="M65.36,54.98c0-.14-.11-.26-.26-.26s-.26,.12-.26,.26,.12,.26,.26,.26,.26-.12,.26-.26Z"/>
      <path class="cls-1" d="M63.45,57.03c0,.15,.12,.28,.28,.28s.28-.12,.28-.28-.12-.28-.28-.28-.28,.12-.28,.28Z"/>
      <path class="cls-1" d="M61.88,58.98c0,.17,.14,.32,.32,.32s.32-.14,.32-.32-.14-.32-.32-.32-.32,.14-.32,.32Z"/>
      <path class="cls-1" d="M60.52,61.14c.19,0,.34-.15,.34-.34s-.15-.34-.34-.34-.34,.15-.34,.34,.15,.34,.34,.34Z"/>
      <path class="cls-1" d="M58.7,62.83c.2,0,.36-.16,.36-.36s-.16-.36-.36-.36-.36,.16-.36,.36,.16,.36,.36,.36Z"/>
      <path class="cls-1" d="M56.76,63.62c-.21,0-.39,.17-.39,.39s.17,.39,.39,.39,.39-.17,.39-.39-.17-.39-.39-.39Z"/>
      <path class="cls-1" d="M54.7,65.78c.22,0,.4-.18,.4-.4s-.18-.4-.4-.4-.4,.18-.4,.4,.18,.4,.4,.4Z"/>
      <path class="cls-1" d="M52.54,67.01c.23,0,.42-.19,.42-.42s-.19-.42-.42-.42-.42,.19-.42,.42,.19,.42,.42,.42Z"/>
      <path class="cls-1" d="M50.72,67.62c0-.24-.19-.43-.43-.43s-.43,.19-.43,.43,.19,.43,.43,.43,.43-.19,.43-.43Z"/>
      <path class="cls-1" d="M48.41,68.48c0-.24-.2-.44-.44-.44s-.44,.2-.44,.44,.19,.44,.44,.44,.44-.2,.44-.44Z"/>
      <path class="cls-1" d="M46.03,69.15c0-.24-.2-.44-.44-.44s-.44,.2-.44,.44,.2,.44,.44,.44,.44-.2,.44-.44Z"/>
      <path class="cls-1" d="M43.62,69.63c0-.25-.2-.46-.46-.46s-.46,.21-.46,.46,.2,.46,.46,.46,.46-.21,.46-.46Z"/>
      <path class="cls-1" d="M41.17,69.93c0-.25-.2-.46-.46-.46s-.46,.2-.46,.46,.21,.46,.46,.46,.46-.21,.46-.46Z"/>
      <path class="cls-1" d="M38.69,70.02c0-.25-.21-.46-.46-.46s-.46,.21-.46,.46,.21,.46,.46,.46,.46-.21,.46-.46Z"/>
      <path class="cls-1" d="M36.22,69.93c0-.25-.21-.46-.46-.46s-.46,.2-.46,.46,.21,.46,.46,.46,.46-.21,.46-.46Z"/>
      <path class="cls-1" d="M33.77,69.63c0-.26-.21-.47-.47-.47s-.47,.21-.47,.47,.21,.47,.47,.47,.47-.21,.47-.47Z"/>
      <path class="cls-1" d="M31.36,69.15c0-.26-.22-.48-.48-.48s-.48,.22-.48,.48,.22,.48,.48,.48,.48-.22,.48-.48Z"/>
      <path class="cls-1" d="M28.99,68.48c0-.28-.22-.5-.5-.5s-.5,.22-.5,.5,.22,.5,.5,.5,.5-.22,.5-.5Z"/>
      <path class="cls-1" d="M26.69,67.62c0-.28-.23-.51-.51-.51s-.51,.23-.51,.51,.23,.51,.51,.51,.51-.23,.51-.51Z"/>
      <path class="cls-1" d="M23.93,67.12c.29,0,.53-.24,.53-.53s-.24-.53-.53-.53-.53,.24-.53,.53,.24,.53,.53,.53Z"/>
      <path class="cls-1" d="M21.77,65.93c.3,0,.55-.24,.55-.55s-.24-.55-.55-.55-.55,.25-.55,.55,.24,.55,.55,.55Z"/>
      <path class="cls-1" d="M19.71,64.59c.32,0,.59-.26,.59-.58s-.26-.58-.59-.58-.58,.26-.58,.58,.26,.58,.58,.58Z"/>
      <path class="cls-1" d="M17.77,63.09c.34,0,.62-.28,.62-.62s-.28-.62-.62-.62-.62,.28-.62,.62,.28,.62,.62,.62Z"/>
      <path class="cls-1" d="M16.59,60.79c0-.35-.29-.64-.64-.64s-.64,.29-.64,.64,.29,.64,.64,.64,.64-.29,.64-.64Z"/>
      <path class="cls-1" d="M14.27,59.66c.38,0,.68-.31,.68-.68s-.31-.68-.68-.68-.68,.31-.68,.68,.31,.68,.68,.68Z"/>
      <path class="cls-1" d="M12.03,57.03c0,.4,.32,.71,.72,.71s.71-.32,.71-.71-.32-.72-.71-.72-.72,.32-.72,.72Z"/>
      <path class="cls-1" d="M11.37,54.24c-.41,0-.74,.33-.74,.74s.33,.74,.74,.74,.74-.33,.74-.74-.33-.74-.74-.74Z"/>
      <path class="cls-1" d="M10.16,53.57c.41,0,.75-.34,.75-.75s-.34-.75-.75-.75-.75,.33-.75,.75,.34,.75,.75,.75Z"/>
      <path class="cls-1" d="M9.9,50.57c0-.43-.35-.78-.77-.78s-.78,.35-.78,.78,.35,.77,.78,.77,.77-.35,.77-.77Z"/>
      <circle class="cls-2" cx="8.27" cy="48.25" r=".79"/>
      <path class="cls-1" d="M8.4,45.87c0-.45-.36-.81-.81-.81s-.81,.36-.81,.81,.36,.81,.81,.81,.81-.36,.81-.81Z"/>
      <path class="cls-1" d="M7.11,44.27c.46,0,.83-.37,.83-.82s-.37-.82-.83-.82-.82,.37-.82,.82,.37,.82,.82,.82Z"/>
      <path class="cls-1" d="M6.82,41.82c.46,0,.84-.37,.84-.84s-.37-.83-.84-.83-.84,.37-.84,.83,.37,.84,.84,.84Z"/>
      <path class="cls-1" d="M6.72,39.35c.46,0,.84-.37,.84-.83s-.37-.84-.84-.84-.84,.37-.84,.84,.37,.83,.84,.83Z"/>
      <path class="cls-1" d="M5.99,36.04c0,.46,.37,.84,.84,.84s.84-.37,.84-.84-.37-.84-.84-.84-.84,.37-.84,.84Z"/>
      <path class="cls-1" d="M6.26,33.58c0,.47,.38,.85,.85,.85s.85-.38,.85-.85-.38-.85-.85-.85-.85,.38-.85,.85Z"/>
      <path class="cls-1" d="M6.73,31.16c0,.48,.39,.86,.86,.86s.86-.39,.86-.86-.39-.86-.86-.86-.86,.39-.86,.86Z"/>
      <path class="cls-1" d="M7.4,28.77c0,.48,.39,.86,.86,.86s.86-.39,.86-.86-.39-.86-.86-.86-.86,.39-.86,.86Z"/>
      <path class="cls-1" d="M8.25,26.45c0,.48,.39,.87,.87,.87s.87-.39,.87-.87-.39-.87-.87-.87-.87,.39-.87,.87Z"/>
      <path class="cls-1" d="M9.27,24.21c0,.49,.4,.89,.89,.89s.89-.4,.89-.89-.4-.89-.89-.89-.89,.4-.89,.89Z"/>
      <path class="cls-1" d="M10.47,22.05c0,.5,.4,.9,.9,.9s.9-.4,.9-.9-.4-.9-.9-.9-.9,.4-.9,.9Z"/>
      <path class="cls-1" d="M11.81,19.99c0,.52,.42,.93,.93,.93s.93-.42,.93-.93-.42-.93-.93-.93-.93,.42-.93,.93Z"/>
      <path class="cls-1" d="M14.27,17.1c-.52,0-.95,.43-.95,.95s.42,.95,.95,.95,.95-.42,.95-.95-.43-.95-.95-.95Z"/>
      <path class="cls-1" d="M15.95,15.27c-.53,0-.96,.43-.96,.96s.43,.96,.96,.96,.96-.43,.96-.96-.43-.96-.96-.96Z"/>
      <path class="cls-1" d="M17.77,13.55c-.55,0-1,.45-1,1s.45,1,1,1,1-.45,1-1-.45-1-1-1Z"/>
      <path class="cls-1" d="M19.71,12.01c-.55,0-1.01,.45-1.01,1s.45,1,1.01,1,1-.45,1-1-.45-1-1-1Z"/>
      <path class="cls-1" d="M21.77,10.62c-.57,0-1.03,.46-1.03,1.03s.46,1.03,1.03,1.03,1.03-.46,1.03-1.03-.46-1.03-1.03-1.03Z"/>
      <path class="cls-1" d="M23.93,9.39c-.58,0-1.04,.47-1.04,1.04s.47,1.04,1.04,1.04,1.04-.47,1.04-1.04-.47-1.04-1.04-1.04Z"/>
      <path class="cls-1" d="M26.18,8.34c-.59,0-1.06,.47-1.06,1.06s.47,1.06,1.06,1.06,1.06-.48,1.06-1.06-.47-1.06-1.06-1.06Z"/>
      <path class="cls-1" d="M28.5,7.47c-.59,0-1.07,.48-1.07,1.07s.48,1.07,1.07,1.07,1.07-.48,1.07-1.07-.48-1.07-1.07-1.07Z"/>
      <path class="cls-1" d="M31.96,7.87c0-.6-.48-1.08-1.08-1.08s-1.08,.48-1.08,1.08,.48,1.08,1.08,1.08,1.08-.48,1.08-1.08Z"/>
      <path class="cls-1" d="M34.4,7.39c0-.6-.49-1.09-1.09-1.09s-1.09,.49-1.09,1.09,.49,1.09,1.09,1.09,1.09-.49,1.09-1.09Z"/>
      <path class="cls-1" d="M62.57,19.99c0,.64,.52,1.16,1.16,1.16s1.16-.52,1.16-1.16-.52-1.16-1.16-1.16-1.16,.52-1.16,1.16Z"/>
      <polygon class="cls-1" points="71.72 38.49 71.7 38.51 71.72 38.53 71.73 38.51 71.72 38.49"/>
      <polygon class="cls-1" points="71.62 40.94 71.58 40.98 71.62 41.03 71.67 40.98 71.62 40.94"/>
      <polygon class="cls-1" points="71.43 43.44 71.35 43.37 71.27 43.44 71.35 43.52 71.43 43.44"/>
      <rect class="cls-2" x="70.82" y="45.8" width=".15" height=".15" transform="translate(-11.67 63.61) rotate(-45.03)"/>
      <path class="cls-1" d="M70.43,48.27c0-.09-.08-.17-.17-.17s-.17,.08-.17,.17,.07,.17,.17,.17,.17-.08,.17-.17Z"/>
      <path class="cls-1" d="M69.45,50.8c.1,0,.19-.09,.19-.19s-.09-.19-.19-.19-.19,.09-.19,.19,.09,.19,.19,.19Z"/>
      <path class="cls-1" d="M68.48,52.65c-.13,0-.23,.1-.23,.23s.1,.23,.23,.23,.23-.1,.23-.23-.1-.23-.23-.23Z"/>
      <path class="cls-1" d="M67.57,55.07c0-.13-.11-.24-.24-.24s-.24,.11-.24,.24,.11,.24,.24,.24,.24-.11,.24-.24Z"/>
      <path class="cls-1" d="M66.31,57.18c0-.16-.13-.28-.28-.28s-.28,.13-.28,.28,.13,.28,.28,.28,.28-.13,.28-.28Z"/>
      <path class="cls-1" d="M64.58,58.87c-.17,0-.31,.14-.31,.31s.14,.31,.31,.31,.31-.14,.31-.31-.14-.31-.31-.31Z"/>
      <path class="cls-1" d="M62.98,60.75c-.17,0-.32,.14-.32,.32s.14,.32,.32,.32,.32-.14,.32-.32-.14-.32-.32-.32Z"/>
      <path class="cls-1" d="M61.24,62.49c-.19,0-.34,.15-.34,.34s.15,.34,.34,.34,.34-.15,.34-.34-.15-.34-.34-.34Z"/>
      <path class="cls-1" d="M59.38,64.11c-.2,0-.36,.16-.36,.36s.16,.36,.36,.36,.36-.16,.36-.36-.16-.36-.36-.36Z"/>
      <path class="cls-1" d="M57.78,65.96c0-.21-.17-.37-.37-.37s-.37,.17-.37,.37,.17,.37,.37,.37,.37-.17,.37-.37Z"/>
      <path class="cls-1" d="M55.74,67.3c0-.22-.18-.41-.41-.41s-.4,.18-.4,.41,.18,.4,.4,.4,.41-.18,.41-.4Z"/>
      <path class="cls-1" d="M53.57,68.48c0-.23-.19-.42-.41-.42s-.41,.19-.41,.42,.19,.42,.41,.42,.41-.19,.41-.42Z"/>
      <path class="cls-1" d="M51.34,69.5c0-.24-.19-.43-.43-.43s-.43,.19-.43,.43,.19,.43,.43,.43,.43-.19,.43-.43Z"/>
      <path class="cls-1" d="M49.02,70.35c0-.24-.19-.44-.44-.44s-.44,.2-.44,.44,.2,.44,.44,.44,.44-.2,.44-.44Z"/>
      <path class="cls-1" d="M46.64,71.03c0-.24-.2-.44-.44-.44s-.44,.2-.44,.44,.2,.44,.44,.44,.44-.2,.44-.44Z"/>
      <path class="cls-1" d="M44.23,71.53c0-.25-.2-.45-.45-.45s-.45,.2-.45,.45,.2,.45,.45,.45,.45-.2,.45-.45Z"/>
      <path class="cls-1" d="M41.78,71.85c0-.25-.2-.46-.46-.46s-.46,.21-.46,.46,.2,.46,.46,.46,.46-.2,.46-.46Z"/>
      <path class="cls-1" d="M39.31,71.99c0-.25-.21-.46-.46-.46s-.46,.2-.46,.46,.21,.46,.46,.46,.46-.21,.46-.46Z"/>
      <path class="cls-1" d="M36.84,71.94c0-.25-.21-.46-.46-.46s-.46,.21-.46,.46,.21,.46,.46,.46,.46-.21,.46-.46Z"/>
      <circle class="cls-2" cx="33.92" cy="71.71" r=".46"/>
      <circle class="cls-2" cx="31.48" cy="71.3" r=".47"/>
      <circle class="cls-2" cx="29.07" cy="70.71" r=".5"/>
      <path class="cls-1" d="M27.23,69.95c0-.28-.23-.51-.51-.51s-.51,.23-.51,.51,.23,.51,.51,.51,.51-.23,.51-.51Z"/>
      <path class="cls-1" d="M24.96,69.01c0-.29-.24-.53-.53-.53s-.53,.24-.53,.53,.24,.53,.53,.53,.53-.24,.53-.53Z"/>
      <path class="cls-1" d="M22.76,67.91c0-.3-.24-.55-.55-.55s-.55,.24-.55,.55,.24,.55,.55,.55,.55-.24,.55-.55Z"/>
      <path class="cls-1" d="M20.65,66.65c0-.31-.25-.57-.57-.57s-.57,.25-.57,.57,.25,.57,.57,.57,.57-.25,.57-.57Z"/>
      <path class="cls-1" d="M18.65,65.23c0-.33-.27-.6-.59-.6s-.6,.27-.6,.6,.27,.6,.6,.6,.59-.27,.59-.6Z"/>
      <path class="cls-1" d="M16.76,63.67c0-.34-.28-.62-.62-.62s-.62,.28-.62,.62,.28,.62,.62,.62,.62-.28,.62-.62Z"/>
      <path class="cls-1" d="M14.34,62.61c.36,0,.64-.29,.64-.64s-.29-.65-.64-.65-.64,.29-.64,.65,.29,.64,.64,.64Z"/>
      <path class="cls-1" d="M12.68,60.83c.38,0,.69-.31,.69-.69s-.31-.69-.69-.69-.69,.31-.69,.69,.31,.69,.69,.69Z"/>
      <path class="cls-1" d="M11.15,57.49c-.39,0-.7,.31-.7,.7s.32,.71,.7,.71,.7-.32,.7-.71-.32-.7-.7-.7Z"/>
      <path class="cls-1" d="M9.77,55.42c-.4,0-.72,.32-.72,.72s.32,.72,.72,.72,.72-.32,.72-.72-.32-.72-.72-.72Z"/>
      <path class="cls-1" d="M8.54,54.73c.41,0,.74-.33,.74-.74s-.33-.74-.74-.74-.74,.33-.74,.74,.33,.74,.74,.74Z"/>
      <path class="cls-1" d="M8.25,51.75c0-.42-.34-.76-.76-.76s-.77,.34-.77,.76,.34,.76,.77,.76,.76-.34,.76-.76Z"/>
      <path class="cls-1" d="M6.59,50.23c.43,0,.79-.35,.79-.79s-.35-.79-.79-.79-.79,.35-.79,.79,.35,.79,.79,.79Z"/>
      <path class="cls-1" d="M5.87,47.89c.45,0,.81-.36,.81-.81s-.36-.81-.81-.81-.81,.36-.81,.81,.36,.81,.81,.81Z"/>
      <path class="cls-1" d="M5.32,45.48c.45,0,.82-.37,.82-.82s-.37-.82-.82-.82-.82,.37-.82,.82,.37,.82,.82,.82Z"/>
      <path class="cls-1" d="M4.96,43.04c.46,0,.82-.37,.82-.82s-.37-.82-.82-.82-.83,.37-.83,.82,.37,.82,.83,.82Z"/>
      <path class="cls-1" d="M4.78,40.59c.46,0,.84-.38,.84-.84s-.37-.84-.84-.84-.84,.38-.84,.84,.37,.84,.84,.84Z"/>
      <path class="cls-1" d="M4.78,38.12c.46,0,.84-.38,.84-.84s-.38-.84-.84-.84-.84,.38-.84,.84,.38,.84,.84,.84Z"/>
      <path class="cls-1" d="M4.12,34.81c0,.47,.38,.84,.84,.84s.84-.38,.84-.84-.38-.84-.84-.84-.84,.38-.84,.84Z"/>
      <path class="cls-1" d="M4.48,32.36c0,.47,.38,.85,.85,.85s.85-.38,.85-.85-.38-.85-.85-.85-.85,.38-.85,.85Z"/>
      <path class="cls-1" d="M5.01,29.95c0,.48,.39,.86,.86,.86s.86-.39,.86-.86-.39-.86-.86-.86-.86,.39-.86,.86Z"/>
      <path class="cls-1" d="M5.72,27.58c0,.48,.39,.87,.87,.87s.87-.39,.87-.87-.39-.87-.87-.87-.87,.39-.87,.87Z"/>
      <path class="cls-1" d="M6.6,25.27c0,.49,.39,.88,.88,.88s.88-.39,.88-.88-.39-.88-.88-.88-.88,.39-.88,.88Z"/>
      <path class="cls-1" d="M7.64,23.04c0,.5,.4,.9,.9,.9s.9-.4,.9-.9-.4-.9-.9-.9-.9,.4-.9,.9Z"/>
      <path class="cls-1" d="M8.85,20.89c0,.51,.41,.92,.92,.92s.92-.41,.92-.92-.41-.92-.92-.92-.92,.41-.92,.92Z"/>
      <path class="cls-1" d="M10.21,18.83c0,.52,.42,.93,.93,.93s.93-.42,.93-.93-.42-.93-.93-.93-.93,.42-.93,.93Z"/>
      <path class="cls-1" d="M12.68,15.93c-.53,0-.96,.43-.96,.96s.43,.95,.96,.95,.96-.43,.96-.95-.43-.96-.96-.96Z"/>
      <circle class="cls-2" cx="14.34" cy="15.06" r=".97"/>
      <path class="cls-1" d="M16.14,12.36c-.55,0-.99,.44-.99,.99s.44,.99,.99,.99,.99-.45,.99-.99-.44-.99-.99-.99Z"/>
      <path class="cls-1" d="M18.06,10.78c-.56,0-1.01,.45-1.01,1.01s.45,1.01,1.01,1.01,1.01-.45,1.01-1.01-.45-1.01-1.01-1.01Z"/>
      <path class="cls-1" d="M19.06,10.38c0,.57,.46,1.03,1.03,1.03s1.03-.46,1.03-1.03-.46-1.03-1.03-1.03-1.03,.46-1.03,1.03Z"/>
      <path class="cls-1" d="M21.17,9.11c0,.58,.47,1.04,1.04,1.04s1.04-.47,1.04-1.04-.47-1.04-1.04-1.04-1.04,.47-1.04,1.04Z"/>
      <path class="cls-1" d="M23.37,8.01c0,.58,.47,1.05,1.05,1.05s1.05-.47,1.05-1.05-.47-1.05-1.05-1.05-1.05,.47-1.05,1.05Z"/>
      <path class="cls-1" d="M25.65,7.07c0,.59,.48,1.07,1.06,1.07s1.06-.48,1.06-1.07-.48-1.06-1.06-1.06-1.06,.48-1.06,1.06Z"/>
      <path class="cls-1" d="M28,6.31c0,.59,.48,1.07,1.07,1.07s1.07-.48,1.07-1.07-.48-1.07-1.07-1.07-1.07,.48-1.07,1.07Z"/>
      <path class="cls-1" d="M30.38,5.72c0,.6,.49,1.09,1.09,1.09s1.09-.49,1.09-1.09-.49-1.09-1.09-1.09-1.09,.49-1.09,1.09Z"/>
      <path class="cls-1" d="M64.58,18.99c.63,0,1.14-.51,1.14-1.14s-.51-1.14-1.14-1.14-1.14,.51-1.14,1.14,.51,1.14,1.14,1.14Z"/>
      <rect class="cls-2" x="73.68" y="38.51" width="0" height="0" transform="translate(-2.87 70.95) rotate(-50.56)"/>
      <polygon class="cls-1" points="73.6 40.96 73.57 40.99 73.6 41.01 73.63 40.99 73.6 40.96"/>
      <polygon class="cls-1" points="73.34 43.37 73.26 43.45 73.34 43.52 73.42 43.45 73.34 43.37"/>
      <polygon class="cls-1" points="72.91 45.76 72.79 45.88 72.91 46 73.03 45.88 72.91 45.76"/>
      <rect class="cls-2" x="72.2" y="48.17" width=".22" height=".22" transform="translate(-12.95 65.35) rotate(-45.05)"/>
      <path class="cls-1" d="M71.72,50.64c0-.09-.08-.17-.17-.17s-.17,.08-.17,.17,.08,.17,.17,.17,.17-.08,.17-.17Z"/>
      <path class="cls-1" d="M70.62,52.72c-.12,0-.21,.09-.21,.21s.1,.21,.21,.21,.21-.1,.21-.21-.09-.21-.21-.21Z"/>
      <path class="cls-1" d="M69.54,54.91c-.13,0-.24,.11-.24,.24s.11,.24,.24,.24,.24-.11,.24-.24-.11-.24-.24-.24Z"/>
      <path class="cls-1" d="M68.3,57.01c-.16,0-.29,.13-.29,.29s.13,.29,.29,.29,.29-.13,.29-.29-.13-.29-.29-.29Z"/>
      <path class="cls-1" d="M66.91,59.06c-.16,0-.29,.13-.29,.29s.13,.29,.29,.29,.29-.13,.29-.29-.13-.29-.29-.29Z"/>
      <path class="cls-1" d="M65.39,60.98c-.17,0-.32,.14-.32,.32s.14,.32,.32,.32,.32-.14,.32-.32-.14-.32-.32-.32Z"/>
      <path class="cls-1" d="M63.74,62.8c-.18,0-.33,.15-.33,.33s.15,.33,.33,.33,.33-.15,.33-.33-.15-.33-.33-.33Z"/>
      <path class="cls-1" d="M61.96,64.51c-.19,0-.35,.16-.35,.35s.16,.35,.35,.35,.35-.16,.35-.35-.16-.35-.35-.35Z"/>
      <path class="cls-1" d="M60.06,66.08c-.2,0-.37,.16-.37,.37s.16,.37,.37,.37,.37-.16,.37-.37-.16-.37-.37-.37Z"/>
      <path class="cls-1" d="M58.45,67.9c0-.21-.17-.39-.39-.39s-.39,.17-.39,.39,.17,.39,.39,.39,.39-.17,.39-.39Z"/>
      <path class="cls-1" d="M56.36,69.21c0-.22-.18-.4-.4-.4s-.4,.18-.4,.4,.18,.4,.4,.4,.4-.18,.4-.4Z"/>
      <path class="cls-1" d="M54.2,70.37c0-.23-.19-.42-.42-.42s-.42,.19-.42,.42,.19,.42,.42,.42,.42-.19,.42-.42Z"/>
      <path class="cls-1" d="M51.95,71.38c0-.24-.19-.43-.43-.43s-.43,.19-.43,.43,.19,.43,.43,.43,.43-.19,.43-.43Z"/>
      <path class="cls-1" d="M49.63,72.23c0-.24-.2-.44-.44-.44s-.44,.2-.44,.44,.2,.44,.44,.44,.44-.2,.44-.44Z"/>
      <path class="cls-1" d="M47.26,72.91c0-.25-.2-.45-.45-.45s-.45,.2-.45,.45,.2,.45,.45,.45,.45-.2,.45-.45Z"/>
      <path class="cls-1" d="M44.84,73.42c0-.25-.2-.45-.45-.45s-.45,.2-.45,.45,.2,.45,.45,.45,.45-.2,.45-.45Z"/>
      <path class="cls-1" d="M42.4,73.77c0-.25-.2-.46-.46-.46s-.46,.2-.46,.46,.2,.46,.46,.46,.46-.21,.46-.46Z"/>
      <path class="cls-1" d="M39.93,73.94c0-.25-.21-.46-.46-.46s-.46,.21-.46,.46,.2,.46,.46,.46,.46-.2,.46-.46Z"/>
      <path class="cls-1" d="M37.46,73.94c0-.25-.21-.46-.46-.46s-.46,.21-.46,.46,.21,.46,.46,.46,.46-.2,.46-.46Z"/>
      <path class="cls-1" d="M34.99,73.77c0-.26-.21-.46-.46-.46s-.46,.21-.46,.46,.21,.46,.46,.46,.46-.21,.46-.46Z"/>
      <path class="cls-1" d="M32.55,73.42c0-.26-.21-.47-.47-.47s-.47,.21-.47,.47,.21,.47,.47,.47,.47-.21,.47-.47Z"/>
      <path class="cls-1" d="M30.14,72.91c0-.26-.22-.48-.48-.48s-.48,.22-.48,.48,.22,.48,.48,.48,.48-.22,.48-.48Z"/>
      <path class="cls-1" d="M27.78,72.23c0-.28-.23-.5-.5-.5s-.5,.22-.5,.5,.22,.5,.5,.5,.5-.22,.5-.5Z"/>
      <path class="cls-1" d="M25.47,71.38c0-.28-.23-.51-.51-.51s-.51,.23-.51,.51,.23,.51,.51,.51,.51-.23,.51-.51Z"/>
      <path class="cls-1" d="M23.22,70.37c0-.29-.24-.53-.53-.53s-.53,.24-.53,.53,.24,.53,.53,.53,.53-.24,.53-.53Z"/>
      <path class="cls-1" d="M21.06,69.21c0-.3-.24-.55-.55-.55s-.55,.25-.55,.55,.25,.55,.55,.55,.55-.24,.55-.55Z"/>
      <path class="cls-1" d="M19,67.9c0-.32-.26-.58-.58-.58s-.58,.26-.58,.58,.26,.59,.58,.59,.58-.26,.58-.59Z"/>
      <path class="cls-1" d="M17.02,66.45c0-.34-.27-.61-.61-.61s-.61,.27-.61,.61,.27,.61,.61,.61,.61-.27,.61-.61Z"/>
      <path class="cls-1" d="M15.15,64.86c0-.35-.28-.63-.63-.63s-.63,.28-.63,.63,.28,.63,.63,.63,.63-.28,.63-.63Z"/>
      <path class="cls-1" d="M12.73,63.79c.36,0,.66-.29,.66-.65s-.29-.66-.66-.66-.66,.29-.66,.66,.29,.65,.66,.65Z"/>
      <path class="cls-1" d="M11.08,61.97c.37,0,.67-.3,.67-.67s-.3-.67-.67-.67-.67,.3-.67,.67,.3,.67,.67,.67Z"/>
      <path class="cls-1" d="M9.55,58.64c-.39,0-.7,.32-.7,.7s.31,.7,.7,.7,.7-.31,.7-.7-.32-.7-.7-.7Z"/>
      <path class="cls-1" d="M8.17,56.58c-.4,0-.72,.32-.72,.72s.32,.72,.72,.72,.72-.32,.72-.72-.32-.72-.72-.72Z"/>
      <path class="cls-1" d="M6.93,55.9c.41,0,.75-.34,.75-.75s-.33-.75-.75-.75-.75,.34-.75,.75,.33,.75,.75,.75Z"/>
      <path class="cls-1" d="M5.85,53.69c.42,0,.76-.34,.76-.76s-.34-.76-.76-.76-.76,.34-.76,.76,.34,.76,.76,.76Z"/>
      <path class="cls-1" d="M4.92,51.42c.43,0,.78-.35,.78-.78s-.35-.78-.78-.78-.78,.35-.78,.78,.35,.78,.78,.78Z"/>
      <path class="cls-1" d="M4.16,49.09c.44,0,.8-.36,.8-.8s-.36-.8-.8-.8-.8,.36-.8,.8,.36,.8,.8,.8Z"/>
      <path class="cls-1" d="M3.56,46.7c.45,0,.81-.36,.81-.81s-.36-.81-.81-.81-.81,.36-.81,.81,.36,.81,.81,.81Z"/>
      <path class="cls-1" d="M3.13,44.28c.46,0,.83-.37,.83-.83s-.37-.83-.83-.83-.83,.37-.83,.83,.37,.83,.83,.83Z"/>
      <path class="cls-1" d="M2.87,41.82c.46,0,.84-.37,.84-.83s-.37-.84-.84-.84-.84,.37-.84,.84,.37,.83,.84,.83Z"/>
      <path class="cls-1" d="M2.78,39.35c.46,0,.84-.37,.84-.83s-.37-.84-.84-.84-.84,.37-.84,.84,.37,.83,.84,.83Z"/>
      <path class="cls-1" d="M2.04,36.04c0,.46,.37,.84,.84,.84s.84-.38,.84-.84-.37-.84-.84-.84-.84,.38-.84,.84Z"/>
      <path class="cls-1" d="M2.28,33.58c0,.47,.38,.85,.85,.85s.85-.38,.85-.85-.38-.85-.85-.85-.85,.38-.85,.85Z"/>
      <path class="cls-1" d="M2.71,31.14c0,.47,.38,.85,.85,.85s.85-.38,.85-.85-.38-.85-.85-.85-.85,.38-.85,.85Z"/>
      <path class="cls-1" d="M3.29,28.74c0,.48,.39,.86,.86,.86s.86-.39,.86-.86-.39-.86-.86-.86-.86,.39-.86,.86Z"/>
      <path class="cls-1" d="M4.05,26.39c0,.48,.39,.87,.87,.87s.87-.39,.87-.87-.39-.87-.87-.87-.87,.39-.87,.87Z"/>
      <path class="cls-1" d="M4.97,24.09c0,.49,.39,.88,.88,.88s.88-.39,.88-.88-.39-.88-.88-.88-.88,.39-.88,.88Z"/>
      <path class="cls-1" d="M6.04,21.87c0,.49,.4,.89,.89,.89s.89-.4,.89-.89-.4-.89-.89-.89-.89,.4-.89,.89Z"/>
      <path class="cls-1" d="M7.24,19.73c0,.51,.42,.93,.93,.93s.93-.42,.93-.93-.41-.93-.93-.93-.93,.41-.93,.93Z"/>
      <path class="cls-1" d="M8.63,17.67c0,.51,.42,.93,.93,.93s.93-.41,.93-.93-.42-.93-.93-.93-.93,.42-.93,.93Z"/>
      <path class="cls-1" d="M11.08,14.77c-.53,0-.96,.43-.96,.96s.43,.96,.96,.96,.96-.43,.96-.96-.43-.96-.96-.96Z"/>
      <path class="cls-1" d="M12.73,12.91c-.54,0-.97,.43-.97,.97s.44,.97,.97,.97,.97-.44,.97-.97-.44-.97-.97-.97Z"/>
      <path class="cls-1" d="M14.51,11.17c-.55,0-.99,.44-.99,.99s.44,.99,.99,.99,.99-.44,.99-.99-.45-.99-.99-.99Z"/>
      <path class="cls-1" d="M16.41,9.58c-.55,0-1,.45-1,1s.45,1,1,1,1-.45,1-1-.45-1-1-1Z"/>
      <path class="cls-1" d="M18.41,8.11c-.56,0-1.01,.45-1.01,1.01s.45,1.01,1.01,1.01,1.01-.45,1.01-1.01-.45-1.01-1.01-1.01Z"/>
      <path class="cls-1" d="M20.51,6.78c-.57,0-1.03,.46-1.03,1.03s.46,1.03,1.03,1.03,1.03-.46,1.03-1.03-.46-1.03-1.03-1.03Z"/>
      <path class="cls-1" d="M22.69,5.61c-.58,0-1.04,.47-1.04,1.04s.47,1.04,1.04,1.04,1.04-.47,1.04-1.04-.47-1.04-1.04-1.04Z"/>
      <path class="cls-1" d="M24.95,4.58c-.58,0-1.06,.47-1.06,1.06s.47,1.06,1.06,1.06,1.06-.48,1.06-1.06-.48-1.06-1.06-1.06Z"/>
      <path class="cls-1" d="M27.28,3.73c-.59,0-1.06,.48-1.06,1.07s.48,1.06,1.06,1.06,1.06-.48,1.06-1.06-.48-1.07-1.06-1.07Z"/>
      <path class="cls-1" d="M29.66,3.03c-.6,0-1.09,.49-1.09,1.09s.49,1.09,1.09,1.09,1.09-.49,1.09-1.09-.49-1.09-1.09-1.09Z"/>
      <path class="cls-1" d="M33.17,3.6c0-.6-.49-1.09-1.09-1.09s-1.09,.49-1.09,1.09,.49,1.09,1.09,1.09,1.09-.49,1.09-1.09Z"/>
      <path class="cls-1" d="M66.91,18.83c.64,0,1.15-.52,1.15-1.15s-.52-1.15-1.15-1.15-1.15,.52-1.15,1.15,.51,1.15,1.15,1.15Z"/>
      <polygon class="cls-1" points="75.56 40.99 75.57 41 75.59 40.99 75.57 40.97 75.56 40.99"/>
      <polygon class="cls-1" points="75.28 43.45 75.33 43.49 75.37 43.45 75.33 43.4 75.28 43.45"/>
      <polygon class="cls-1" points="74.92 45.79 74.82 45.89 74.92 45.99 75.02 45.89 74.92 45.79"/>
      <rect class="cls-2" x="74.25" y="48.2" width=".2" height=".2" transform="translate(-12.38 66.69) rotate(-44.98)"/>
      <rect class="cls-2" x="73.52" y="50.55" width=".22" height=".22" transform="translate(-14.24 66.99) rotate(-45.06)"/>
      <path class="cls-1" d="M72.75,52.8c-.1,0-.17,.08-.17,.17s.08,.18,.17,.18,.17-.08,.17-.18-.08-.17-.17-.17Z"/>
      <path class="cls-1" d="M71.72,55.02c-.12,0-.21,.09-.21,.21s.09,.21,.21,.21,.21-.09,.21-.21-.09-.21-.21-.21Z"/>
      <path class="cls-1" d="M70.54,57.13c-.15,0-.27,.12-.27,.27s.12,.27,.27,.27,.27-.12,.27-.27-.12-.27-.27-.27Z"/>
      <path class="cls-1" d="M69.22,59.22c-.15,0-.27,.12-.27,.27s.12,.27,.27,.27,.27-.12,.27-.27-.12-.27-.27-.27Z"/>
      <path class="cls-1" d="M67.76,61.19c-.17,0-.3,.14-.3,.31s.14,.31,.3,.31,.31-.14,.31-.31-.14-.31-.31-.31Z"/>
      <path class="cls-1" d="M66.18,63.07c-.18,0-.32,.14-.32,.32s.14,.32,.32,.32,.32-.14,.32-.32-.14-.32-.32-.32Z"/>
      <path class="cls-1" d="M64.47,64.84c-.19,0-.34,.15-.34,.34s.15,.34,.34,.34,.34-.15,.34-.34-.15-.34-.34-.34Z"/>
      <path class="cls-1" d="M62.65,66.51c-.2,0-.36,.16-.36,.36s.16,.35,.36,.35,.35-.16,.35-.35-.16-.36-.35-.36Z"/>
      <path class="cls-1" d="M60.73,68.05c-.2,0-.37,.17-.37,.37s.17,.37,.37,.37,.37-.17,.37-.37-.17-.37-.37-.37Z"/>
      <path class="cls-1" d="M58.7,69.45c-.21,0-.39,.17-.39,.39s.17,.39,.39,.39,.39-.17,.39-.39-.17-.39-.39-.39Z"/>
      <path class="cls-1" d="M56.59,70.72c-.22,0-.41,.18-.41,.4s.18,.41,.41,.41,.4-.18,.4-.41-.18-.4-.4-.4Z"/>
      <path class="cls-1" d="M54.39,71.84c-.23,0-.42,.19-.42,.42s.19,.42,.42,.42,.42-.19,.42-.42-.19-.42-.42-.42Z"/>
      <path class="cls-1" d="M52.12,72.83c-.24,0-.43,.19-.43,.43s.19,.43,.43,.43,.43-.19,.43-.43-.19-.43-.43-.43Z"/>
      <path class="cls-1" d="M49.8,73.66c-.24,0-.44,.2-.44,.44s.19,.44,.44,.44,.44-.2,.44-.44-.19-.44-.44-.44Z"/>
      <path class="cls-1" d="M47.42,74.34c-.24,0-.44,.2-.44,.44s.2,.44,.44,.44,.44-.2,.44-.44-.2-.44-.44-.44Z"/>
      <path class="cls-1" d="M45,74.86c-.25,0-.45,.2-.45,.45s.2,.45,.45,.45,.45-.2,.45-.45-.2-.45-.45-.45Z"/>
      <path class="cls-1" d="M42.56,75.22c-.25,0-.46,.21-.46,.46s.2,.46,.46,.46,.46-.21,.46-.46-.2-.46-.46-.46Z"/>
      <path class="cls-1" d="M40.09,75.43c-.25,0-.46,.2-.46,.46s.2,.46,.46,.46,.46-.2,.46-.46-.21-.46-.46-.46Z"/>
      <path class="cls-1" d="M37.62,75.47c-.25,0-.46,.21-.46,.46s.2,.46,.46,.46,.46-.21,.46-.46-.2-.46-.46-.46Z"/>
      <path class="cls-1" d="M35.14,75.34c-.26,0-.46,.21-.46,.46s.21,.46,.46,.46,.46-.21,.46-.46-.21-.46-.46-.46Z"/>
      <path class="cls-1" d="M32.69,75.05c-.26,0-.47,.21-.47,.47s.21,.47,.47,.47,.47-.21,.47-.47-.21-.47-.47-.47Z"/>
      <path class="cls-1" d="M30.25,74.6c-.26,0-.47,.21-.47,.47s.21,.47,.47,.47,.47-.21,.47-.47-.21-.47-.47-.47Z"/>
      <path class="cls-1" d="M27.85,73.98c-.27,0-.48,.21-.48,.48s.22,.48,.48,.48,.48-.21,.48-.48-.21-.48-.48-.48Z"/>
      <path class="cls-1" d="M25.5,73.2c-.27,0-.5,.22-.5,.5s.22,.5,.5,.5,.5-.22,.5-.5-.22-.5-.5-.5Z"/>
      <path class="cls-1" d="M23.2,72.25c-.29,0-.53,.24-.53,.53s.24,.53,.53,.53,.53-.24,.53-.53-.24-.53-.53-.53Z"/>
      <path class="cls-1" d="M20.97,71.16c-.3,0-.55,.24-.55,.55s.24,.55,.55,.55,.55-.24,.55-.55-.24-.55-.55-.55Z"/>
      <path class="cls-1" d="M18.82,69.93c-.31,0-.56,.25-.56,.56s.25,.56,.56,.56,.56-.25,.56-.56-.25-.56-.56-.56Z"/>
      <path class="cls-1" d="M16.74,68.54c-.33,0-.6,.27-.6,.6s.27,.6,.6,.6,.6-.27,.6-.6-.27-.6-.6-.6Z"/>
      <path class="cls-1" d="M14.77,67.04c-.34,0-.61,.27-.61,.61s.27,.61,.61,.61,.61-.27,.61-.61-.27-.61-.61-.61Z"/>
      <path class="cls-1" d="M12.89,65.41c-.35,0-.63,.28-.63,.63s.28,.63,.63,.63,.63-.28,.63-.63-.28-.63-.63-.63Z"/>
      <path class="cls-1" d="M11.13,63.65c-.36,0-.65,.29-.65,.66s.29,.65,.65,.65,.66-.29,.66-.65-.29-.66-.66-.66Z"/>
      <path class="cls-1" d="M9.48,61.76c-.39,0-.7,.31-.7,.7s.32,.7,.7,.7,.7-.32,.7-.7-.31-.7-.7-.7Z"/>
      <path class="cls-1" d="M7.96,59.8c-.39,0-.7,.31-.7,.7s.32,.71,.7,.71,.7-.32,.7-.71-.32-.7-.7-.7Z"/>
      <path class="cls-1" d="M6.57,57.72c-.41,0-.74,.33-.74,.74s.33,.74,.74,.74,.74-.33,.74-.74-.33-.74-.74-.74Z"/>
      <path class="cls-1" d="M6.07,56.32c0-.41-.34-.75-.75-.75s-.75,.34-.75,.75,.34,.75,.75,.75,.75-.34,.75-.75Z"/>
      <path class="cls-1" d="M4.99,54.11c0-.43-.34-.77-.77-.77s-.77,.34-.77,.77,.34,.77,.77,.77,.77-.35,.77-.77Z"/>
      <path class="cls-1" d="M4.04,51.83c0-.43-.35-.78-.78-.78s-.77,.35-.77,.78,.35,.77,.77,.77,.78-.35,.78-.77Z"/>
      <path class="cls-1" d="M3.25,49.48c0-.44-.36-.79-.79-.79s-.79,.35-.79,.79,.35,.79,.79,.79,.79-.35,.79-.79Z"/>
      <path class="cls-1" d="M2.63,47.1c0-.45-.37-.82-.82-.82s-.82,.37-.82,.82,.37,.82,.82,.82,.82-.37,.82-.82Z"/>
      <path class="cls-1" d="M2.15,44.67c0-.46-.37-.82-.83-.82s-.82,.37-.82,.82,.37,.83,.82,.83,.83-.37,.83-.83Z"/>
      <path class="cls-1" d="M1.83,42.22c0-.46-.37-.83-.83-.83s-.83,.37-.83,.83,.37,.83,.83,.83,.83-.37,.83-.83Z"/>
      <path class="cls-1" d="M.84,40.59c.46,0,.84-.37,.84-.84s-.37-.83-.84-.83-.84,.37-.84,.83,.37,.84,.84,.84Z"/>
      <path class="cls-1" d="M.84,38.11c.46,0,.84-.37,.84-.83s-.37-.84-.84-.84-.84,.37-.84,.84,.37,.83,.84,.83Z"/>
      <path class="cls-1" d="M1,35.65c.46,0,.84-.38,.84-.84s-.38-.84-.84-.84-.84,.38-.84,.84,.38,.84,.84,.84Z"/>
      <path class="cls-1" d="M1.33,33.19c.46,0,.84-.38,.84-.84s-.38-.84-.84-.84-.84,.38-.84,.84,.38,.84,.84,.84Z"/>
      <path class="cls-1" d="M1.81,30.77c.47,0,.85-.38,.85-.85s-.38-.85-.85-.85-.85,.38-.85,.85,.38,.85,.85,.85Z"/>
      <path class="cls-1" d="M2.46,28.4c.48,0,.86-.39,.86-.86s-.39-.86-.86-.86-.86,.39-.86,.86,.39,.86,.86,.86Z"/>
      <path class="cls-1" d="M3.26,26.07c.48,0,.87-.39,.87-.87s-.39-.87-.87-.87-.87,.39-.87,.87,.39,.87,.87,.87Z"/>
      <path class="cls-1" d="M4.22,23.8c.49,0,.88-.4,.88-.88s-.4-.89-.88-.89-.89,.4-.89,.89,.4,.88,.89,.88Z"/>
      <path class="cls-1" d="M5.33,21.6c.5,0,.9-.4,.9-.9s-.4-.9-.9-.9-.9,.4-.9,.9,.4,.9,.9,.9Z"/>
      <path class="cls-1" d="M6.57,19.48c.51,0,.92-.41,.92-.92s-.41-.92-.92-.92-.92,.41-.92,.92,.41,.92,.92,.92Z"/>
      <path class="cls-1" d="M7.96,17.45c.51,0,.93-.42,.93-.93s-.42-.93-.93-.93-.93,.41-.93,.93,.41,.93,.93,.93Z"/>
      <path class="cls-1" d="M9.48,15.51c.52,0,.95-.42,.95-.94s-.42-.94-.95-.94-.95,.42-.95,.94,.42,.94,.95,.94Z"/>
      <path class="cls-1" d="M11.13,13.68c.53,0,.96-.43,.96-.96s-.43-.96-.96-.96-.96,.43-.96,.96,.43,.96,.96,.96Z"/>
      <path class="cls-1" d="M12.89,11.96c.54,0,.98-.44,.98-.98s-.44-.98-.98-.98-.98,.44-.98,.98,.44,.98,.98,.98Z"/>
      <path class="cls-1" d="M14.77,10.36c.55,0,.99-.45,.99-.99s-.45-.99-.99-.99-.99,.45-.99,.99,.44,.99,.99,.99Z"/>
      <path class="cls-1" d="M16.74,8.89c.56,0,1.01-.45,1.01-1.01s-.45-1.01-1.01-1.01-1.01,.45-1.01,1.01,.45,1.01,1.01,1.01Z"/>
      <path class="cls-1" d="M18.82,7.55c.56,0,1.02-.46,1.02-1.02s-.46-1.02-1.02-1.02-1.02,.46-1.02,1.02,.46,1.02,1.02,1.02Z"/>
      <path class="cls-1" d="M20.97,6.36c.58,0,1.04-.47,1.04-1.04s-.47-1.04-1.04-1.04-1.04,.47-1.04,1.04,.47,1.04,1.04,1.04Z"/>
      <path class="cls-1" d="M23.2,5.29c.58,0,1.05-.47,1.05-1.05s-.47-1.05-1.05-1.05-1.05,.47-1.05,1.05,.47,1.05,1.05,1.05Z"/>
      <path class="cls-1" d="M25.5,4.4c.59,0,1.07-.48,1.07-1.07s-.48-1.07-1.07-1.07-1.07,.48-1.07,1.07,.48,1.07,1.07,1.07Z"/>
      <path class="cls-1" d="M27.85,3.64c.59,0,1.08-.48,1.08-1.08s-.48-1.08-1.08-1.08-1.08,.48-1.08,1.08,.48,1.08,1.08,1.08Z"/>
      <path class="cls-1" d="M30.25,3.04c.6,0,1.09-.49,1.09-1.09s-.49-1.09-1.09-1.09-1.09,.49-1.09,1.09,.49,1.09,1.09,1.09Z"/>
      <path class="cls-1" d="M32.69,2.6c.6,0,1.09-.49,1.09-1.09s-.49-1.09-1.09-1.09-1.09,.49-1.09,1.09,.49,1.09,1.09,1.09Z"/>
      <path class="cls-1" d="M34.67,2.19l-.14-.03c-.6,0-1.09,.49-1.09,1.09,0,.45,.27,.83,.66,1l-.18-.03c-.6,0-1.09,.49-1.09,1.09s.49,1.09,1.09,1.09,1.09-.49,1.09-1.09c0-.45-.27-.83-.65-1l.18,.04c.6,0,1.09-.49,1.09-1.09,0-.43-.25-.79-.62-.97l.14,.03c.6,0,1.09-.49,1.09-1.09s-.49-1.09-1.09-1.09-1.09,.49-1.09,1.09c0,.43,.25,.79,.62,.97Z"/>
      <path class="cls-1" d="M37.01,1.99h-.01c-.61,0-1.1,.49-1.1,1.1,0,.39,.21,.71,.52,.91h-.04c-.61,0-1.1,.48-1.1,1.09,0,.4,.23,.74,.55,.93h-.07c-.61-.01-1.1,.48-1.1,1.08,0,.43,.25,.78,.6,.97l-.12-.02c-.6,0-1.09,.49-1.09,1.09,0,.45,.27,.83,.66,1l-.18-.04c-.6,0-1.09,.49-1.09,1.09s.49,1.09,1.09,1.09,1.09-.49,1.09-1.09c0-.45-.27-.83-.66-1l.18,.04c.6,0,1.09-.49,1.09-1.09,0-.42-.25-.78-.6-.96l.12,.03c.61,0,1.1-.49,1.1-1.1,0-.4-.23-.74-.55-.93h.07c.61,.01,1.1-.48,1.1-1.08,0-.39-.21-.72-.52-.91h.04c.61,0,1.1-.48,1.1-1.09,0-.38-.2-.69-.49-.89h.01c.61,0,1.1-.49,1.1-1.1s-.49-1.1-1.1-1.1-1.1,.49-1.1,1.1c0,.38,.2,.69,.49,.89Z"/>
      <path class="cls-1" d="M39.43,1.99c-.59,.02-1.06,.5-1.06,1.09,0,.36,.18,.66,.45,.86-.59,.02-1.07,.5-1.07,1.09,0,.36,.19,.67,.46,.87-.6,.01-1.08,.49-1.08,1.09,0,.37,.19,.68,.48,.88-.6,0-1.09,.49-1.09,1.1,0,.38,.21,.7,.5,.9h-.02c-.61,0-1.1,.49-1.1,1.09,0,.4,.23,.74,.55,.93h-.07c-.6-.01-1.09,.48-1.09,1.08,0,.43,.25,.79,.61,.97l-.13-.03c-.6,0-1.09,.49-1.09,1.09s.49,1.09,1.09,1.09,1.09-.49,1.09-1.09c0-.43-.25-.79-.61-.97l.13,.03c.6,0,1.09-.49,1.09-1.09,0-.4-.23-.74-.55-.93h.07c.61,.01,1.1-.48,1.1-1.08,0-.38-.21-.7-.5-.9h.02c.61,0,1.1-.49,1.1-1.09,0-.37-.19-.68-.47-.88,.6,0,1.09-.49,1.09-1.1,0-.36-.19-.67-.46-.87,.6-.01,1.08-.49,1.08-1.09,0-.36-.18-.66-.45-.86,.59-.02,1.07-.5,1.07-1.09,0-.35-.18-.65-.44-.85,.59-.02,1.06-.5,1.06-1.09s-.49-1.1-1.1-1.1-1.1,.49-1.1,1.1c0,.36,.18,.66,.44,.86Z"/>
      <path class="cls-1" d="M41.86,2.17c-.57,.04-1.02,.5-1.02,1.08,0,.34,.16,.63,.41,.84-.57,.04-1.03,.5-1.03,1.08,0,.34,.17,.64,.41,.84-.57,.04-1.03,.5-1.03,1.09,0,.35,.17,.64,.42,.84-.58,.03-1.04,.5-1.04,1.09,0,.35,.18,.65,.43,.85-.58,.03-1.05,.5-1.05,1.09,0,.36,.18,.66,.44,.86-.59,.02-1.06,.5-1.06,1.09,0,.36,.19,.67,.46,.87-.6,.01-1.08,.49-1.08,1.09,0,.37,.2,.68,.48,.88-.61,0-1.1,.49-1.1,1.1,0,.39,.22,.72,.53,.92h-.05c-.6-.01-1.09,.48-1.09,1.08s.49,1.09,1.09,1.09,1.09-.49,1.09-1.09c0-.39-.22-.72-.53-.91h.05c.61,.01,1.1-.48,1.1-1.09,0-.37-.19-.68-.48-.88,.61,0,1.1-.49,1.1-1.1,0-.36-.19-.67-.46-.87,.6-.01,1.08-.49,1.08-1.09,0-.36-.18-.66-.44-.86,.59-.02,1.06-.5,1.06-1.09,0-.35-.18-.65-.43-.85,.58-.03,1.05-.5,1.05-1.09,0-.35-.17-.64-.42-.84,.58-.03,1.04-.5,1.04-1.09,0-.34-.17-.64-.41-.84,.57-.04,1.03-.5,1.03-1.08,0-.34-.16-.63-.41-.84,.57-.04,1.02-.5,1.02-1.08,0-.34-.16-.63-.4-.83,.57-.04,1.02-.5,1.02-1.08,0-.61-.49-1.1-1.1-1.1s-1.1,.49-1.1,1.1c0,.34,.16,.63,.4,.83Z"/>
      <path class="cls-1" d="M44.27,2.52c-.55,.06-.98,.51-.98,1.08,0,.33,.15,.61,.37,.81-.55,.06-.99,.51-.99,1.08,0,.33,.15,.62,.38,.82-.55,.06-.99,.51-.99,1.08,0,.33,.15,.62,.39,.82-.56,.05-1,.51-1,1.08,0,.33,.15,.62,.38,.82-.56,.05-1,.51-1,1.08,0,.33,.15,.62,.39,.82-.56,.05-1,.51-1,1.08,0,.34,.16,.63,.4,.83-.56,.05-1.01,.5-1.01,1.08,0,.34,.16,.64,.41,.84-.57,.04-1.03,.5-1.03,1.08,0,.35,.17,.64,.42,.84-.58,.03-1.04,.5-1.04,1.09s.49,1.1,1.1,1.1,1.1-.49,1.1-1.1c0-.35-.17-.64-.42-.84,.58-.03,1.04-.5,1.04-1.09,0-.34-.17-.63-.41-.84,.57-.04,1.03-.5,1.03-1.08,0-.34-.16-.62-.4-.83,.57-.05,1.02-.51,1.02-1.08,0-.33-.15-.62-.39-.82,.56-.05,1-.51,1-1.08,0-.33-.15-.62-.39-.82,.56-.05,1-.51,1-1.08,0-.33-.15-.62-.39-.82,.56-.05,1-.51,1-1.08,0-.33-.15-.61-.38-.81,.56-.06,1-.51,1-1.08,0-.33-.15-.61-.37-.81,.55-.06,.98-.51,.98-1.08,0-.33-.15-.61-.37-.81,.55-.06,.98-.51,.98-1.08,0-.61-.49-1.1-1.1-1.1s-1.1,.49-1.1,1.1c0,.33,.15,.61,.37,.81Z"/>
      <path class="cls-1" d="M46.67,3.04c-.54,.07-.96,.52-.96,1.07,0,.32,.14,.6,.36,.8-.54,.07-.97,.52-.97,1.08,0,.32,.14,.6,.36,.8-.54,.07-.97,.51-.97,1.07,0,.32,.14,.6,.36,.8-.54,.07-.97,.51-.97,1.08,0,.32,.14,.6,.36,.8-.54,.07-.97,.51-.97,1.08,0,.32,.14,.6,.36,.81-.54,.07-.97,.51-.97,1.08,0,.32,.14,.6,.36,.81-.55,.07-.97,.51-.97,1.08,0,.32,.14,.6,.36,.81-.55,.07-.97,.51-.97,1.08,0,.32,.14,.61,.37,.81-.55,.07-.98,.51-.98,1.08,0,.61,.49,1.1,1.1,1.1s1.1-.49,1.1-1.1c0-.32-.15-.61-.37-.81,.55-.06,.98-.51,.98-1.08,0-.32-.14-.6-.36-.81,.55-.07,.98-.51,.98-1.08,0-.32-.14-.6-.36-.81,.55-.07,.97-.51,.97-1.08,0-.32-.14-.6-.36-.81,.54-.07,.97-.51,.97-1.08,0-.32-.14-.6-.36-.8,.54-.07,.97-.52,.97-1.08,0-.32-.14-.6-.36-.8,.54-.07,.97-.51,.97-1.08,0-.32-.14-.6-.36-.8,.54-.07,.97-.51,.97-1.07,0-.32-.14-.6-.36-.8,.54-.07,.97-.51,.97-1.07,0-.32-.14-.6-.35-.8,.54-.07,.96-.52,.96-1.08,0-.61-.5-1.11-1.11-1.11s-1.11,.5-1.11,1.11c0,.32,.14,.6,.35,.8Z"/>
      <path class="cls-1" d="M49.03,3.72c-.53,.08-.95,.52-.95,1.08,0,.31,.13,.59,.34,.8-.53,.08-.95,.52-.95,1.08,0,.31,.13,.59,.34,.8-.53,.08-.95,.52-.95,1.08,0,.31,.13,.59,.34,.8-.54,.08-.95,.52-.95,1.08,0,.31,.13,.59,.34,.8-.53,.08-.95,.52-.95,1.08,0,.31,.13,.59,.34,.8-.53,.08-.95,.52-.95,1.08,0,.31,.13,.59,.34,.8-.53,.08-.95,.52-.95,1.08,0,.31,.13,.6,.34,.8-.53,.08-.95,.52-.95,1.08,0,.31,.13,.6,.34,.8-.54,.08-.95,.52-.95,1.08,0,.61,.5,1.11,1.11,1.11s1.11-.5,1.11-1.11c0-.31-.13-.59-.34-.8,.53-.08,.95-.52,.95-1.08,0-.31-.13-.59-.34-.8,.53-.08,.95-.52,.95-1.08,0-.31-.13-.59-.34-.8,.53-.08,.95-.52,.95-1.08,0-.31-.13-.59-.34-.8,.53-.08,.95-.52,.95-1.08,0-.31-.13-.59-.34-.8,.54-.08,.95-.52,.95-1.08,0-.31-.13-.59-.34-.8,.53-.08,.95-.52,.95-1.08,0-.31-.13-.6-.34-.8,.53-.08,.95-.52,.95-1.08,0-.31-.13-.59-.34-.8,.53-.08,.95-.52,.95-1.08,0-.31-.13-.6-.34-.8,.53-.08,.95-.52,.95-1.08,0-.61-.5-1.11-1.11-1.11s-1.11,.5-1.11,1.11c0,.31,.13,.59,.34,.8Z"/>
      <path class="cls-1" d="M51.36,4.56c-.54,.08-.96,.52-.96,1.08,0,.32,.14,.6,.35,.8-.54,.08-.96,.52-.96,1.08,0,.32,.14,.6,.35,.8-.54,.08-.96,.52-.96,1.08,0,.32,.14,.6,.35,.8-.54,.08-.96,.52-.96,1.08,0,.32,.14,.6,.35,.8-.54,.07-.96,.52-.96,1.08,0,.32,.14,.6,.35,.8-.54,.07-.96,.52-.96,1.08,0,.32,.14,.6,.35,.8-.54,.07-.96,.52-.96,1.08,0,.32,.14,.6,.35,.8-.54,.07-.97,.52-.97,1.08,0,.32,.14,.6,.35,.81-.54,.07-.96,.52-.96,1.08,0,.61,.5,1.11,1.11,1.11s1.11-.5,1.11-1.11c0-.32-.14-.6-.35-.8,.54-.07,.97-.52,.97-1.09,0-.32-.14-.6-.35-.81,.54-.08,.96-.52,.96-1.08,0-.32-.14-.6-.35-.8,.54-.07,.96-.52,.96-1.08,0-.32-.14-.6-.35-.8,.54-.07,.96-.52,.96-1.08,0-.32-.14-.6-.35-.8,.54-.08,.96-.52,.96-1.08,0-.32-.14-.6-.35-.8,.54-.08,.96-.52,.96-1.08,0-.32-.14-.6-.35-.8,.54-.08,.96-.52,.96-1.08,0-.32-.13-.6-.35-.8,.54-.08,.96-.52,.96-1.08,0-.32-.14-.6-.35-.8,.54-.08,.96-.52,.96-1.08,0-.61-.5-1.11-1.11-1.11s-1.11,.5-1.11,1.11c0,.32,.14,.6,.35,.8Z"/>
      <path class="cls-1" d="M53.62,5.56c-.54,.08-.97,.52-.97,1.09,0,.32,.13,.6,.35,.8-.54,.08-.96,.53-.96,1.09,0,.32,.14,.6,.35,.81-.54,.08-.97,.52-.97,1.09,0,.32,.14,.6,.35,.81-.54,.08-.97,.52-.97,1.09,0,.32,.14,.61,.35,.81-.55,.07-.98,.52-.98,1.09,0,.32,.14,.61,.36,.81-.55,.07-.98,.52-.98,1.09,0,.32,.14,.61,.36,.81-.55,.07-.99,.52-.99,1.09,0,.32,.14,.61,.36,.82-.56,.07-1,.52-1,1.1,0,.33,.15,.62,.37,.82-.56,.06-1,.52-1,1.1,0,.62,.5,1.12,1.13,1.12s1.12-.5,1.12-1.12c0-.33-.15-.62-.37-.82,.56-.06,1-.52,1-1.1,0-.33-.14-.62-.37-.82,.56-.07,.99-.52,.99-1.09,0-.33-.14-.61-.36-.82,.55-.07,.99-.52,.99-1.09,0-.32-.14-.61-.36-.81,.55-.07,.98-.52,.98-1.09,0-.32-.14-.61-.35-.81,.55-.07,.98-.52,.98-1.09,0-.32-.14-.6-.35-.81,.55-.08,.97-.52,.97-1.09,0-.32-.13-.6-.35-.81,.54-.08,.97-.53,.97-1.09,0-.32-.13-.6-.35-.8,.54-.08,.96-.52,.96-1.09,0-.32-.14-.6-.35-.81,.54-.08,.96-.52,.96-1.08,0-.62-.5-1.11-1.11-1.11s-1.11,.5-1.11,1.11c0,.32,.13,.6,.35,.8Z"/>
      <path class="cls-1" d="M55.82,6.71c-.55,.07-.99,.53-.99,1.1,0,.32,.14,.61,.36,.82-.55,.07-.99,.52-.99,1.1,0,.33,.15,.62,.37,.82-.56,.06-1,.52-1,1.09,0,.33,.15,.62,.37,.82-.57,.06-1.01,.52-1.01,1.1,0,.33,.15,.62,.37,.82-.57,.06-1.02,.52-1.02,1.11,0,.34,.15,.63,.39,.84-.57,.05-1.02,.52-1.02,1.1,0,.34,.16,.63,.39,.84-.58,.04-1.05,.52-1.05,1.11,0,.34,.16,.64,.4,.85-.59,.04-1.06,.52-1.06,1.12,0,.35,.17,.65,.42,.86-.61,.02-1.09,.51-1.09,1.12s.51,1.13,1.13,1.13,1.13-.51,1.13-1.13c0-.35-.17-.65-.42-.86,.61-.02,1.09-.51,1.09-1.12,0-.34-.16-.64-.4-.85,.59-.04,1.06-.52,1.06-1.12,0-.34-.16-.64-.4-.84,.58-.04,1.04-.52,1.04-1.11,0-.33-.15-.62-.38-.83,.57-.05,1.03-.52,1.03-1.11,0-.33-.15-.62-.38-.83,.56-.06,1.01-.52,1.01-1.1,0-.33-.15-.62-.38-.83,.56-.06,1.01-.52,1.01-1.1,0-.33-.14-.61-.37-.82,.56-.06,1-.52,1-1.1,0-.32-.14-.61-.36-.82,.55-.07,.99-.53,.99-1.1,0-.32-.14-.61-.36-.82,.55-.07,.98-.52,.98-1.09,0-.62-.5-1.12-1.12-1.12s-1.12,.5-1.12,1.12c0,.32,.14,.61,.36,.81Z"/>
      <path class="cls-1" d="M57.95,8.01c-.57,.05-1.03,.52-1.03,1.11,0,.34,.15,.63,.38,.83-.58,.05-1.03,.52-1.03,1.11,0,.34,.16,.63,.39,.84-.58,.05-1.04,.52-1.04,1.11,0,.34,.16,.64,.4,.85-.59,.04-1.06,.52-1.06,1.12,0,.35,.16,.65,.41,.85-.6,.03-1.08,.51-1.08,1.12,0,.35,.17,.66,.42,.86-.61,.01-1.11,.51-1.11,1.13,0,.36,.18,.66,.44,.87h0c-.63,0-1.14,.51-1.14,1.14,0,.38,.2,.7,.48,.9h-.06c-.63-.01-1.14,.5-1.14,1.12,0,.41,.23,.75,.55,.95l-.15-.03c-.63,0-1.14,.51-1.14,1.14s.51,1.14,1.14,1.14,1.14-.51,1.14-1.14c0-.41-.23-.75-.55-.95l.16,.03c.63,0,1.14-.51,1.14-1.14,0-.38-.2-.7-.48-.9h.06c.63,.01,1.14-.5,1.14-1.12,0-.36-.18-.67-.44-.88,.62,0,1.13-.51,1.13-1.13,0-.35-.17-.66-.42-.86,.61-.01,1.11-.51,1.11-1.13,0-.35-.17-.65-.41-.85,.6-.03,1.08-.51,1.08-1.12,0-.34-.16-.64-.4-.85,.59-.04,1.06-.52,1.06-1.12,0-.34-.16-.63-.39-.84,.58-.05,1.04-.52,1.04-1.11,0-.33-.15-.63-.38-.83,.57-.05,1.03-.52,1.03-1.11,0-.33-.15-.63-.38-.83,.57-.06,1.02-.52,1.02-1.1,0-.62-.5-1.12-1.13-1.12s-1.12,.5-1.12,1.12c0,.33,.15,.62,.38,.83Z"/>
      <path class="cls-1" d="M60,9.45c-.6,.03-1.07,.52-1.07,1.12,0,.35,.16,.65,.41,.85-.6,.03-1.09,.52-1.09,1.13,0,.35,.17,.65,.42,.86-.61,.02-1.11,.51-1.11,1.13,0,.36,.18,.66,.43,.87-.63,0-1.13,.51-1.13,1.13,0,.38,.19,.69,.48,.9h-.05c-.63,0-1.14,.5-1.14,1.13,0,.4,.22,.73,.53,.93l-.12-.03c-.63,0-1.13,.51-1.13,1.14,0,.42,.24,.77,.58,.97l-.2-.04c-.63,0-1.14,.51-1.14,1.14,0,.45,.26,.82,.64,1.01-.09-.03-.19-.06-.29-.06-.63,0-1.15,.51-1.15,1.15s.51,1.15,1.15,1.15,1.15-.51,1.15-1.15c0-.45-.26-.83-.64-1.02,.09,.03,.18,.06,.29,.06,.63,0,1.14-.51,1.14-1.14,0-.42-.24-.78-.58-.97l.2,.04c.63,0,1.14-.51,1.14-1.14,0-.4-.22-.73-.53-.93l.12,.02c.63,0,1.14-.51,1.14-1.14,0-.38-.19-.69-.47-.9h.05c.63,.01,1.14-.5,1.14-1.13,0-.36-.18-.66-.44-.87,.63,0,1.13-.51,1.13-1.13,0-.35-.17-.66-.42-.86,.61-.02,1.11-.51,1.11-1.13,0-.35-.16-.65-.41-.86,.6-.03,1.08-.52,1.08-1.13,0-.35-.16-.64-.41-.85,.59-.03,1.07-.51,1.07-1.12s-.51-1.13-1.13-1.13-1.13,.51-1.13,1.13c0,.34,.16,.64,.4,.85Z"/>
      <path class="cls-1" d="M61.52,10.16c0,.36,.18,.66,.44,.87-.63,0-1.13,.51-1.13,1.13,0,.37,.19,.69,.47,.9h-.05c-.63-.01-1.14,.5-1.14,1.13,0,.39,.21,.72,.51,.93l-.1-.02c-.63,0-1.14,.51-1.14,1.14,0,.41,.23,.75,.55,.95l-.16-.03c-.63,0-1.14,.51-1.14,1.14,0,.43,.24,.78,.59,.98l-.22-.04c-.63,0-1.15,.51-1.15,1.15,0,.45,.27,.84,.65,1.02-.1-.03-.2-.06-.31-.06-.63,0-1.15,.51-1.15,1.15s.51,1.15,1.15,1.15,1.15-.51,1.15-1.15c0-.45-.27-.84-.65-1.02,.1,.03,.2,.06,.31,.06,.63,0,1.15-.51,1.15-1.15,0-.43-.25-.79-.59-.98l.22,.04c.63,0,1.14-.51,1.14-1.14,0-.41-.23-.75-.55-.95l.16,.03c.63,0,1.14-.51,1.14-1.14,0-.39-.21-.72-.51-.93l.1,.02c.63,0,1.14-.51,1.14-1.14,0-.37-.19-.69-.47-.9h.05c.63,0,1.14-.5,1.14-1.13,0-.36-.18-.66-.44-.87,.63,0,1.13-.51,1.13-1.13s-.51-1.14-1.14-1.14-1.14,.51-1.14,1.14Z"/>
      <path class="cls-1" d="M63.34,11.83c0,.41,.22,.75,.54,.95l-.15-.03c-.63,0-1.14,.51-1.14,1.14,0,.42,.24,.77,.58,.97l-.2-.04c-.63,0-1.14,.51-1.14,1.14,0,.44,.26,.81,.63,1-.09-.02-.17-.05-.27-.05-.63,0-1.14,.51-1.14,1.14,0,.46,.28,.86,.68,1.04-.11-.04-.22-.07-.34-.07-.63,0-1.15,.51-1.15,1.15s.51,1.15,1.15,1.15,1.15-.51,1.15-1.15c0-.47-.28-.86-.68-1.04,.11,.04,.22,.07,.34,.07,.63,0,1.14-.51,1.14-1.14,0-.44-.26-.81-.62-1,.09,.02,.17,.05,.26,.05,.63,0,1.14-.51,1.14-1.14,0-.42-.24-.78-.58-.97l.2,.04c.63,0,1.14-.51,1.14-1.14,0-.41-.22-.74-.54-.95l.15,.03c.63,0,1.14-.51,1.14-1.14s-.51-1.14-1.14-1.14-1.14,.51-1.14,1.14Z"/>
      <path class="cls-1" d="M65.04,13.63c0,.45,.27,.83,.64,1.01-.09-.03-.19-.06-.29-.06-.63,0-1.14,.51-1.14,1.14s.51,1.14,1.14,1.14,1.14-.51,1.14-1.14c0-.45-.27-.83-.64-1.02,.09,.03,.19,.06,.29,.06,.63,0,1.14-.51,1.14-1.14s-.51-1.14-1.14-1.14-1.14,.51-1.14,1.14Z"/>
      <path class="cls-1" d="M66.62,15.53c0,.63,.51,1.15,1.15,1.15s1.15-.51,1.15-1.15-.51-1.15-1.15-1.15-1.15,.51-1.15,1.15Z"/>
      <path class="cls-1" d="M68.06,17.53c0,.64,.52,1.16,1.16,1.16s1.16-.52,1.16-1.16-.52-1.16-1.16-1.16-1.16,.52-1.16,1.16Z"/>
      <path class="cls-1" d="M69.4,19.44c-.13-.5-.56-.88-1.11-.88-.62,0-1.11,.49-1.15,1.09-.09-.55-.55-.97-1.12-.97-.64,0-1.16,.52-1.16,1.16s.52,1.16,1.16,1.16,1.11-.48,1.14-1.09c.09,.55,.55,.97,1.13,.97s1.04-.43,1.13-.98c.13,.51,.57,.89,1.11,.89,.65,0,1.17-.52,1.17-1.17s-.52-1.17-1.17-1.17c-.58,0-1.04,.43-1.13,.99Z"/>
      <path class="cls-1" d="M70.61,21.4c-.18-.41-.59-.71-1.08-.71-.53,0-.96,.36-1.11,.84-.17-.44-.59-.77-1.1-.77-.57,0-1.02,.41-1.13,.94-.15-.48-.58-.83-1.1-.83-.61,0-1.09,.47-1.15,1.07-.11-.53-.55-.94-1.11-.94-.64,0-1.16,.52-1.16,1.16s.52,1.16,1.16,1.16c.6,0,1.08-.47,1.14-1.06,.11,.54,.56,.95,1.12,.95s1-.4,1.12-.92c.15,.48,.58,.84,1.11,.84s.97-.36,1.11-.85c.17,.44,.59,.76,1.09,.76s.93-.32,1.09-.77c.18,.42,.6,.72,1.09,.72,.65,0,1.18-.53,1.18-1.19s-.53-1.18-1.18-1.18c-.51,0-.94,.33-1.1,.79Z"/>
      <path class="cls-1" d="M71.67,23.57c-.19-.39-.59-.66-1.05-.66-.49,0-.91,.3-1.09,.73-.19-.39-.59-.67-1.05-.67-.5,0-.92,.32-1.09,.76-.19-.41-.59-.7-1.07-.7-.52,0-.95,.34-1.1,.81-.18-.43-.59-.73-1.08-.73-.55,0-1,.39-1.12,.91-.15-.47-.58-.81-1.1-.81-.6,0-1.07,.45-1.14,1.03-.12-.52-.56-.91-1.11-.91-.64,0-1.16,.52-1.16,1.16s.52,1.16,1.16,1.16c.59,0,1.06-.45,1.13-1.02,.12,.52,.56,.92,1.12,.92s.99-.39,1.11-.91c.15,.47,.58,.82,1.1,.82s.94-.34,1.1-.8c.18,.43,.6,.73,1.09,.73s.92-.32,1.09-.76c.19,.41,.59,.7,1.07,.7s.91-.3,1.09-.72c.19,.39,.59,.67,1.06,.67s.89-.29,1.08-.7c.2,.39,.59,.66,1.05,.66,.65,0,1.18-.53,1.18-1.19s-.53-1.18-1.18-1.18c-.48,0-.89,.29-1.08,.7Z"/>
      <path class="cls-1" d="M72.57,25.83c-.2-.37-.58-.63-1.03-.63s-.87,.28-1.06,.68c-.2-.38-.58-.64-1.03-.64s-.88,.28-1.07,.69c-.2-.38-.58-.65-1.04-.65s-.89,.29-1.07,.7c-.19-.39-.59-.66-1.05-.66-.49,0-.91,.3-1.09,.72-.19-.39-.59-.67-1.06-.67-.5,0-.93,.32-1.1,.76-.19-.41-.59-.69-1.07-.69-.54,0-.98,.37-1.12,.87-.16-.44-.58-.76-1.08-.76-.59,0-1.05,.44-1.13,1.01-.12-.51-.56-.9-1.11-.9-.64,0-1.16,.52-1.16,1.16s.52,1.16,1.16,1.16c.59,0,1.05-.44,1.13-1.01,.12,.51,.56,.9,1.11,.9s.96-.36,1.1-.84c.17,.45,.59,.79,1.1,.79s.93-.32,1.1-.76c.19,.41,.59,.7,1.07,.7s.91-.3,1.09-.72c.19,.39,.59,.67,1.06,.67s.9-.29,1.08-.71c.19,.39,.58,.66,1.05,.66s.88-.28,1.06-.69c.19,.38,.58,.65,1.04,.65s.86-.28,1.05-.67c.2,.38,.58,.65,1.04,.65s.85-.27,1.05-.65c.2,.37,.58,.63,1.03,.63,.66,0,1.19-.53,1.19-1.19s-.53-1.19-1.19-1.19c-.46,0-.85,.27-1.05,.66Z"/>
      <path class="cls-1" d="M73.32,28.14c-.21-.35-.57-.6-1.01-.6s-.83,.26-1.03,.63c-.21-.36-.57-.61-1.02-.61s-.84,.27-1.04,.64c-.2-.36-.58-.62-1.02-.62s-.85,.27-1.05,.66c-.2-.37-.58-.63-1.02-.63s-.86,.28-1.05,.67c-.2-.38-.58-.64-1.03-.64s-.87,.28-1.06,.68c-.2-.38-.58-.65-1.04-.65s-.89,.29-1.08,.7c-.2-.38-.59-.66-1.05-.66-.49,0-.91,.3-1.09,.73-.19-.39-.59-.67-1.06-.67-.52,0-.94,.33-1.1,.79-.18-.42-.59-.71-1.08-.71-.65,0-1.17,.53-1.17,1.17s.53,1.17,1.17,1.17c.51,0,.93-.33,1.09-.78,.18,.42,.6,.72,1.09,.72s.91-.3,1.09-.73c.19,.39,.59,.67,1.06,.67s.89-.29,1.08-.7c.19,.39,.58,.66,1.05,.66s.87-.28,1.06-.68c.2,.38,.58,.65,1.04,.65s.86-.28,1.05-.67c.2,.38,.58,.64,1.03,.64s.84-.27,1.04-.65c.2,.37,.58,.63,1.03,.63s.83-.26,1.03-.64c.2,.37,.58,.62,1.03,.62s.82-.26,1.03-.62c.21,.36,.58,.61,1.02,.61s.82-.25,1.02-.61c.21,.35,.58,.6,1.02,.6,.66,0,1.2-.54,1.2-1.2s-.54-1.2-1.2-1.2c-.45,0-.82,.26-1.03,.62Z"/>
      <path class="cls-1" d="M73.89,30.47c-.22-.32-.57-.54-.98-.54s-.8,.24-1.01,.59c-.21-.34-.57-.57-1-.57s-.8,.24-1.02,.59c-.21-.34-.57-.58-1-.58s-.8,.24-1.01,.59c-.22-.35-.58-.59-1.02-.59s-.82,.25-1.03,.61c-.21-.34-.57-.58-1-.58s-.83,.26-1.03,.62c-.21-.35-.57-.6-1.01-.6s-.84,.26-1.04,.64c-.2-.36-.57-.62-1.02-.62s-.84,.27-1.04,.64c-.2-.37-.58-.63-1.03-.63s-.86,.27-1.06,.66c-.2-.37-.58-.63-1.04-.63-.66,0-1.2,.53-1.2,1.2s.53,1.2,1.2,1.2c.47,0,.86-.27,1.06-.66,.2,.37,.58,.63,1.04,.63s.85-.27,1.05-.65c.2,.36,.58,.62,1.02,.62s.83-.26,1.03-.63c.2,.37,.58,.62,1.03,.62s.82-.26,1.02-.62c.21,.36,.58,.61,1.02,.61s.8-.25,1.01-.59c.21,.35,.58,.6,1.03,.6s.81-.25,1.03-.6c.21,.34,.57,.58,1,.58s.8-.24,1.01-.59c.21,.34,.58,.59,1.01,.59s.79-.24,1.01-.58c.22,.34,.58,.58,1.01,.58s.77-.23,.99-.55c.22,.33,.59,.55,1.02,.55,.68,0,1.22-.55,1.22-1.22s-.55-1.22-1.22-1.22c-.43,0-.81,.22-1.03,.56Z"/>
      <path class="cls-1" d="M74.33,32.86c-.22-.31-.58-.51-.99-.51s-.77,.2-.99,.51c-.22-.31-.58-.51-.99-.51s-.8,.21-1.02,.54c-.22-.31-.57-.53-.98-.53s-.78,.23-1,.56c-.22-.33-.57-.56-1-.56s-.79,.24-1.01,.57c-.21-.33-.57-.56-.99-.56s-.79,.24-1,.58c-.21-.34-.57-.57-1-.57s-.79,.24-1.01,.58c-.21-.34-.57-.58-1-.58s-.8,.24-1.01,.59c-.21-.34-.57-.58-1-.58s-.77,.23-.99,.56c-.22-.34-.6-.58-1.04-.58-.68,0-1.23,.55-1.23,1.23s.55,1.23,1.23,1.23c.44,0,.83-.24,1.04-.59,.21,.32,.56,.55,.98,.55s.8-.24,1.01-.59c.21,.34,.58,.58,1.01,.58s.79-.24,1.01-.58c.21,.34,.57,.58,1,.58s.79-.24,1-.58c.21,.34,.57,.57,1,.57s.78-.23,.99-.56c.22,.34,.58,.57,1.01,.57s.78-.23,1-.56c.22,.33,.57,.56,1,.56s.76-.22,.98-.53c.22,.32,.59,.54,1.02,.54s.77-.2,.99-.51c.22,.31,.58,.51,.99,.51s.77-.2,.99-.51c.22,.31,.58,.51,.99,.51,.68,0,1.23-.55,1.23-1.23s-.55-1.23-1.23-1.23c-.41,0-.77,.2-.99,.51Z"/>
      <path class="cls-1" d="M75.57,34.79c-.4,0-.76,.19-.99,.49-.23-.3-.58-.49-.99-.49s-.76,.2-.99,.49c-.23-.3-.58-.49-.99-.49s-.76,.2-.99,.5c-.23-.3-.58-.49-.98-.49s-.77,.2-.99,.51c-.22-.3-.58-.5-.98-.5s-.76,.2-.99,.51c-.22-.3-.58-.5-.99-.5s-.76,.2-.98,.5c-.22-.31-.59-.51-1-.51s-.76,.2-.99,.5c-.23-.3-.58-.5-.99-.5s-.76,.2-.99,.5c-.23-.3-.58-.5-.99-.5s-.77,.2-1,.51c-.22-.3-.58-.5-.98-.5-.68,0-1.23,.55-1.23,1.23s.55,1.23,1.23,1.23c.4,0,.76-.2,.99-.5,.22,.31,.59,.51,1,.51s.77-.2,.99-.5c.23,.3,.58,.5,.99,.5s.76-.2,.99-.5c.23,.3,.58,.5,.99,.5s.77-.2,1-.51c.22,.3,.58,.5,.98,.5s.76-.2,.99-.51c.22,.31,.58,.51,.99,.51s.76-.2,.98-.5c.23,.31,.59,.51,.99,.51s.76-.2,.98-.49c.23,.3,.58,.5,.99,.5s.76-.19,.99-.49c.23,.3,.58,.49,.99,.49s.76-.19,.99-.49c.23,.3,.58,.49,.99,.49,.69,0,1.24-.56,1.24-1.24s-.56-1.24-1.24-1.24Z"/>
      <path class="cls-1" d="M76.58,38.51c0,5.33-4.32,9.64-9.65,9.64s-9.65-4.32-9.65-9.64,4.32-9.65,9.65-9.65,9.65,4.32,9.65,9.65Z"/>
    </g>
  </g>
</svg>