<svg xmlns="http://www.w3.org/2000/svg" id="_Слой_2" data-name="Слой 2" viewBox="0 0 76.8 76.4" stroke='' fill='currentColor' fill-rule='evenodd'>
  <defs>
  </defs>
  <g id="_1" data-name="1">
    <path d="M57.9 38.5h.1-.1z" class="cls-1"/>
    <path d="M57.7 41v-.1h.1v.1zM57.2 43.4h.1z" class="cls-2"/>
    <path d="m56.5 45.6-.1.2c0 .2 0 .1.1.1l.2-.1c0-.1 0-.2-.2-.2ZM55.5 47.7c-.2 0-.3.1-.3.3s.1.3.3.3.3-.1.3-.3-.2-.3-.3-.3ZM54.2 49.8c-.2 0-.3.1-.3.3s.1.3.3.3.3-.1.3-.3-.2-.3-.3-.3ZM53 52c0-.2-.2-.4-.4-.4s-.4.2-.4.4.2.3.4.3.3-.1.3-.3Z" class="cls-1"/>
    <circle cx="50.8" cy="53.7" r=".4" class="cls-2"/>
    <path d="M48.8 54.7c-.2 0-.4.2-.4.4s.2.4.4.4.4-.1.4-.4-.2-.4-.4-.4ZM46.6 55.9c-.2 0-.4.2-.4.4s.2.5.4.5.4-.2.4-.5-.1-.4-.4-.4ZM44.3 56.8c-.2 0-.4.2-.4.5s.2.4.4.4.5-.2.5-.5-.2-.4-.5-.4ZM42 57.4c-.3 0-.5.2-.5.5s.2.4.4.4.5-.2.5-.4-.2-.5-.5-.5ZM39.5 57.7c-.3 0-.5.2-.5.5s.2.4.5.4.4-.2.4-.4-.2-.5-.4-.5ZM37 57.7c-.3 0-.5.2-.5.5s.2.4.5.4.5-.2.5-.4-.2-.5-.5-.5ZM35 57.9a.5.5 0 1 0-1 0 .5.5 0 0 0 1 0ZM32.6 57.2a.5.5 0 1 0-1 0 .5.5 0 0 0 1 0ZM30.4 56.3c0-.2-.3-.5-.5-.5s-.6.3-.6.5.3.5.5.5.6-.2.6-.5ZM28.2 55.1c0-.3-.2-.5-.5-.5s-.6.2-.6.5.3.6.6.6.5-.3.5-.6ZM26.3 53.7c0-.3-.3-.6-.6-.6s-.6.2-.6.6.2.6.6.6.6-.3.6-.6ZM23.9 52.6c.3 0 .6-.2.6-.6s-.3-.6-.6-.6-.6.2-.6.6.2.6.6.6ZM22.3 50.8c.4 0 .7-.3.7-.7s-.3-.7-.7-.7-.7.3-.7.7.3.7.7.7ZM21.7 48a.7.7 0 1 0-1.5 0 .7.7 0 0 0 1.5 0ZM20 46.5a.8.8 0 1 0 0-1.5.8.8 0 0 0 0 1.5ZM19.2 44.2c.4 0 .8-.3.8-.8s-.4-.8-.8-.8-.8.4-.8.8.3.8.8.8ZM18.7 41.8c.5 0 .8-.4.8-.8s-.3-.8-.8-.8-.8.3-.8.8.4.8.8.8ZM18.5 39.4a.8.8 0 1 0 0-1.7c-.4 0-.8.3-.8.8s.4.9.8.9ZM18.7 36.9c.5 0 .8-.4.8-.9s-.3-.8-.8-.8-.8.4-.8.8.3.9.8.9ZM20 33.6a.8.8 0 1 0-1.7 0 .8.8 0 0 0 1.7 0ZM20 30.4a.9.9 0 1 0 0 1.7.9.9 0 0 0 0-1.7ZM21 28.1c-.5 0-1 .4-1 1s.5.8 1 .8.9-.4.9-.9-.4-.9-1-.9ZM22.3 26c-.5 0-1 .4-1 1s.5.9 1 .9 1-.4 1-1-.5-1-1-1ZM23.9 26c.5 0 1-.4 1-1s-.5-1-1-1-1 .5-1 1 .5 1 1 1ZM25.7 22.3c-.6 0-1 .5-1 1s.4 1 1 1 1-.4 1-1-.5-1-1-1ZM27.7 20.8a1 1 0 1 0 0 2.1 1 1 0 0 0 0-2ZM29.9 19.6a1 1 0 1 0 0 2.1 1 1 0 0 0 0-2ZM32.1 18.7a1 1 0 1 0 0 2.2 1 1 0 0 0 0-2.2ZM34.5 18c-.6 0-1 .6-1 1.2s.4 1 1 1 1.1-.4 1.1-1-.5-1.1-1-1.1ZM55.3 27a1.2 1.2 0 1 0-2.3 0 1.2 1.2 0 0 0 2.3 0ZM59.9 38.5zM59.8 40.9l-.1.1h.1v-.1z" class="cls-1"/>
    <path d="M59.3 43.4h.1v.1z" class="cls-2"/>
    <path d="m58.6 46 .2-.2c0-.1 0-.2-.2-.2s-.1.1-.1.2l.1.2ZM57.5 48c0 .2 0 .3.2.3s.2-.1.2-.2l-.2-.3c-.2 0-.3.1-.3.3ZM56.5 50c-.2 0-.3 0-.3.2s.1.3.3.3.2-.1.2-.3 0-.2-.2-.2ZM54.7 52.2c0 .2.1.3.3.3s.3-.1.3-.3-.1-.3-.3-.3-.3.1-.3.3ZM53.3 54.4c.2 0 .4-.2.4-.3s-.2-.4-.4-.4-.3.2-.3.3.1.4.3.4ZM51.5 55.3a.4.4 0 1 0 0 .7.4.4 0 0 0 0-.7ZM49.4 57.5c.2 0 .4-.2.4-.4s-.2-.4-.4-.4-.4.1-.4.4.2.4.4.4ZM47.2 58.6c.3 0 .4-.2.4-.4s-.2-.4-.4-.4-.4.2-.4.4.2.4.4.4ZM44.5 59.1c0 .3.2.4.4.4s.5-.2.5-.4-.2-.4-.5-.4-.4.2-.4.4ZM42 59.7c0 .3.3.5.5.5s.5-.2.5-.5-.2-.4-.5-.4-.4.2-.4.4ZM39.6 60.1c0 .3.2.5.5.5s.5-.2.5-.5-.3-.5-.5-.5-.5.2-.5.5ZM37.2 60.2c0 .2.2.4.4.4s.5-.2.5-.4-.2-.5-.5-.5-.4.2-.4.5ZM35.1 60.4a.5.5 0 1 0 0-1 .5.5 0 0 0 0 1ZM32.7 60c.3 0 .5-.3.5-.5s-.2-.5-.5-.5-.5.2-.5.5.3.4.5.4ZM30.4 59.2c.3 0 .5-.2.5-.5s-.3-.5-.5-.5-.5.2-.5.5.2.5.5.5ZM28.1 58.2c.3 0 .5-.2.5-.5s-.2-.5-.5-.5-.5.2-.5.5.2.5.5.5ZM26 57a.6.6 0 1 0 0-1.2.6.6 0 0 0 0 1.2ZM24 55.5c.4 0 .7-.3.7-.6s-.3-.6-.6-.6-.7.3-.7.6.3.6.7.6ZM22.3 53.8c.3 0 .6-.3.6-.6s-.3-.7-.6-.7-.7.3-.7.7.3.6.7.6ZM20.7 50.5c-.4 0-.7.4-.7.7s.3.7.7.7.7-.3.7-.7-.3-.7-.7-.7ZM19.4 50c.4 0 .7-.4.7-.8s-.3-.8-.7-.8-.8.3-.8.8.3.7.8.7ZM18.3 47.7a.8.8 0 1 0 0-1.5.8.8 0 0 0 0 1.5ZM18.3 44.6c0-.4-.4-.8-.9-.8s-.7.4-.7.8.3.8.7.8.9-.4.9-.8ZM16.9 43c.4 0 .8-.3.8-.8s-.4-.8-.8-.8-.8.4-.8.8.3.8.8.8ZM16.6 40.6a.8.8 0 1 0 0-1.7.8.8 0 1 0 0 1.7ZM16.6 38.1c.5 0 .8-.4.8-.8s-.3-.9-.8-.9-.8.4-.8.9.3.8.8.8ZM17.7 34.8a.8.8 0 1 0-1.7 0 .8.8 0 0 0 1.7 0ZM18.3 32.4a.9.9 0 1 0-1.7 0 .9.9 0 0 0 1.7 0ZM18.3 29.2a.9.9 0 1 0 0 1.8.9.9 0 0 0 0-1.8ZM20.3 27.9c0-.5-.4-1-1-1s-.8.5-.8 1 .4.8.9.8.9-.4.9-.8ZM21.6 25.8a1 1 0 1 0-1.8 0 1 1 0 0 0 1.8 0Z" class="cls-1"/>
    <path d="M23.2 23.9c0-.6-.4-1-1-1s-.9.4-.9 1 .4 1 1 1 1-.5 1-1ZM25 22.1c0-.5-.4-1-1-1s-1 .5-1 1 .5 1 1 1 1-.4 1-1ZM26 21.6c.6 0 1-.4 1-1s-.4-1-1-1-1 .5-1 1 .5 1 1 1ZM29.2 19.4a1 1 0 1 0-2.1 0 1 1 0 0 0 2 0ZM31.4 18.3a1 1 0 1 0-2 0 1 1 0 0 0 2 0ZM33.8 17.6c0-.6-.5-1.1-1-1.1s-1.2.5-1.2 1 .5 1.1 1.1 1.1 1.1-.5 1.1-1ZM36.2 17a1 1 0 0 0-2.1 0 1 1 0 0 0 2.1 0ZM61.9 38.5z" class="cls-1"/>
    <path d="M61.7 41v-.1h.1v.1z" class="cls-2"/>
    <path d="m61.5 43.4-.1-.1-.1.1.1.1.1-.1zM60.7 45.6l-.2.2.2.2c.1 0 .2 0 .2-.2s0-.2-.2-.2ZM59.6 48.1l.2.2c.1 0 .2 0 .2-.2s0-.2-.2-.2-.2.1-.2.2ZM58.7 50.6c.1 0 .3-.1.3-.3s-.1-.2-.3-.2-.3 0-.3.2.2.3.3.3ZM57 52.4c0 .2.2.3.4.3s.2-.2.2-.3-.1-.3-.2-.3-.3.1-.3.3ZM55.5 54.3c0 .2.1.4.3.4s.3-.2.3-.4-.1-.3-.3-.3-.3.1-.3.3ZM54 55.7c-.2 0-.3.2-.3.4s.1.3.3.3.4-.1.4-.3-.2-.4-.4-.4ZM51.7 57.6c0 .3.2.4.4.4s.4-.2.4-.4-.2-.4-.4-.4-.4.2-.4.4ZM50.5 59c0-.3-.2-.4-.4-.4s-.5.1-.5.4.2.4.5.4.4-.2.4-.4ZM48.3 60.1c0-.2-.2-.4-.4-.4s-.5.2-.5.4.2.4.5.4.4-.2.4-.4ZM46 61c0-.2-.2-.4-.5-.4s-.4.1-.4.4.2.4.4.4.5-.2.5-.4ZM43.6 61.6c0-.2-.2-.4-.5-.4s-.4.2-.4.4.2.5.4.5.5-.2.5-.5ZM41.2 62c0-.2-.2-.4-.5-.4s-.5.2-.5.4.2.5.5.5.5-.2.5-.5ZM38.7 62.1c0-.2-.2-.4-.5-.4s-.4.2-.4.4.2.5.4.5.5-.2.5-.5ZM36.2 62c0-.2-.2-.4-.4-.4s-.5.2-.5.4.2.5.5.5.4-.2.4-.5ZM33.8 61.6c0-.2-.2-.4-.5-.4s-.5.2-.5.4.3.5.5.5.5-.2.5-.5ZM31.4 61c0-.3-.2-.5-.5-.5s-.5.2-.5.5.2.5.5.5.5-.2.5-.5ZM29.1 60.1c0-.3-.2-.5-.5-.5s-.5.2-.5.5.2.5.5.5.5-.2.5-.5ZM27 59a.6.6 0 1 0-1.1 0 .6.6 0 0 0 1 0ZM24.3 58.2c.4 0 .6-.2.6-.6s-.2-.6-.6-.6-.6.3-.6.6.3.6.6.6ZM22.4 56.7c.4 0 .7-.3.7-.6s-.3-.7-.7-.7-.6.3-.6.7.3.6.6.6ZM20.7 53.7c-.4 0-.7.3-.7.6s.3.7.7.7.6-.3.6-.7-.3-.6-.6-.6ZM19.1 53.1c.4 0 .7-.3.7-.7s-.3-.7-.7-.7-.7.3-.7.7.3.7.7.7ZM17.8 49.6c-.4 0-.8.3-.8.7s.4.8.8.8.7-.4.7-.8-.3-.7-.7-.7ZM16.6 48.9a.8.8 0 1 0 0-1.6.8.8 0 0 0 0 1.6ZM16.5 45.8a.8.8 0 1 0-1.5 0 .8.8 0 0 0 1.5 0ZM15.1 44.2c.5 0 .8-.3.8-.8s-.3-.8-.8-.8-.8.4-.8.8.4.8.8.8ZM15.6 41a.8.8 0 1 0-1.7 0 .8.8 0 1 0 1.7 0ZM14.6 37.7c-.5 0-.8.3-.8.8s.3.9.8.9.8-.4.8-.9-.3-.8-.8-.8ZM14.7 35.2c-.4 0-.8.4-.8.8s.4.9.8.9.9-.4.9-.9-.4-.8-.9-.8ZM16 33.6a.9.9 0 1 0-1.7 0 .9.9 0 0 0 1.7 0ZM15.8 32a.9.9 0 1 0 0-1.7.9.9 0 0 0 0 1.8ZM17.5 28.9a.9.9 0 1 0-1.7 0 .9.9 0 0 0 1.7 0ZM18.7 26.7c0-.5-.4-1-1-1s-.8.5-.8 1 .4 1 .9 1 .9-.5.9-1ZM20 24.6a1 1 0 1 0-1.8 0 1 1 0 0 0 1.9 0Z" class="cls-1"/>
    <path d="M21.6 22.7a1 1 0 1 0-1.9 0 1 1 0 0 0 2 0ZM22.4 22c.6 0 1-.5 1-1s-.4-1-1-1-1 .4-1 1 .5 1 1 1ZM24.3 20.4c.6 0 1-.4 1-1s-.4-1-1-1-1 .4-1 1 .5 1 1 1ZM27.5 18a1 1 0 1 0-2.1 0 1 1 0 0 0 2 0ZM28.6 18a1 1 0 1 0 0-2.1 1 1 0 0 0 0 2ZM31 17.1a1 1 0 0 0 0-2.1c-.7 0-1.1.5-1.1 1s.5 1.1 1 1.1ZM33.3 14.3c-.6 0-1 .5-1 1s.4 1.2 1 1.2 1.1-.5 1.1-1.1-.5-1-1-1ZM57.4 25.8a1.2 1.2 0 1 0 0-2.3 1.2 1.2 0 0 0 0 2.3ZM63.8 38.5h.1-.1zM63.7 40.9v.1h.1l-.1-.1zM63.4 43.4h-.1l.1.1v-.1zM62.8 46l.1-.2c0-.2 0-.1-.1-.1l-.2.1c0 .1 0 .2.2.2ZM61.8 48.2l.2.1c.2 0 .1 0 .1-.1L62 48c-.1 0-.2 0-.2.2ZM60.6 50.4l.3.3.3-.3s-.1-.3-.3-.3-.3.2-.3.3ZM59.4 52.5c0 .2.1.3.3.3s.2-.1.2-.3-.1-.2-.3-.2-.2 0-.2.2Z" class="cls-1"/>
    <circle cx="58.2" cy="54.5" r=".3" class="cls-2"/>
    <path d="M56.9 56.4c0-.2-.1-.3-.3-.3s-.4.1-.4.3.2.3.4.3.3-.1.3-.3ZM54.4 58a.4.4 0 1 0 .7 0 .4.4 0 0 0-.7 0ZM53.2 59.6c0-.2-.2-.4-.4-.4s-.4.2-.4.4.2.4.4.4.4-.2.4-.4ZM50.7 61.3c.2 0 .4-.2.4-.4s-.2-.4-.4-.4-.4.2-.4.4.2.4.4.4ZM48.5 62.4c.2 0 .4-.2.4-.4s-.2-.4-.4-.4-.5.2-.5.4.2.4.5.4ZM46.1 63.3c.3 0 .5-.2.5-.4s-.2-.5-.5-.5-.4.2-.4.5.2.4.4.4ZM43.8 64c.2 0 .4-.2.4-.5s-.2-.4-.4-.4-.5.2-.5.4.2.5.5.5ZM41.3 64.4c.3 0 .5-.2.5-.5s-.2-.4-.5-.4-.4.2-.4.4.2.5.4.5ZM38.9 64.6c.2 0 .4-.2.4-.5s-.2-.4-.4-.4-.5.2-.5.4.2.5.5.5ZM36.4 64.5c.2 0 .4-.2.4-.4s-.2-.5-.4-.5-.5.2-.5.5.2.4.5.4ZM34 64.2a.5.5 0 1 0 0-1 .5.5 0 0 0 0 1ZM31.5 63.7a.5.5 0 1 0 0-1 .5.5 0 0 0 0 1ZM29.2 63c.2 0 .5-.3.5-.5s-.3-.6-.5-.6-.5.3-.5.6.2.5.5.5ZM26.9 62c.3 0 .5-.2.5-.5s-.2-.6-.5-.6-.5.3-.5.6.2.5.5.5ZM25.3 60.3a.6.6 0 1 0-1.2 0 .6.6 0 0 0 1.2 0ZM23.3 58.9c0-.4-.3-.7-.6-.7s-.6.3-.6.6.3.7.6.7.6-.3.6-.6ZM20.8 57.9c.3 0 .6-.3.6-.6s-.2-.7-.6-.7-.6.3-.6.7.3.6.6.6ZM19 56.1c.4 0 .7-.3.7-.6s-.3-.7-.6-.7-.7.3-.7.7.3.6.7.6ZM17.5 54.3c.4 0 .7-.3.7-.7s-.3-.7-.7-.7-.7.3-.7.7.3.7.7.7ZM16.9 51.5c0-.4-.3-.7-.7-.7s-.7.3-.7.7.3.7.7.7.7-.3.7-.7ZM15 50a.8.8 0 1 0 0-1.5.8.8 0 0 0 0 1.6ZM14.9 47c0-.4-.4-.8-.8-.8s-.8.4-.8.8.3.8.8.8.8-.3.8-.8ZM13.4 45.5c.4 0 .8-.4.8-.9s-.4-.8-.8-.8-.8.4-.8.8.3.8.8.8ZM12.9 43c.5 0 .8-.3.8-.8s-.3-.8-.8-.8-.8.4-.8.8.4.8.8.8ZM12.7 40.6a.8.8 0 1 0 0-1.7.8.8 0 1 0 0 1.7ZM12.7 38.1c.4 0 .8-.4.8-.8s-.4-.9-.8-.9-.9.4-.9.9.4.8.9.8ZM12.9 35.6c.5 0 .8-.3.8-.8s-.3-.8-.8-.8-.8.3-.8.8.3.8.8.8ZM14.2 32.4a.8.8 0 1 0-1.7 0 .8.8 0 0 0 1.7 0ZM14 30.9a.9.9 0 1 0 0-1.7.9.9 0 0 0 0 1.7ZM14.1 27.7a.9.9 0 1 0 1.8 0 .9.9 0 0 0-1.8 0Z" class="cls-1"/>
    <circle cx="16.2" cy="25.5" r=".9" class="cls-2"/>
    <path d="M17.5 22.5c-.5 0-1 .5-1 1s.5.9 1 .9 1-.4 1-1-.5-.9-1-.9ZM20 21.5a1 1 0 1 0-1.9 0 1 1 0 0 0 2 0Z" class="cls-1"/>
    <circle cx="20.8" cy="19.8" r="1" class="cls-2"/>
    <path d="M22.7 19.2a1 1 0 1 0-1-1c0 .5.4 1 1 1ZM23.7 16.8c0 .5.5 1 1 1s1-.5 1-1-.4-1-1-1-1 .4-1 1ZM28 15.6a1 1 0 1 0-2.1 0 1 1 0 0 0 2 0ZM30.2 14.6a1 1 0 1 0-2 0 1 1 0 0 0 2 0ZM32.6 13.8c0-.6-.5-1-1-1s-1.2.4-1.2 1 .5 1 1.1 1 1-.4 1-1ZM35 13.3a1 1 0 0 0-2.2 0 1 1 0 0 0 2.2 0ZM65.8 38.5zM65.7 40.9l-.1.1h.2l-.1-.1z" class="cls-1"/>
    <path d="M65.3 43.5v-.1h.1v.1zM64.6 45.8l.2-.1.1.1-.1.2z" class="cls-2"/>
    <path d="M64 48.4c.2 0 .2 0 .2-.2s0-.2-.2-.2-.2 0-.2.2.1.2.2.2ZM63 50.3s-.2 0-.2.2.2.2.3.2l.2-.2c0-.2 0-.3-.2-.3ZM61.9 53l.3-.3-.3-.3c-.1 0-.3.1-.3.3s.2.2.3.2ZM60.3 54.7c0 .2 0 .3.2.3s.3-.1.3-.3-.1-.3-.3-.3-.2.2-.2.3ZM59 56.3c-.2 0-.3.2-.3.4s.1.3.3.3.3-.2.3-.3-.1-.4-.3-.4ZM57 58.4c0 .2.1.4.3.4s.3-.2.3-.4-.1-.3-.3-.3-.4.1-.4.3ZM55.4 60.4c.2 0 .4-.1.4-.3s-.2-.4-.4-.4-.3.2-.3.4.1.3.3.3ZM53.4 62c.2 0 .4-.3.4-.5s-.2-.4-.4-.4-.4.2-.4.4.2.4.4.4ZM51.3 63.2c.2 0 .4-.2.4-.4s-.2-.4-.4-.4-.4.2-.4.4.2.4.4.4ZM49 64.3c.3 0 .5-.2.5-.4s-.2-.5-.4-.5-.5.2-.5.5.2.4.5.4ZM46.8 65.2c.2 0 .4-.2.4-.5s-.2-.4-.5-.4-.4.2-.4.4.2.5.5.5ZM44.4 65.8c.2 0 .4-.2.4-.4s-.2-.5-.4-.5-.5.2-.5.5.2.4.5.4ZM42 66.3c.2 0 .4-.2.4-.5s-.2-.4-.5-.4-.4.2-.4.4.2.5.4.5ZM39.5 66.5c.2 0 .4-.2.4-.4s-.2-.5-.4-.5-.5.2-.5.5.2.4.5.4ZM37 66.5c.3 0 .5-.2.5-.4s-.2-.5-.5-.5-.5.2-.5.5.2.4.5.4ZM34.5 66.3c.3 0 .5-.2.5-.5s-.2-.4-.5-.4-.4.2-.4.4.2.5.4.5ZM32.1 65.9a.5.5 0 1 0 0-1 .5.5 0 0 0 0 1ZM29.7 65.2a.5.5 0 1 0 0-1 .5.5 0 0 0 0 1ZM27.4 64.4c.3 0 .5-.3.5-.5s-.2-.6-.5-.6-.5.3-.5.6.2.5.5.5ZM25.2 63.4a.6.6 0 1 0 0-1.2.6.6 0 0 0 0 1.1ZM23 62.1a.6.6 0 0 0 0-1.1c-.3 0-.5.2-.5.5s.2.6.6.6ZM21 60.7c.4 0 .6-.3.6-.6s-.2-.6-.6-.6-.6.2-.6.6.3.6.6.6ZM19.2 59a.6.6 0 1 0 0-1.2.6.6 0 1 0 0 1.3ZM17.5 57.3a.7.7 0 1 0 0-1.3.7.7 0 0 0 0 1.3ZM16 54c-.5 0-.8.3-.8.7s.3.7.7.7.7-.3.7-.7-.3-.7-.7-.7ZM15.3 52.6a.7.7 0 1 0-1.5 0 .7.7 0 1 0 1.5 0ZM13.4 51.3a.8.8 0 1 0 0-1.6.8.8 0 0 0 0 1.5ZM12.4 49c.4 0 .8-.4.8-.8s-.3-.8-.8-.8-.8.4-.8.8.4.8.8.8ZM11.7 46.6c.4 0 .8-.3.8-.8s-.4-.7-.8-.7-.8.3-.8.8.3.8.8.8ZM12 43.4c0-.4-.4-.8-.9-.8s-.8.4-.8.8.3.9.8.9.8-.4.8-.9ZM10.8 41.8a.8.8 0 1 0 0-1.6.8.8 0 1 0 0 1.6ZM11.5 38.5a.8.8 0 1 0-1.7 0 .8.8 0 0 0 1.7 0ZM10.8 35.2c-.5 0-.9.4-.9.8s.4.9.9.9.8-.4.8-.9-.4-.8-.8-.8ZM12 33.6a.8.8 0 1 0-1.7 0 .8.8 0 0 0 1.7 0ZM11.7 32a.9.9 0 1 0 0-1.7.9.9 0 0 0 0 1.7ZM11.6 28.8a.9.9 0 1 0 1.7 0 .9.9 0 0 0-1.8 0ZM12.5 26.6c0 .4.4.8.9.8s.9-.4.9-.8-.4-1-1-1-.8.5-.8 1ZM13.7 24.4c0 .5.4.9.9.9s.9-.4.9-1-.4-.8-1-.8-.8.4-.8.9ZM15 22.3c0 .5.4 1 1 1s.9-.5.9-1-.5-1-1-1-.9.5-.9 1ZM17.5 21.3a1 1 0 0 0 0-1.9c-.6 0-1 .4-1 1s.4 1 1 1Z" class="cls-1"/>
    <circle cx="19.2" cy="18.6" r="1" class="cls-2"/>
    <path d="M21 16c-.5 0-1 .4-1 1s.5 1 1 1 1-.5 1-1-.4-1-1-1ZM23 14.5c-.5 0-1 .4-1 1s.5 1 1 1 1-.4 1-1-.4-1-1-1ZM26.2 14.2a1 1 0 1 0-2 0 1 1 0 0 0 2 0ZM28.4 13.2a1 1 0 1 0-2 0 1 1 0 0 0 2 0ZM29.7 11.2a1 1 0 1 0 0 2.2 1 1 0 0 0 0-2.2ZM32.1 10.5a1 1 0 0 0 0 2.2 1 1 0 0 0 0-2.2ZM60.5 23.5a1.2 1.2 0 1 0 0-2.3 1.2 1.2 0 0 0 0 2.3ZM67.8 38.5zM67.7 40.9l-.1.1h.1v-.1zM67.5 43.4h-.2l.1.1.1-.1zM67 45.9l-.1-.2-.2.2.2.1.1-.1zM66.3 48.2s0-.2-.2-.2-.2.1-.2.2l.2.2.2-.2ZM65 50.5l.2.2c.1 0 .2 0 .2-.2s0-.2-.2-.2-.2.1-.2.2ZM64.4 52.7c0-.1-.1-.2-.3-.2s-.2.1-.2.2l.2.3c.2 0 .3-.1.3-.3ZM62.8 55.1a.3.3 0 1 0 0-.5.3.3 0 0 0 0 .5ZM61.4 56.6c-.2 0-.3.1-.3.3s.1.3.3.3.3-.2.3-.3-.2-.3-.3-.3ZM59.4 58.7c0 .2.2.4.4.4s.3-.2.3-.4-.1-.3-.3-.3-.4.1-.4.3ZM58 60.1c-.2 0-.3.2-.3.4s.1.3.3.3.3-.1.3-.3-.1-.4-.3-.4Z" class="cls-1"/>
    <circle cx="56.1" cy="62" r=".4" class="cls-2"/>
    <path d="M54 63.9c.3 0 .5-.2.5-.4s-.2-.4-.4-.4-.4.1-.4.4.1.4.4.4ZM52 65.1c.2 0 .3-.2.3-.4s-.1-.4-.4-.4-.4.2-.4.4.2.4.4.4ZM49.7 66.2c.2 0 .4-.2.4-.4s-.2-.5-.4-.5-.5.2-.5.4.2.5.5.5ZM47.4 67c.2 0 .4-.2.4-.4s-.2-.4-.4-.4-.5.2-.5.4.2.4.5.4ZM45 67.7c.2 0 .4-.2.4-.4s-.2-.5-.4-.5-.5.2-.5.5.2.4.5.4ZM42.5 68.2c.3 0 .5-.2.5-.5s-.2-.4-.5-.4-.4.2-.4.4.2.5.4.5ZM40 68.5c.3 0 .6-.2.6-.5s-.3-.5-.5-.5-.5.2-.5.5.2.5.5.5ZM37.6 68.5c.3 0 .5-.2.5-.4s-.2-.5-.5-.5-.4.2-.4.5.2.4.4.4ZM35.1 68.4c.3 0 .5-.3.5-.5s-.2-.5-.5-.5-.4.3-.4.5.2.5.4.5ZM32.7 68a.5.5 0 1 0 0-1 .5.5 0 0 0 0 1ZM30.3 67.5c.3 0 .5-.3.5-.5s-.2-.5-.5-.5-.5.2-.5.5.2.4.5.4ZM28 66.7c.2 0 .4-.2.4-.5s-.2-.5-.5-.5-.5.2-.5.5.3.5.5.5ZM25.7 65.8c.2 0 .5-.3.5-.5s-.3-.6-.5-.6-.5.3-.5.5.2.6.5.6ZM23.5 64.7a.6.6 0 1 0 0-1.2.6.6 0 0 0 0 1.2ZM21.4 63.4c.3 0 .6-.3.6-.6s-.3-.6-.6-.6-.6.2-.6.6.2.6.6.6ZM19.4 61.9c.3 0 .6-.3.6-.6s-.3-.6-.6-.6-.6.2-.6.6.3.6.6.6ZM17.6 60.3c.3 0 .6-.3.6-.7s-.3-.6-.6-.6-.7.3-.7.6.3.7.7.7ZM15.9 57.2c-.4 0-.7.2-.7.6s.3.7.7.7.6-.3.6-.7-.3-.6-.6-.6ZM14.3 56.6a.7.7 0 0 0 0-1.4c-.4 0-.7.3-.7.7s.3.7.7.7ZM13.7 53.8c0-.4-.3-.7-.7-.7s-.8.3-.8.7.4.7.8.7.7-.3.7-.7ZM11.8 52.4a.7.7 0 1 0 0-1.5.7.7 0 1 0 0 1.5ZM11.5 49.4a.8.8 0 1 0-1.5 0 .8.8 0 0 0 1.5 0ZM10 47.9c.4 0 .7-.4.7-.8s-.3-.8-.7-.8-.9.3-.9.8.4.8.8.8ZM10.2 44.6c0-.4-.4-.8-.9-.8s-.8.4-.8.8.4.9.8.9.8-.4.8-.8ZM9 43c.4 0 .7-.3.7-.8s-.3-.8-.8-.8-.8.4-.8.8.4.8.8.8ZM8.7 40.6a.8.8 0 1 0 0-1.7.8.8 0 1 0 0 1.7ZM8.7 38.1c.5 0 .9-.4.9-.8s-.4-.9-.9-.9-.8.4-.8.9.4.8.8.8ZM9 34c-.5 0-1 .3-1 .8s.5.9 1 .9.8-.4.8-.9-.4-.8-.9-.8ZM10.2 32.4a.8.8 0 1 0-1.7 0 .8.8 0 0 0 1.7 0ZM9.1 30a.9.9 0 1 0 1.7 0 .9.9 0 0 0-1.7 0Z" class="cls-1"/>
    <circle cx="10.8" cy="27.6" r=".9" class="cls-2"/>
    <path d="M10.9 25.4c0 .5.4.9.9.9s.9-.4.9-1-.4-.8-1-.8-.8.4-.8.9ZM12 23.2c0 .5.5 1 1 1s.9-.5.9-1-.4-1-1-1-.8.5-.8 1ZM13.4 21.1a1 1 0 1 0 1.9 0 1 1 0 0 0-2 0ZM15.9 18.3c-.6 0-1 .4-1 1s.4.9 1 .9 1-.5 1-1-.5-1-1-1ZM17.6 16.4a1 1 0 1 0 0 2 1 1 0 0 0 0-2ZM19.4 14.8c-.6 0-1 .4-1 1s.5 1 1 1 1-.5 1-1-.5-1-1-1ZM20.4 14.3c0 .5.4 1 1 1s1-.5 1-1-.5-1-1-1-1 .4-1 1ZM22.4 13a1 1 0 1 0 2.1 0 1 1 0 0 0-2 0ZM24.6 11.8a1 1 0 1 0 2.1 0 1 1 0 0 0-2 0ZM26.9 10.8a1 1 0 1 0 2.1 0 1 1 0 0 0-2.1 0ZM29.2 10a1 1 0 1 0 2.2 0 1 1 0 0 0-2.2 0ZM33.8 9.5a1 1 0 0 0-2.2 0 1 1 0 0 0 2.2 0ZM69.7 41v-.1l-.1.1h.1zM69.4 43.4h-.1l.1.1v-.1z" class="cls-1"/>
    <path d="m68.8 45.9.1-.2.2.2-.2.1z" class="cls-2"/>
    <path d="m68.4 48.3-.2-.2-.2.1.2.2.2-.1ZM67.2 50.6l.1.1.2-.1-.1-.2c-.1 0-.2 0-.2.2ZM66.3 52.6c-.1 0-.2 0-.2.2s0 .2.2.2.2 0 .2-.2 0-.2-.2-.2ZM65.4 55c0-.2-.2-.3-.3-.3l-.3.3c0 .2.2.2.3.2l.3-.2ZM63.5 57c0 .2 0 .3.2.3s.3-.1.3-.3-.1-.2-.3-.2-.2 0-.2.2ZM61.9 59c0 .1.1.3.3.3s.3-.1.3-.3-.1-.3-.3-.3-.3.1-.3.3ZM60.5 61.1c.2 0 .4-.1.4-.3s-.2-.3-.4-.3-.3.1-.3.3.1.3.3.3ZM58.7 62.8c.2 0 .4-.1.4-.3s-.2-.4-.4-.4-.4.2-.4.4.2.3.4.3ZM56.8 63.6c-.2 0-.4.2-.4.4s.1.4.4.4.4-.2.4-.4-.2-.4-.4-.4ZM54.7 65.8c.2 0 .4-.2.4-.4s-.2-.4-.4-.4-.4.2-.4.4.2.4.4.4ZM52.5 67c.3 0 .5-.2.5-.4s-.2-.4-.5-.4-.4.2-.4.4.2.4.4.4ZM50.7 67.6c0-.2-.2-.4-.4-.4s-.4.2-.4.4.2.5.4.5.4-.2.4-.5ZM48.4 68.5c0-.3-.2-.5-.4-.5s-.5.2-.5.5.2.4.5.4.4-.2.4-.4ZM46 69.2c0-.3-.2-.5-.4-.5s-.4.2-.4.5.2.4.4.4.4-.2.4-.4ZM43.6 69.6c0-.2-.2-.4-.4-.4s-.5.2-.5.4.2.5.5.5.4-.2.4-.5ZM41.2 70c0-.3-.2-.5-.5-.5s-.5.2-.5.4.3.5.5.5.5-.2.5-.5ZM38.7 70c0-.2-.2-.4-.5-.4s-.4.2-.4.4.2.5.4.5.5-.2.5-.5ZM36.2 70c0-.3-.2-.5-.4-.5s-.5.2-.5.4.2.5.5.5.4-.2.4-.5ZM33.8 69.6a.5.5 0 1 0-1 0 .5.5 0 0 0 1 0ZM31.4 69.2c0-.3-.3-.5-.5-.5s-.5.2-.5.4.2.5.5.5.5-.2.5-.4ZM29 68.5c0-.3-.2-.5-.5-.5s-.5.2-.5.5.2.5.5.5.5-.2.5-.5ZM26.7 67.6c0-.3-.2-.5-.5-.5s-.5.2-.5.5.2.5.5.5.5-.2.5-.5ZM24 67.1c.2 0 .5-.2.5-.5s-.3-.5-.6-.5-.5.2-.5.5.2.5.5.5ZM21.8 66c.3 0 .5-.3.5-.6s-.2-.6-.5-.6-.6.3-.6.6.3.5.6.5ZM19.7 64.6c.3 0 .6-.3.6-.6s-.3-.6-.6-.6-.6.3-.6.6.3.6.6.6ZM17.8 63c.3 0 .6-.2.6-.5s-.3-.6-.6-.6-.7.2-.7.6.3.6.7.6ZM16.6 60.8c0-.4-.3-.6-.7-.6s-.6.2-.6.6.3.6.6.6.7-.3.7-.6ZM14.3 59.7c.3 0 .6-.4.6-.7s-.3-.7-.6-.7-.7.3-.7.7.3.7.7.7ZM12 57c0 .4.3.7.7.7s.8-.3.8-.7a.7.7 0 1 0-1.5 0ZM11.4 54.2a.7.7 0 1 0 0 1.5.7.7 0 1 0 0-1.5ZM10.2 53.6c.4 0 .7-.4.7-.8s-.3-.7-.7-.7-.8.3-.8.7.3.8.8.8ZM9.9 50.6c0-.5-.3-.8-.8-.8s-.7.3-.7.8.3.7.7.7.8-.3.8-.7Z" class="cls-1"/>
    <circle cx="8.3" cy="48.3" r=".8" class="cls-2"/>
    <path d="M8.4 45.9c0-.5-.4-.8-.8-.8s-.8.3-.8.8.3.8.8.8.8-.4.8-.8ZM7.1 44.3c.5 0 .8-.4.8-.8s-.3-.9-.8-.9-.8.4-.8.9.4.8.8.8ZM6.8 41.8c.5 0 .9-.3.9-.8s-.4-.9-.9-.9-.8.4-.8.9.4.8.8.8ZM6.7 39.4a.8.8 0 1 0 0-1.7c-.5 0-.8.3-.8.8s.3.9.8.9ZM6 36c0 .5.4.9.8.9s.9-.4.9-.9-.4-.8-.9-.8-.8.4-.8.8ZM6.3 33.6a.8.8 0 1 0 1.7 0 .8.8 0 0 0-1.7 0ZM6.7 31.2a.9.9 0 1 0 1.7 0 .9.9 0 0 0-1.7 0ZM7.4 28.8a.9.9 0 1 0 1.7 0 .9.9 0 0 0-1.7 0ZM8.3 26.4a.9.9 0 1 0 1.7 0 .9.9 0 0 0-1.8 0ZM9.3 24.2a.9.9 0 0 0 1.8 0 .9.9 0 0 0-1.8 0ZM10.5 22c0 .6.4 1 .9 1s.9-.5.9-1-.4-.8-1-.8-.8.4-.8.9ZM11.8 20a1 1 0 1 0 1.9 0 1 1 0 0 0-1.9 0ZM14.3 17.1c-.6 0-1 .4-1 1s.4.9 1 .9 1-.4 1-1-.5-.9-1-.9ZM16 15.3a1 1 0 1 0 0 1.9 1 1 0 0 0 0-2ZM17.8 13.6c-.6 0-1 .4-1 1s.4 1 1 1 1-.5 1-1-.5-1-1-1ZM19.7 12c-.5 0-1 .5-1 1s.5 1 1 1 1-.4 1-1-.4-1-1-1ZM21.8 10.6a1 1 0 1 0 0 2 1 1 0 0 0 0-2ZM24 9.4a1 1 0 1 0 0 2 1 1 0 0 0 0-2ZM26.2 8.3c-.6 0-1 .5-1 1.1s.4 1 1 1 1-.4 1-1-.4-1-1-1ZM28.5 7.5a1 1 0 1 0 0 2.1 1 1 0 0 0 0-2.1ZM32 7.9c0-.6-.5-1.1-1.1-1.1s-1.1.5-1.1 1 .5 1.2 1 1.2S32 8.4 32 7.8ZM34.4 7.4a1 1 0 0 0-2.2 0 1 1 0 0 0 2.2 0ZM62.6 20a1.2 1.2 0 1 0 2.3 0 1.2 1.2 0 0 0-2.3 0ZM71.7 38.5zM71.6 40.9v.1h.1l-.1-.1zM71.4 43.4h-.1l.1.1v-.1z" class="cls-1"/>
    <path d="M70.8 45.9h.1z" class="cls-2"/>
    <path d="m70.4 48.3-.1-.2c-.1 0-.2 0-.2.2s0 .1.2.1.1 0 .1-.1ZM69.5 50.8l.1-.2-.1-.2-.2.2c0 .1 0 .2.2.2ZM68.5 52.6c-.1 0-.2.1-.2.3s0 .2.2.2.2 0 .2-.2 0-.3-.2-.3ZM67.6 55s-.1-.2-.3-.2-.2.1-.2.3.1.2.2.2l.3-.2ZM66.3 57.2c0-.2-.1-.3-.3-.3s-.2.1-.2.3 0 .3.2.3.3-.2.3-.3ZM64.6 58.9c-.2 0-.3.1-.3.3s.1.3.3.3.3-.1.3-.3-.2-.3-.3-.3ZM63 60.8c-.2 0-.3 0-.3.3s.1.3.3.3.3-.1.3-.3-.1-.4-.3-.4ZM61.2 62.5c-.2 0-.3.1-.3.3s.1.4.3.4.4-.2.4-.4-.2-.3-.4-.3ZM59.4 64.1c-.2 0-.4.2-.4.4s.2.3.4.3.3-.1.3-.3-.1-.4-.3-.4ZM57.8 66a.4.4 0 1 0-.8 0 .4.4 0 0 0 .8 0ZM55.7 67.3c0-.2-.1-.4-.4-.4s-.4.2-.4.4.2.4.4.4.4-.2.4-.4ZM53.6 68.5c0-.2-.2-.4-.4-.4s-.4.2-.4.4.1.4.4.4.4-.2.4-.4ZM51.3 69.5c0-.2-.1-.4-.4-.4s-.4.2-.4.4.2.4.4.4.4-.2.4-.4ZM49 70.3c0-.2-.2-.4-.4-.4s-.5.2-.5.4.2.5.5.5.4-.2.4-.5ZM46.6 71c0-.2-.2-.4-.4-.4s-.4.2-.4.4.2.5.4.5.4-.2.4-.5ZM44.2 71.5c0-.2-.2-.4-.4-.4s-.5.2-.5.4.2.5.5.5.4-.2.4-.5ZM41.8 71.8c0-.2-.2-.4-.5-.4s-.4.2-.4.4.2.5.4.5.5-.2.5-.5ZM39.3 72c0-.3-.2-.5-.4-.5s-.5.2-.5.5.2.4.5.4.4-.2.4-.4ZM36.8 72c0-.3-.2-.5-.4-.5s-.5.2-.5.4.2.5.5.5.4-.2.4-.5Z" class="cls-1"/>
    <circle cx="33.9" cy="71.7" r=".5" class="cls-2"/>
    <circle cx="31.5" cy="71.3" r=".5" class="cls-2"/>
    <circle cx="29.1" cy="70.7" r=".5" class="cls-2"/>
    <path d="M27.2 70c0-.3-.2-.6-.5-.6s-.5.3-.5.5.2.6.5.6.5-.3.5-.5ZM25 69c0-.3-.3-.5-.6-.5s-.5.2-.5.5.2.5.5.5.6-.2.6-.5ZM22.8 68c0-.4-.3-.6-.6-.6s-.5.2-.5.5.2.6.5.6.6-.3.6-.6ZM20.6 66.7c0-.4-.2-.6-.5-.6s-.6.2-.6.6.3.5.6.5.5-.2.5-.6ZM18.6 65.2c0-.3-.2-.6-.5-.6s-.6.3-.6.6.2.6.6.6.5-.2.5-.6ZM16.8 63.7c0-.4-.3-.7-.7-.7s-.6.3-.6.7.3.6.6.6.7-.3.7-.6ZM14.3 62.6c.4 0 .7-.3.7-.6s-.3-.7-.7-.7-.6.3-.6.7.3.6.6.6ZM12.7 60.8a.7.7 0 0 0 0-1.3.7.7 0 0 0 0 1.3ZM11.2 57.5c-.4 0-.7.3-.7.7s.3.7.7.7.7-.3.7-.7-.4-.7-.8-.7ZM9.8 55.4c-.4 0-.8.3-.8.7s.4.8.8.8.7-.4.7-.8-.3-.7-.7-.7ZM8.5 54.7a.7.7 0 1 0 0-1.5.7.7 0 1 0 0 1.5ZM8.3 51.8c0-.5-.4-.8-.8-.8s-.8.3-.8.8.4.7.8.7.8-.3.8-.8ZM6.6 50.2a.8.8 0 1 0 0-1.6.8.8 0 0 0 0 1.6ZM5.9 47.9c.4 0 .8-.4.8-.8s-.4-.8-.8-.8-.8.3-.8.8.3.8.8.8ZM5.3 45.5c.5 0 .8-.4.8-.8s-.3-.9-.8-.9-.8.4-.8.9.4.8.8.8ZM5 43c.4 0 .8-.3.8-.8s-.4-.8-.8-.8-.9.4-.9.8.4.8.9.8ZM4.8 40.6c.4 0 .8-.4.8-.8s-.3-.9-.8-.9-.9.4-.9.8.4.9.9.9ZM4.8 38.1c.4 0 .8-.4.8-.8s-.4-.9-.8-.9-.9.4-.9.9.4.8.9.8ZM4.1 34.8a.8.8 0 1 0 1.7 0 .8.8 0 0 0-1.7 0ZM4.5 32.4a.8.8 0 1 0 1.7 0 .8.8 0 0 0-1.7 0ZM5 30a.9.9 0 1 0 1.7 0A.9.9 0 0 0 5 30ZM5.7 27.6a.9.9 0 1 0 1.8 0 .9.9 0 0 0-1.8 0ZM6.6 25.3c0 .5.4.8.9.8s.9-.3.9-.8-.4-1-1-1-.8.5-.8 1ZM7.6 23c0 .5.4 1 1 1s.8-.5.8-1-.4-.9-.9-.9-.9.4-.9 1ZM8.8 20.9c0 .5.5 1 1 1s.9-.5.9-1-.4-1-1-1-.8.5-.8 1ZM10.2 18.8a1 1 0 1 0 1.9 0 1 1 0 0 0-1.9 0ZM12.7 16c-.5 0-1 .4-1 .9s.4 1 1 1 1-.5 1-1-.5-1-1-1Z" class="cls-1"/>
    <circle cx="14.3" cy="15.1" r="1" class="cls-2"/>
    <path d="M16.1 12.4c-.5 0-1 .4-1 1s.5 1 1 1 1-.5 1-1-.4-1-1-1ZM18 10.8c-.5 0-1 .4-1 1s.5 1 1 1 1-.5 1-1-.4-1-1-1ZM19 10.4a1 1 0 1 0 2.1 0 1 1 0 0 0-2 0ZM21.2 9.1a1 1 0 1 0 2 0 1 1 0 0 0-2 0ZM23.4 8a1 1 0 1 0 2 0 1 1 0 0 0-2 0ZM25.6 7c0 .7.5 1.1 1.1 1.1s1-.4 1-1-.4-1-1-1-1 .4-1 1ZM28 6.3a1 1 0 1 0 2.1 0 1 1 0 0 0-2.1 0ZM30.4 5.7a1 1 0 0 0 2.2 0 1 1 0 0 0-2.2 0ZM64.6 19a1.1 1.1 0 1 0 0-2.3 1.1 1.1 0 0 0 0 2.3ZM73.6 41zM73.3 43.4v.1h.1l-.1-.1zM72.9 45.8l-.1.1.1.1.1-.1-.1-.1z" class="cls-1"/>
    <path d="m72.2 48.3.1-.1.2.1-.2.1z" class="cls-2"/>
    <path d="m71.7 50.6-.2-.1c-.2 0-.1 0-.1.1l.1.2c.1 0 .2 0 .2-.2ZM70.6 52.7l-.2.2.2.2c.1 0 .2 0 .2-.2s0-.2-.2-.2ZM69.5 55l-.2.1.2.3.3-.2c0-.2-.1-.3-.3-.3ZM68.3 57a.3.3 0 1 0 0 .6.3.3 0 0 0 0-.6ZM67 59a.3.3 0 1 0 0 .6.3.3 0 0 0 0-.5ZM65.4 61c-.2 0-.3.1-.3.3s.1.3.3.3.3-.1.3-.3-.1-.3-.3-.3ZM63.7 62.8c-.1 0-.3.1-.3.3s.2.4.3.4.4-.2.4-.4-.2-.3-.4-.3ZM62 64.5c-.2 0-.4.2-.4.4s.2.3.4.3.3-.2.3-.3-.1-.4-.3-.4ZM60 66c-.1 0-.3.2-.3.4s.2.4.4.4.3-.1.3-.3-.1-.4-.3-.4ZM58.5 67.9c0-.2-.2-.4-.4-.4s-.4.2-.4.4.1.4.4.4.4-.2.4-.4ZM56.4 69.2c0-.2-.2-.4-.4-.4s-.4.2-.4.4.1.4.4.4.4-.2.4-.4ZM54.2 70.4c0-.3-.2-.5-.4-.5s-.4.2-.4.5.2.4.4.4.4-.2.4-.4ZM52 71.4c0-.3-.2-.5-.5-.5s-.4.2-.4.5.2.4.4.4.5-.2.5-.4ZM49.6 72.2c0-.2-.2-.4-.4-.4s-.4.2-.4.4.2.5.4.5.4-.2.4-.5ZM47.3 73c0-.3-.2-.5-.5-.5s-.4.2-.4.4.2.5.4.5.5-.2.5-.5ZM44.8 73.4c0-.2-.2-.4-.4-.4s-.5.2-.5.4.2.5.5.5.4-.2.4-.5ZM42.4 73.8c0-.3-.2-.5-.5-.5s-.4.2-.4.5.2.4.4.4.5-.2.5-.4ZM40 74c0-.3-.3-.5-.5-.5s-.5.2-.5.4.2.5.5.5.4-.2.4-.5ZM37.5 74c0-.3-.2-.5-.5-.5s-.5.2-.5.4.2.5.5.5.5-.2.5-.5ZM35 73.8c0-.3-.2-.5-.5-.5s-.4.2-.4.5.2.4.4.4.5-.2.5-.4ZM32.5 73.4a.5.5 0 1 0-.9 0 .5.5 0 0 0 1 0ZM30.1 73c0-.4-.2-.6-.4-.6s-.5.2-.5.5.2.5.5.5.4-.2.4-.5ZM27.8 72.2c0-.2-.2-.5-.5-.5s-.5.3-.5.5.2.5.5.5.5-.2.5-.5ZM25.5 71.4c0-.3-.3-.5-.5-.5s-.6.2-.6.5.3.5.6.5.5-.2.5-.5ZM23.2 70.4c0-.3-.2-.6-.5-.6s-.5.3-.5.6.2.5.5.5.5-.2.5-.5ZM21 69.2c0-.3-.2-.5-.5-.5s-.5.2-.5.5.2.6.5.6.6-.3.6-.6ZM19 67.9a.6.6 0 0 0-1.2 0c0 .3.3.6.6.6s.6-.3.6-.6ZM17 66.5c0-.4-.3-.7-.6-.7s-.6.3-.6.7.3.6.6.6.6-.3.6-.6ZM15.2 64.9c0-.4-.3-.7-.7-.7s-.6.3-.6.7.3.6.6.6.6-.3.6-.6ZM12.7 63.8c.4 0 .7-.3.7-.7s-.3-.6-.7-.6-.6.3-.6.6.3.7.6.7ZM11 62a.7.7 0 1 0 0-1.4.7.7 0 0 0 0 1.4ZM9.6 58.6c-.4 0-.7.4-.7.7s.3.7.7.7.7-.3.7-.7-.4-.7-.8-.7ZM8.2 56.6c-.4 0-.7.3-.7.7s.3.7.7.7.7-.3.7-.7-.3-.7-.7-.7ZM7 55.9c.3 0 .7-.3.7-.8s-.4-.7-.8-.7-.7.3-.7.8.3.7.7.7ZM5.8 53.7a.8.8 0 1 0 0-1.5.8.8 0 0 0 0 1.5ZM5 51.4A.8.8 0 1 0 5 50a.8.8 0 0 0 0 1.5ZM4.2 49c.4 0 .8-.3.8-.7s-.4-.8-.8-.8-.8.4-.8.8.3.8.8.8ZM3.6 46.7c.4 0 .8-.4.8-.8S4 45 3.6 45s-.9.3-.9.8.4.8.9.8ZM3.1 44.3a.8.8 0 1 0 0-1.7.8.8 0 1 0 0 1.7ZM2.9 41.8a.8.8 0 1 0 0-1.6c-.5 0-.9.3-.9.8s.4.8.9.8ZM2.8 39.4a.8.8 0 1 0 0-1.7c-.5 0-.9.3-.9.8s.4.9.9.9ZM2 36a.8.8 0 1 0 1.7 0A.8.8 0 0 0 2 36ZM2.3 33.6a.8.8 0 1 0 1.7 0 .8.8 0 0 0-1.7 0ZM2.7 31.1a.8.8 0 1 0 1.7 0 .8.8 0 0 0-1.7 0ZM3.3 28.7a.9.9 0 1 0 1.7 0 .9.9 0 0 0-1.7 0ZM4 26.4a.9.9 0 1 0 1.8 0 .9.9 0 0 0-1.8 0ZM5 24c0 .6.4 1 .8 1s1-.4 1-1-.5-.8-1-.8-.8.4-.8.9ZM6 21.9a.9.9 0 0 0 1.8 0 .9.9 0 0 0-1.8 0ZM7.2 19.7c0 .5.5 1 1 1s.9-.5.9-1-.4-.9-1-.9-.9.4-.9 1ZM8.6 17.7c0 .5.5.9 1 .9s.9-.4.9-1-.4-.9-1-.9-.9.5-.9 1ZM11 14.8a1 1 0 1 0 0 1.9 1 1 0 0 0 0-2ZM12.7 13c-.5 0-1 .3-1 .9s.5 1 1 1 1-.5 1-1-.4-1-1-1ZM14.5 11.2c-.5 0-1 .4-1 1s.5 1 1 1 1-.5 1-1-.5-1-1-1ZM16.4 9.6c-.5 0-1 .4-1 1s.5 1 1 1 1-.5 1-1-.4-1-1-1ZM18.4 8.1c-.5 0-1 .5-1 1s.5 1 1 1 1-.4 1-1-.4-1-1-1ZM20.5 6.8a1 1 0 1 0 0 2 1 1 0 0 0 0-2ZM22.7 5.6a1 1 0 1 0 0 2 1 1 0 0 0 0-2ZM25 4.6a1 1 0 1 0 0 2.1 1 1 0 0 0 0-2.1ZM27.3 3.7a1 1 0 0 0 0 2.2c.6 0 1-.5 1-1.1s-.4-1-1-1ZM29.7 3a1 1 0 0 0 0 2.2 1 1 0 0 0 0-2.2ZM33.2 3.6a1 1 0 0 0-2.2 0 1 1 0 0 0 2.2 0ZM67 18.8a1.2 1.2 0 1 0 0-2.3 1.2 1.2 0 0 0 0 2.3ZM75.6 41zM75.3 43.5h.1l-.1-.1v.1zM74.9 45.8l-.1.1.1.1.1-.1-.1-.1z" class="cls-1"/>
    <path d="m74.2 48.3.2-.2.1.2-.1.1zM73.4 50.6l.2-.1.1.1-.1.2z" class="cls-2"/>
    <path d="M72.8 52.8c-.1 0-.2 0-.2.2s0 .1.2.1.1 0 .1-.1l-.2-.2ZM71.7 55l-.2.2.2.2c.1 0 .2 0 .2-.2s0-.2-.2-.2ZM70.5 57.1l-.2.3c0 .1 0 .3.2.3s.3-.1.3-.3-.1-.3-.3-.3ZM69.2 59.2c-.1 0-.3.1-.3.3s.2.3.3.3.3-.2.3-.3-.1-.3-.3-.3ZM67.8 61.2c-.2 0-.3.1-.3.3s.1.3.3.3.3-.1.3-.3-.2-.3-.3-.3ZM66.2 63c-.2 0-.3.2-.3.4s.1.3.3.3.3-.1.3-.3-.1-.3-.3-.3ZM64.5 64.8c-.2 0-.4.2-.4.4s.2.3.4.3.3-.1.3-.3-.1-.4-.3-.4ZM62.6 66.5c-.2 0-.3.2-.3.4s.2.3.4.3.3-.1.3-.3-.2-.4-.3-.4ZM60.7 68c-.2 0-.3.2-.3.4s.1.4.3.4.4-.2.4-.4-.2-.4-.4-.4ZM58.7 69.5c-.2 0-.4.1-.4.3s.2.4.4.4.4-.1.4-.4-.2-.3-.4-.3ZM56.6 70.7c-.2 0-.4.2-.4.4s.2.4.4.4.4-.1.4-.4-.2-.4-.4-.4ZM54.4 71.8c-.2 0-.4.2-.4.5s.2.4.4.4.4-.2.4-.4-.2-.5-.4-.5ZM52.1 72.8c-.2 0-.4.2-.4.5s.2.4.4.4.4-.2.4-.4-.1-.5-.4-.5ZM49.8 73.7c-.2 0-.4.2-.4.4s.2.4.4.4.4-.2.4-.4-.2-.4-.4-.4ZM47.4 74.3c-.2 0-.4.2-.4.5s.2.4.4.4.5-.2.5-.4-.2-.5-.5-.5ZM45 74.9c-.3 0-.5.2-.5.4s.2.5.5.5.5-.2.5-.5-.2-.4-.5-.4ZM42.6 75.2c-.3 0-.5.2-.5.5s.2.4.5.4.4-.2.4-.4-.2-.5-.4-.5ZM40 75.4c-.2 0-.4.2-.4.5s.2.4.5.4.5-.2.5-.4-.3-.5-.5-.5ZM37.6 75.5c-.2 0-.4.2-.4.4s.2.5.4.5.5-.2.5-.5-.2-.4-.5-.4ZM35.1 75.3c-.2 0-.4.3-.4.5s.2.5.4.5.5-.3.5-.5-.2-.5-.5-.5ZM32.7 75a.5.5 0 1 0 0 1 .5.5 0 0 0 0-1ZM30.3 74.6a.5.5 0 1 0 0 1 .5.5 0 0 0 0-1ZM27.9 74c-.3 0-.5.2-.5.5s.2.4.5.4.4-.2.4-.4-.2-.5-.4-.5ZM25.5 73.2c-.3 0-.5.2-.5.5s.2.5.5.5.5-.2.5-.5-.2-.5-.5-.5ZM23.2 72.3c-.3 0-.5.2-.5.5s.2.5.5.5.5-.2.5-.5-.2-.5-.5-.5ZM21 71.2c-.3 0-.6.2-.6.5s.3.6.6.6.5-.3.5-.6-.2-.5-.5-.5ZM18.8 70a.6.6 0 1 0 0 1 .6.6 0 0 0 0-1ZM16.7 68.5c-.3 0-.6.3-.6.6s.3.6.6.6.6-.2.6-.6-.2-.6-.6-.6ZM14.8 67c-.4 0-.6.3-.6.7s.2.6.6.6.6-.3.6-.6-.3-.7-.6-.7ZM12.9 65.4c-.4 0-.6.3-.6.6s.2.7.6.7.6-.3.6-.7-.3-.6-.6-.6ZM11.1 63.6c-.3 0-.6.3-.6.7s.3.7.6.7.7-.3.7-.7-.3-.6-.7-.6ZM9.5 61.8c-.4 0-.7.3-.7.7s.3.7.7.7.7-.4.7-.7-.3-.7-.7-.7ZM8 59.8c-.4 0-.7.3-.7.7s.3.7.7.7.7-.3.7-.7-.4-.7-.7-.7ZM6.6 57.7a.7.7 0 1 0 0 1.5.7.7 0 1 0 0-1.5ZM6 56.3c0-.4-.3-.7-.7-.7s-.7.3-.7.7.3.8.7.8.8-.4.8-.8ZM5 54.1c0-.4-.3-.8-.8-.8s-.7.4-.7.8.3.8.7.8.8-.4.8-.8ZM4 51.8c0-.4-.3-.7-.7-.7s-.8.3-.8.7.3.8.8.8.7-.3.7-.8ZM3.3 49.5a.8.8 0 1 0-1.6 0 .8.8 0 0 0 1.6 0ZM2.6 47.1c0-.5-.3-.8-.8-.8s-.8.4-.8.8.4.8.8.8.8-.3.8-.8ZM2.1 44.7c0-.5-.3-.9-.8-.9s-.8.4-.8.9.4.8.8.8.8-.4.8-.8ZM1.8 42.2a.8.8 0 1 0-1.6 0 .8.8 0 1 0 1.6 0ZM.8 40.6c.5 0 .9-.4.9-.8s-.4-.9-.9-.9-.8.4-.8.9.4.8.8.8ZM.8 38.1a.8.8 0 1 0 0-1.7c-.4 0-.8.4-.8.9s.4.8.8.8ZM1 35.6c.5 0 .8-.3.8-.8S1.5 34 1 34s-.8.3-.8.8.3.8.8.8ZM1.3 33.2c.5 0 .9-.4.9-.9s-.4-.8-.9-.8-.8.4-.8.8.4.9.8.9ZM1.8 30.8a.8.8 0 1 0 0-1.7.8.8 0 0 0 0 1.7ZM2.5 28.4a.9.9 0 1 0 0-1.7.9.9 0 0 0 0 1.7ZM3.3 26a.9.9 0 1 0 0-1.7.9.9 0 0 0 0 1.8ZM4.2 23.8c.5 0 .9-.4.9-.9a.9.9 0 1 0-1.8 0c0 .5.4.9 1 .9ZM5.3 21.6c.5 0 1-.4 1-.9s-.5-.9-1-.9-.9.4-.9.9.4.9 1 .9ZM6.6 19.5c.5 0 .9-.4.9-1s-.4-.9-1-.9-.8.4-.8 1 .4.9.9.9ZM8 17.4c.5 0 .9-.4.9-.9s-.4-1-1-1-.9.5-.9 1 .4 1 1 1ZM9.5 15.5c.5 0 1-.4 1-1s-.5-.9-1-.9-1 .5-1 1 .5 1 1 1ZM11.1 13.7a1 1 0 1 0 0-2 1 1 0 0 0 0 2ZM12.9 12a1 1 0 1 0 0-2 1 1 0 0 0 0 2ZM14.8 10.4c.5 0 1-.5 1-1s-.5-1-1-1-1 .4-1 1 .4 1 1 1ZM16.7 8.9c.6 0 1-.5 1-1s-.4-1-1-1-1 .4-1 1 .5 1 1 1ZM18.8 7.5c.6 0 1-.4 1-1s-.4-1-1-1-1 .5-1 1 .5 1 1 1ZM21 6.4a1 1 0 1 0 0-2.1 1 1 0 0 0 0 2ZM23.2 5.3a1 1 0 1 0 0-2.1 1 1 0 0 0 0 2ZM25.5 4.4a1 1 0 1 0 0-2.1 1 1 0 0 0 0 2.1ZM27.9 3.6a1 1 0 1 0 0-2.1 1 1 0 0 0 0 2.1ZM30.3 3a1 1 0 0 0 0-2.1 1 1 0 0 0 0 2.1ZM32.7 2.6a1 1 0 0 0 0-2.2 1 1 0 0 0 0 2.2Z" class="cls-1"/>
    <path d="M34.7 2.2h-.2a1 1 0 0 0-.4 2h-.2a1 1 0 0 0 0 2.2 1 1 0 0 0 .5-2h.1c.6 0 1.1-.5 1.1-1.1a1 1 0 0 0-.6-1h.2a1 1 0 0 0 0-2.2A1 1 0 0 0 34 1.2c0 .5.2.8.6 1Z" class="cls-1"/>
    <path d="M37 2c-.6 0-1.1.5-1.1 1s.2.8.5 1a1 1 0 0 0-1.1 1c0 .5.2.8.5 1a1 1 0 0 0-.5 2H35a1 1 0 0 0-.4 2.1h-.2a1 1 0 0 0 0 2.2 1 1 0 0 0 .5-2.1h.1c.6 0 1.1-.5 1.1-1a1 1 0 0 0-.6-1h.2c.6 0 1-.5 1-1a1 1 0 0 0-.5-1A1 1 0 0 0 37.6 5a1 1 0 0 0-.5-1 1 1 0 0 0 1-1 1 1 0 0 0-.4-.9c.6 0 1.1-.5 1.1-1s-.5-1.2-1-1.2-1.2.5-1.2 1.1c0 .4.2.7.5.9Z" class="cls-1"/>
    <path d="M39.4 2a1 1 0 0 0-1 1c0 .4.1.7.4 1-.6 0-1 .4-1 1 0 .4.1.7.4.9a1 1 0 0 0-1 1c0 .5.1.8.4 1a1 1 0 0 0-1 1c0 .5.1.8.4 1a1 1 0 0 0-1.1 1c0 .5.2.8.5 1a1 1 0 0 0-.5 2h-.1a1 1 0 0 0 0 2.2c.6 0 1-.5 1-1.1a1 1 0 0 0-.6-1h.2c.6 0 1-.4 1-1a1 1 0 0 0-.5-1 1 1 0 0 0 1.2-1c0-.4-.2-.7-.5-1a1 1 0 0 0 1.1-1 1 1 0 0 0-.5-1c.6 0 1.1-.4 1.1-1A1 1 0 0 0 39 6c.6 0 1-.5 1-1a1 1 0 0 0-.4-1c.6 0 1-.4 1-1a1 1 0 0 0-.4-.9 1 1 0 0 0 0-2.2c-.6 0-1.1.5-1.1 1.1 0 .4.2.7.4.9Z" class="cls-1"/>
    <path d="M41.9 2.2a1 1 0 0 0-1 1c0 .4.1.7.3.9a1 1 0 0 0-1 1c0 .4.2.7.4 1a1 1 0 0 0-1 1c0 .3.2.6.4.8A1 1 0 0 0 39 9c0 .4.2.7.4.9-.6 0-1 .5-1 1 0 .4.1.7.4 1a1 1 0 0 0-1 1c0 .4.1.7.4.9a1 1 0 0 0-1 1c0 .4.1.8.4 1-.6 0-1.1.4-1.1 1 0 .4.2.8.5 1-.6 0-1.1.5-1.1 1s.5 1.1 1 1.1 1.2-.4 1.2-1a1 1 0 0 0-.6-1 1 1 0 0 0 1.2-1 1 1 0 0 0-.5-1c.6 0 1.1-.4 1.1-1a1 1 0 0 0-.5-.9c.6 0 1.1-.5 1.1-1a1 1 0 0 0-.4-1c.6 0 1-.4 1-1a1 1 0 0 0-.4-.9c.6 0 1-.5 1-1a1 1 0 0 0-.4-1c.6 0 1-.4 1-1 0-.3 0-.6-.3-.8.5 0 1-.5 1-1.1a1 1 0 0 0-.4-.9c.6 0 1-.5 1-1a1 1 0 0 0-.4-.9c.6 0 1-.5 1-1 0-.7-.4-1.1-1-1.1s-1.2.4-1.2 1c0 .4.2.7.4.9Z" class="cls-1"/>
    <path d="M44.3 2.5a1 1 0 0 0-1 1.1c0 .3.1.6.4.8a1 1 0 0 0-1 1c0 .4.1.7.3 1a1 1 0 0 0-1 1c0 .3.2.6.5.8a1 1 0 0 0-1 1c0 .4.1.7.3 1a1 1 0 0 0-1 1c0 .3.2.6.4.8a1 1 0 0 0-.6 2 1 1 0 0 0-1 1c0 .3.2.6.4.8a1 1 0 0 0-1 1.1c0 .4.2.7.4.9-.6 0-1 .5-1 1s.5 1.2 1 1.2 1.2-.5 1.2-1.1a1 1 0 0 0-.4-.9c.5 0 1-.5 1-1 0-.4-.2-.7-.4-1 .6 0 1-.4 1-1a1 1 0 0 0-.4-.8c.6 0 1-.5 1-1.1a1 1 0 0 0-.4-.8c.6 0 1-.5 1-1.1a1 1 0 0 0-.3-.8c.5 0 1-.5 1-1.1a1 1 0 0 0-.4-.8c.5 0 1-.5 1-1.1a1 1 0 0 0-.4-.8c.5 0 1-.5 1-1.1a1 1 0 0 0-.4-.8c.6 0 1-.5 1-1a1 1 0 0 0-.4-.9c.6 0 1-.5 1-1 0-.7-.5-1.2-1.1-1.2s-1.1.5-1.1 1.1c0 .3.2.6.4.8Z" class="cls-1"/>
    <path d="M46.7 3A1 1 0 0 0 46 5c-.6 0-1 .5-1 1 0 .4.1.7.4.9a1 1 0 0 0-1 1c0 .4.1.7.4.9a1 1 0 0 0-1 1c0 .4.1.6.3.8a1 1 0 0 0-1 1.1c0 .3.2.6.4.8a1 1 0 0 0-1 1.1c0 .3.2.6.4.8a1 1 0 0 0-.6 2 1 1 0 0 0-.6 1.8 1 1 0 0 0 .1 2.2c.6 0 1.1-.5 1.1-1.1 0-.3-.1-.6-.3-.8a1 1 0 0 0 .6-2c.5 0 1-.4 1-1 0-.3-.2-.6-.4-.8a1 1 0 0 0 .6-1.9c.6 0 1-.5 1-1a1 1 0 0 0-.4-.9c.6 0 1-.5 1-1a1 1 0 0 0-.4-.9c.6 0 1-.5 1-1a1 1 0 0 0-.4-.8c.6-.1 1-.6 1-1.1a1 1 0 0 0-.3-.8c.5 0 1-.5 1-1 0-.4-.2-.7-.4-.9.5 0 1-.5 1-1 0-.7-.6-1.2-1.2-1.2s-1 .5-1 1.1c0 .4 0 .6.3.8Z" class="cls-1"/>
    <path d="M49 3.7a1.1 1.1 0 0 0-.6 1.9 1.1 1.1 0 0 0-.6 1.9 1.1 1.1 0 0 0-.6 1.9 1 1 0 0 0-1 1c0 .4.2.6.4.8a1.1 1.1 0 0 0-.6 2 1.1 1.1 0 0 0-.6 1.8 1.1 1.1 0 0 0-.6 1.9 1.1 1.1 0 0 0-.6 1.9 1 1 0 0 0-1 1c0 .7.5 1.2 1.1 1.2s1.1-.5 1.1-1.2c0-.3-.1-.5-.3-.8a1.1 1.1 0 0 0 .6-1.8 1.1 1.1 0 0 0 .6-2 1.1 1.1 0 0 0 .6-1.8 1.1 1.1 0 0 0 .6-1.9c.6 0 1-.5 1-1 0-.4-.2-.6-.4-.9a1.1 1.1 0 0 0 .6-1.8 1.1 1.1 0 0 0 .6-2A1.1 1.1 0 0 0 50 4a1.1 1.1 0 0 0-.2-2.2 1.1 1.1 0 0 0-.8 2Z" class="cls-1"/>
    <path d="M51.4 4.6c-.6 0-1 .5-1 1 0 .4.1.6.3.8-.5.1-1 .6-1 1.1 0 .3.2.6.4.8-.5.1-1 .5-1 1.1 0 .3.2.6.4.8-.5 0-1 .5-1 1 0 .4.2.7.4.9a1 1 0 0 0-.6 1.9 1 1 0 0 0-.6 1.8 1 1 0 0 0-.6 2c-.5 0-1 .4-1 1 0 .3.2.6.4.8a1 1 0 0 0-1 1c0 .7.5 1.2 1.1 1.2s1.1-.5 1.1-1.1c0-.3-.1-.6-.3-.8a1.1 1.1 0 0 0 .6-2c.5 0 1-.4 1-1 0-.3-.2-.6-.4-.8a1 1 0 0 0 .6-1.9 1 1 0 0 0 .6-1.8c.6-.1 1-.6 1-1.1 0-.3-.1-.6-.4-.8.6-.1 1-.5 1-1.1 0-.3-.1-.6-.3-.8.5 0 1-.5 1-1a1 1 0 0 0-.4-.9c.5 0 1-.5 1-1 0-.4-.2-.7-.4-.9a1.1 1.1 0 0 0-.2-2.2c-.6 0-1 .5-1 1.1 0 .4 0 .6.3.8Z" class="cls-1"/>
    <path d="M53.6 5.6c-.5 0-1 .5-1 1 0 .4.2.6.4.8-.5.1-1 .6-1 1.1 0 .4.2.6.4.8-.5.1-1 .6-1 1.1 0 .4.2.6.4.8-.6.1-1 .6-1 1.1 0 .4.1.6.4.8-.6.1-1 .6-1 1.1 0 .4.1.7.3.9-.5 0-1 .5-1 1 0 .4.2.6.4.8-.5.1-1 .6-1 1.1 0 .4.2.6.4.9-.6 0-1 .5-1 1 0 .4.1.7.4.9-.6 0-1 .5-1 1 0 .7.5 1.2 1 1.2s1.2-.5 1.2-1.1c0-.3-.1-.6-.4-.8.6-.1 1-.6 1-1.1a1 1 0 0 0-.3-.9 1.1 1.1 0 0 0 .6-1.9c.5 0 1-.5 1-1 0-.4-.2-.7-.4-.9a1.1 1.1 0 0 0 .7-1.9 1.1 1.1 0 0 0 .6-1.9 1.1 1.1 0 0 0 .6-1.9c.5 0 1-.5 1-1a1 1 0 0 0-.4-.9 1.1 1.1 0 0 0 .6-1.9 1.1 1.1 0 0 0-.1-2.2c-.6 0-1.1.5-1.1 1.2 0 .3.1.6.3.8Z" class="cls-1"/>
    <path d="M55.8 6.7c-.5 0-1 .5-1 1.1 0 .3.2.6.4.8-.6.1-1 .6-1 1.1 0 .4.1.7.4.9-.6 0-1 .5-1 1 0 .4.1.7.3.9-.5 0-1 .5-1 1 0 .4.2.7.4.9-.6 0-1 .5-1 1 0 .4.1.7.4 1-.6 0-1 .5-1 1 0 .4.1.7.3.9-.5 0-1 .5-1 1 0 .4.1.7.4 1-.6 0-1 .5-1 1 0 .4.1.7.3 1-.6 0-1 .4-1 1s.5 1.2 1 1.2S52 24 52 23.3c0-.3-.2-.6-.4-.8.6 0 1-.5 1-1.1 0-.4 0-.7-.3-.9.6 0 1-.5 1-1.1a1 1 0 0 0-.4-.9c.6 0 1-.5 1-1 0-.4 0-.7-.3-.9.6 0 1-.5 1-1.1 0-.3-.1-.6-.3-.8.5-.1 1-.6 1-1.1 0-.4-.2-.7-.4-.9.5 0 1-.5 1-1a1 1 0 0 0-.4-.9 1.1 1.1 0 0 0 .7-2c.5 0 1-.4 1-1 0-.3-.2-.6-.4-.8.5-.1 1-.5 1-1.1a1.1 1.1 0 1 0-1.9.8Z" class="cls-1"/>
    <path d="M58 8c-.6 0-1 .5-1 1.1 0 .4 0 .6.3.8-.6.1-1 .6-1 1.2 0 .3.1.6.4.8-.6 0-1 .5-1 1.1 0 .3 0 .6.3.9-.6 0-1 .5-1 1 0 .4.1.7.4 1-.6 0-1.1.4-1.1 1 0 .4.2.7.4 1-.6 0-1.1.4-1.1 1 0 .4.2.7.4 1-.6 0-1.1.4-1.1 1 0 .4.2.7.5 1-.7 0-1.2.4-1.2 1 0 .5.2.8.5 1h-.1a1.1 1.1 0 1 0 1.1 1.1c0-.4-.2-.7-.5-1l.1.1c.7 0 1.2-.5 1.2-1.1 0-.4-.2-.7-.5-1 .7 0 1.2-.4 1.2-1 0-.4-.2-.7-.5-1 .7 0 1.2-.4 1.2-1 0-.4-.2-.7-.4-1 .6 0 1-.4 1-1 0-.4-.1-.7-.3-.9.6 0 1-.5 1-1.1 0-.4-.1-.7-.4-.9.6 0 1.1-.5 1.1-1 0-.4-.2-.7-.4-1 .6 0 1-.5 1-1 0-.4-.1-.7-.3-.9.5 0 1-.5 1-1 0-.4-.1-.7-.4-1 .6 0 1-.4 1-1s-.5-1.1-1-1.1-1.2.5-1.2 1c0 .4.1.7.4 1Z" class="cls-1"/>
    <path d="M60 9.4c-.6 0-1 .6-1 1.2 0 .3 0 .6.3.8-.6 0-1 .5-1 1.1 0 .4.1.7.4 1-.6 0-1.1.4-1.1 1 0 .4.1.7.4 1-.6 0-1.1.4-1.1 1 0 .4.1.7.4 1-.6 0-1.2.4-1.2 1 0 .5.3.8.6 1h-.1c-.7 0-1.2.5-1.2 1.1 0 .4.3.8.6 1h-.2c-.6 0-1.1.4-1.1 1 0 .5.2.9.6 1H55a1.2 1.2 0 1 0 1.2 1.2c0-.5-.3-.9-.7-1h.3c.6 0 1.2-.5 1.2-1.1 0-.4-.3-.8-.6-1h.2c.6 0 1.1-.5 1.1-1s-.2-.8-.5-1h.1c.6 0 1.1-.5 1.1-1.1 0-.4-.1-.7-.4-1 .7 0 1.2-.4 1.2-1 0-.4-.2-.7-.5-1 .7 0 1.2-.5 1.2-1 0-.4-.2-.7-.5-1 .6 0 1.1-.4 1.1-1 0-.4-.1-.7-.4-1 .6 0 1.1-.4 1.1-1a1 1 0 0 0-.4-.9c.6 0 1-.5 1-1.1s-.4-1.1-1-1.1-1.2.5-1.2 1c0 .4.2.7.4 1Z" class="cls-1"/>
    <path d="M61.5 10.2c0 .3.2.6.5.8-.7 0-1.2.5-1.2 1.2 0 .3.2.7.5.9-.7 0-1.2.5-1.2 1s.2.8.5 1c-.7 0-1.2.5-1.2 1.1 0 .5.2.8.5 1h-.1c-.7 0-1.2.5-1.2 1.1 0 .4.3.8.6 1H59c-.6 0-1.1.5-1.1 1s.2 1 .6 1.1h-.3a1.2 1.2 0 1 0 1.1 1.1c0-.5-.2-.8-.6-1h.3c.6 0 1.1-.5 1.1-1.1 0-.4-.2-.8-.5-1h.2c.6 0 1.1-.5 1.1-1s-.2-.8-.5-1h.1c.7 0 1.2-.5 1.2-1.1 0-.4-.2-.8-.5-1 .7 0 1.2-.5 1.2-1.1 0-.4-.2-.7-.5-.9.7 0 1.2-.5 1.2-1.1 0-.4-.2-.7-.4-.9.6 0 1.1-.5 1.1-1.1S63.3 9 62.7 9s-1.2.5-1.2 1.2Z" class="cls-1"/>
    <path d="M63.3 11.8c0 .4.3.8.6 1h-.2c-.6 0-1.1.5-1.1 1s.2.9.6 1H63c-.7 0-1.2.5-1.2 1.2 0 .4.3.8.7 1h-.3a1.1 1.1 0 0 0-.5 2 1 1 0 0 0-.3 0 1.2 1.2 0 1 0 1.1 1.2c0-.5-.2-.9-.6-1h.3c.6 0 1.1-.5 1.1-1.1 0-.5-.2-.9-.6-1h.3c.6 0 1.1-.5 1.1-1.1 0-.5-.2-.8-.6-1h.2c.7 0 1.2-.5 1.2-1.1 0-.4-.2-.7-.6-1h.2a1.1 1.1 0 1 0-1.2-1Z" class="cls-1"/>
    <path d="M65 13.6c0 .5.3.9.7 1h-.3a1.1 1.1 0 1 0 1.1 1.1c0-.4-.2-.8-.6-1h.3a1.1 1.1 0 1 0-1.2-1Z" class="cls-1"/>
    <path d="M66.6 15.5a1.2 1.2 0 1 0 2.3 0 1.2 1.2 0 0 0-2.3 0ZM68 17.5a1.2 1.2 0 1 0 2.4 0 1.2 1.2 0 0 0-2.3 0Z" class="cls-1"/>
    <path d="M69.4 19.4c-.1-.5-.6-.8-1.1-.8-.6 0-1.1.5-1.2 1 0-.5-.5-1-1-1a1.2 1.2 0 0 0 0 2.4c.6 0 1-.5 1-1a1.1 1.1 0 0 0 2.3-.1 1.2 1.2 0 0 0 2.3-.3c0-.6-.5-1.1-1.2-1.1-.6 0-1 .4-1.1 1Z" class="cls-1"/>
    <path d="M70.6 21.4c-.2-.4-.6-.7-1-.7-.6 0-1 .3-1.2.8-.2-.4-.6-.7-1-.7-.6 0-1.1.4-1.2.9-.2-.5-.6-.8-1.1-.8-.6 0-1.1.4-1.2 1 0-.5-.5-.9-1-.9a1.2 1.2 0 0 0 0 2.3c.5 0 1-.5 1-1 .2.5.6 1 1.2 1s1-.5 1.1-1c.2.5.6.8 1.1.8s1-.3 1.1-.8c.2.4.6.7 1.1.7s1-.3 1.1-.7c.2.4.6.7 1.1.7a1.2 1.2 0 0 0 0-2.4c-.5 0-1 .3-1.1.8Z" class="cls-1"/>
    <path d="M71.7 23.6a1.2 1.2 0 0 0-2.2 0c-.2-.4-.6-.6-1-.6-.5 0-1 .3-1.1.7-.2-.4-.6-.7-1-.7-.6 0-1 .4-1.2.8-.2-.4-.6-.7-1-.7-.6 0-1 .4-1.2 1-.1-.6-.6-.9-1-.9-.7 0-1.1.5-1.2 1-.1-.5-.6-.9-1.1-.9a1.2 1.2 0 0 0 0 2.4c.6 0 1-.5 1.1-1 .1.5.6.9 1.1.9s1-.4 1.1-1c.2.5.6.9 1.1.9s1-.4 1.1-.8c.2.4.6.7 1.1.7s1-.3 1.1-.8c.2.4.6.7 1 .7s1-.3 1.2-.7c.2.4.6.7 1 .7s1-.3 1.1-.7c.2.4.6.6 1 .6a1.2 1.2 0 1 0-1-1.6Z" class="cls-1"/>
    <path d="M72.6 25.8c-.2-.3-.6-.6-1-.6s-1 .3-1.1.7c-.2-.4-.6-.7-1-.7s-1 .3-1.1.7c-.2-.3-.6-.6-1-.6s-1 .3-1.1.7a1.2 1.2 0 0 0-2.2 0c-.2-.4-.6-.6-1-.6-.5 0-1 .3-1.1.7-.2-.4-.6-.7-1.1-.7-.5 0-1 .4-1.1 1-.2-.5-.6-.8-1.1-.8-.6 0-1 .4-1.1 1a1.1 1.1 0 0 0-2.3.2c0 .7.5 1.2 1.2 1.2.5 0 1-.5 1-1 .2.5.6.9 1.2.9s1-.4 1.1-.9c.2.5.6.8 1.1.8s1-.3 1.1-.7c.2.4.6.7 1 .7s1-.3 1.2-.8c.1.4.5.7 1 .7s1-.3 1.1-.7c.2.4.6.7 1 .7s1-.3 1.1-.7c.2.3.6.6 1 .6s1-.3 1.1-.7c.2.4.6.7 1 .7s.9-.3 1-.7c.3.4.7.7 1.1.7.7 0 1.2-.6 1.2-1.2s-.5-1.2-1.2-1.2c-.4 0-.8.3-1 .7Z" class="cls-1"/>
    <path d="M73.3 28.1c-.2-.3-.6-.6-1-.6s-.8.3-1 .7c-.2-.4-.6-.6-1-.6s-.9.2-1 .6c-.3-.4-.7-.6-1.1-.6s-.9.2-1 .6c-.3-.3-.6-.6-1-.6s-1 .3-1.1.7c-.2-.4-.6-.7-1-.7s-1 .3-1.1.7c-.2-.4-.6-.6-1-.6s-1 .3-1.1.7c-.2-.4-.6-.7-1-.7-.6 0-1 .3-1.2.7-.2-.3-.6-.6-1-.6-.6 0-1 .3-1.1.8-.2-.5-.6-.8-1.1-.8a1.2 1.2 0 0 0 0 2.4c.5 0 1-.3 1-.8.3.4.7.7 1.2.7s.9-.3 1-.7c.3.4.7.7 1.1.7s1-.3 1.1-.7c.2.4.6.6 1 .6s1-.3 1.1-.7c.2.4.6.7 1 .7s1-.3 1.1-.7c.2.4.6.7 1 .7s.9-.3 1-.7c.3.4.7.6 1.1.6s.8-.2 1-.6a1.2 1.2 0 0 0 2 0c.3.4.7.6 1.1.6s.8-.2 1-.6c.2.4.6.6 1 .6.7 0 1.3-.5 1.3-1.2s-.6-1.2-1.2-1.2c-.5 0-.9.3-1 .6Z" class="cls-1"/>
    <path d="M73.9 30.5c-.2-.4-.6-.6-1-.6s-.8.3-1 .6c-.2-.3-.6-.6-1-.6s-.8.3-1 .6c-.2-.3-.6-.5-1-.5s-.8.2-1 .6c-.3-.4-.6-.6-1-.6s-.9.2-1 .6c-.3-.4-.7-.6-1-.6s-1 .3-1.1.6c-.2-.3-.6-.6-1-.6s-.9.3-1 .7c-.3-.4-.6-.7-1-.7s-1 .3-1.1.7c-.2-.4-.6-.7-1-.7s-1 .3-1.1.7c-.2-.4-.6-.6-1-.6-.7 0-1.3.5-1.3 1.2s.6 1.2 1.2 1.2c.5 0 1-.3 1.1-.7.2.4.6.6 1 .6s.9-.2 1.1-.6c.2.4.6.6 1 .6s.8-.2 1-.6c.2.4.6.6 1 .6s.9-.3 1.1-.6c.2.3.6.6 1 .6s.8-.3 1-.6c.2.4.6.6 1 .6s.9-.2 1-.6c.3.3.7.6 1 .6s.9-.3 1.1-.6c.2.3.6.6 1 .6s.8-.3 1-.6c.2.3.6.6 1 .6s.8-.2 1-.6a1.2 1.2 0 1 0 0-1.3Z" class="cls-1"/>
    <path d="M74.3 32.9c-.2-.3-.5-.5-1-.5s-.7.2-1 .5c-.2-.3-.5-.5-1-.5s-.7.2-1 .5c-.2-.3-.5-.5-1-.5s-.7.2-1 .5c-.2-.3-.5-.5-1-.5s-.7.2-1 .5c-.2-.3-.5-.5-1-.5s-.7.2-1 .5c-.1-.3-.5-.5-1-.5s-.7.2-1 .6c-.2-.4-.5-.6-1-.6s-.7.2-1 .6c-.2-.4-.5-.6-1-.6s-.7.2-1 .6c-.2-.4-.5-.6-1-.6a1.2 1.2 0 1 0 0 2.4c.5 0 .8-.2 1-.6.3.4.6.6 1 .6s.8-.3 1-.6c.3.3.6.6 1 .6s.8-.3 1-.6c.3.3.6.6 1 .6s.9-.3 1-.6c.3.3.6.6 1 .6s.8-.3 1-.6c.3.3.6.6 1 .6s.8-.3 1-.6c.3.3.6.6 1 .6s.8-.2 1-.6c.3.4.6.6 1 .6s.8-.2 1-.5c.3.3.6.5 1 .5s.8-.2 1-.5c.3.3.6.5 1 .5a1.2 1.2 0 1 0-1-2Z" class="cls-1"/>
    <path d="M75.6 34.8c-.4 0-.8.2-1 .5-.2-.3-.6-.5-1-.5s-.8.2-1 .5a1.2 1.2 0 0 0-2 0 1.2 1.2 0 0 0-2 0c-.2-.3-.5-.5-1-.5s-.7.2-1 .5a1.2 1.2 0 0 0-1.9 0 1.2 1.2 0 0 0-2 0c-.2-.3-.6-.5-1-.5s-.7.2-1 .5a1.2 1.2 0 0 0-2 0 1.2 1.2 0 0 0-2.2.7 1.2 1.2 0 0 0 2.3.8 1.2 1.2 0 0 0 2 0c.2.3.5.5 1 .5s.7-.2 1-.5a1.2 1.2 0 0 0 2 0c.1.3.5.5.9.5s.8-.2 1-.5a1.2 1.2 0 0 0 2 0 1.2 1.2 0 0 0 2 0 1.2 1.2 0 0 0 2 0c.1.3.5.5.9.5s.8-.2 1-.5c.2.3.6.5 1 .5a1.2 1.2 0 1 0 0-2.5Z" class="cls-1"/>
    <path d="M76.6 38.5a9.6 9.6 0 1 1-19.3 0 9.6 9.6 0 0 1 19.3 0Z" class="cls-1"/>
  </g>
</svg>